<svg id="svg" xmlns="http://www.w3.org/2000/svg" xmlns:xlink="http://www.w3.org/1999/xlink" width="400" height="111.5270935960591" viewBox="0, 0, 400,111.5270935960591"><g id="svgg"><path id="path0" d="M217.143 51.429 L 217.143 87.488 225.813 87.488 L 234.483 87.488 234.483 80.675 L 234.483 73.862 236.444 71.930 C 237.523 70.868,238.472 70.076,238.554 70.172 C 238.635 70.267,240.787 74.069,243.336 78.621 C 245.885 83.172,248.095 87.033,248.248 87.199 C 248.401 87.366,252.894 87.454,258.232 87.396 L 267.937 87.291 258.895 72.709 C 253.922 64.690,249.853 58.031,249.852 57.913 C 249.852 57.794,253.665 53.122,258.325 47.529 C 262.985 41.936,266.798 37.200,266.798 37.005 C 266.798 36.803,262.417 36.657,256.650 36.666 L 246.502 36.682 240.591 44.202 L 234.680 51.723 234.577 33.546 L 234.475 15.369 225.809 15.369 L 217.143 15.369 217.143 51.429 M275.010 15.835 C 267.718 17.777,266.989 28.160,273.892 31.760 C 275.813 32.762,281.032 32.763,282.956 31.761 C 293.343 26.353,286.561 12.759,275.010 15.835 M48.468 17.044 C 48.460 18.668,47.003 23.206,45.200 27.226 C 43.468 31.086,42.859 33.054,43.031 34.228 C 43.146 35.013,43.050 35.328,42.733 35.207 C 42.434 35.092,41.741 36.620,40.815 39.435 C 40.017 41.859,38.576 45.633,37.613 47.821 C 36.520 50.304,35.862 52.378,35.862 53.338 C 35.862 54.574,35.759 54.790,35.336 54.438 C 34.919 54.092,34.167 55.069,31.691 59.179 C 25.125 70.076,24.039 72.578,24.039 76.809 L 24.039 79.052 19.901 83.134 C 17.626 85.379,15.764 87.366,15.764 87.549 C 15.764 88.202,16.905 87.865,18.100 86.860 C 19.002 86.100,19.845 85.807,21.381 85.719 C 22.518 85.654,24.690 85.476,26.207 85.324 C 28.767 85.068,29.164 85.138,31.724 86.296 C 34.937 87.751,40.724 89.243,40.918 88.668 C 41.001 88.425,41.348 88.442,41.857 88.715 C 44.206 89.972,56.355 88.038,56.355 86.407 C 56.355 86.135,56.690 85.911,57.100 85.911 C 58.772 85.911,65.363 80.008,68.712 75.510 C 70.873 72.607,70.573 72.345,67.094 74.103 C 64.207 75.561,59.570 76.847,57.200 76.847 C 56.610 76.847,55.459 77.188,54.642 77.604 C 53.621 78.125,53.305 78.184,53.630 77.792 C 53.890 77.479,54.028 77.148,53.937 77.057 C 53.588 76.708,44.297 76.668,43.581 77.013 C 42.998 77.293,42.900 77.256,43.149 76.853 C 44.158 75.220,34.042 78.049,30.443 80.406 C 27.800 82.137,27.842 82.353,30.837 82.417 L 33.300 82.469 30.148 82.786 C 26.186 83.184,23.004 83.860,21.478 84.628 C 20.610 85.064,21.128 84.345,23.426 81.922 C 27.091 78.057,28.541 76.605,27.212 78.128 C 25.883 79.652,26.809 79.574,30.868 77.819 C 34.344 76.316,37.720 74.067,38.120 72.987 C 38.257 72.618,38.684 72.035,39.070 71.692 C 39.875 70.976,42.089 67.493,44.812 62.660 C 47.233 58.364,47.170 58.575,45.963 58.806 C 44.612 59.064,44.654 58.958,46.281 57.998 C 47.849 57.073,49.618 53.611,51.956 46.897 C 54.550 39.445,53.873 28.784,50.123 18.030 C 49.444 16.082,48.476 15.506,48.468 17.044 M81.576 53.399 L 81.576 87.488 104.433 87.488 L 127.291 87.488 127.291 80.394 L 127.291 73.300 113.300 73.300 L 99.310 73.300 99.310 46.305 L 99.310 19.310 90.443 19.310 L 81.576 19.310 81.576 53.399 M345.222 30.345 L 345.222 36.650 342.266 36.650 L 339.310 36.650 339.310 42.956 L 339.310 49.261 342.232 49.261 L 345.153 49.261 345.317 63.153 C 345.520 80.283,346.112 82.634,351.049 85.904 C 354.848 88.421,363.990 89.364,369.458 87.802 L 371.429 87.240 371.537 80.861 L 371.645 74.483 368.501 74.483 C 362.459 74.483,362.562 74.724,362.562 60.474 L 362.562 49.261 366.502 49.261 L 370.443 49.261 370.443 42.956 L 370.443 36.650 366.502 36.650 L 362.562 36.650 362.562 30.345 L 362.562 24.039 353.892 24.039 L 345.222 24.039 345.222 30.345 M146.899 36.245 C 137.526 37.945,131.204 43.606,130.543 50.891 L 130.334 53.202 138.815 53.202 L 147.296 53.202 147.737 51.451 C 149.190 45.680,157.241 47.930,157.241 54.107 L 157.241 56.234 151.626 56.483 C 135.880 57.181,128.761 62.784,129.345 74.018 C 129.999 86.587,147.333 93.597,156.928 85.173 L 158.352 83.922 158.913 85.606 L 159.474 87.291 168.013 87.397 C 177.669 87.517,177.050 87.782,175.695 84.101 C 174.886 81.904,174.823 80.877,174.583 65.813 C 174.296 47.786,174.253 47.497,171.284 43.464 C 166.981 37.618,156.477 34.509,146.899 36.245 M205.123 36.326 C 202.942 37.152,201.018 38.602,199.419 40.625 C 197.853 42.606,197.833 42.617,197.833 41.470 C 197.833 40.830,197.720 39.484,197.582 38.479 L 197.331 36.650 189.306 36.650 L 181.281 36.650 181.281 62.069 L 181.281 87.488 189.951 87.488 L 198.621 87.488 198.621 71.968 L 198.621 56.448 199.869 55.228 C 201.721 53.417,203.348 53.003,208.521 53.023 L 213.100 53.042 213.294 44.748 C 213.401 40.186,213.419 36.375,213.335 36.279 C 212.979 35.875,206.211 35.914,205.123 36.326 M307.980 36.487 C 298.784 38.533,293.790 44.137,293.796 52.408 C 293.801 60.838,298.738 65.329,311.414 68.436 C 320.315 70.617,322.154 71.964,320.146 74.831 C 317.413 78.731,308.814 76.900,307.938 72.230 L 307.696 70.936 299.809 70.936 L 291.922 70.936 292.098 73.055 C 292.838 81.986,302.422 88.458,314.877 88.439 C 328.790 88.417,337.160 82.357,337.134 72.322 C 337.111 63.402,331.809 58.811,318.641 56.309 C 312.033 55.054,309.754 53.828,309.754 51.531 C 309.754 46.448,318.396 45.968,320.000 50.963 L 320.591 52.804 329.020 52.806 L 337.449 52.808 337.233 50.421 C 336.300 40.130,322.072 33.353,307.980 36.487 M269.951 62.069 L 269.951 87.488 278.621 87.488 L 287.291 87.488 287.291 62.069 L 287.291 36.650 278.621 36.650 L 269.951 36.650 269.951 62.069 M157.241 69.522 C 157.241 73.762,156.571 74.784,153.192 75.694 C 148.364 76.994,145.268 74.257,146.778 70.023 C 147.902 66.871,149.705 65.851,154.187 65.828 L 157.241 65.813 157.241 69.522 M36.953 83.040 C 36.361 83.130,35.297 83.132,34.588 83.044 C 33.880 82.957,34.365 82.883,35.665 82.881 C 36.966 82.879,37.545 82.950,36.953 83.040 M40.891 83.423 C 40.515 83.522,39.805 83.526,39.315 83.431 C 38.825 83.337,39.133 83.256,40.000 83.252 C 40.867 83.248,41.268 83.325,40.891 83.423 M46.808 83.833 C 46.001 83.918,44.583 83.919,43.656 83.836 C 42.729 83.753,43.389 83.683,45.123 83.682 C 46.857 83.680,47.616 83.749,46.808 83.833 " stroke="none" fill="#000000" fill-rule="evenodd"></path></g></svg>