<svg id="svg" xmlns="http://www.w3.org/2000/svg" xmlns:xlink="http://www.w3.org/1999/xlink" width="400" height="535.5932203389831" viewBox="0, 0, 400,535.5932203389831"><g id="svgg"><path id="path0" d="M242.700 0.792 C 242.135 1.337,242.000 2.164,242.000 5.091 C 242.000 7.943,241.872 8.763,241.400 8.945 C 240.937 9.123,240.800 9.896,240.800 12.345 C 240.800 14.793,240.663 15.567,240.200 15.745 C 239.751 15.917,239.600 16.634,239.600 18.587 C 239.600 20.554,239.462 21.200,239.043 21.200 C 238.291 21.200,238.000 22.091,238.000 24.390 C 238.000 25.732,237.818 26.384,237.400 26.545 C 236.980 26.706,236.800 27.361,236.800 28.725 C 236.800 30.168,236.592 30.865,236.000 31.400 C 235.410 31.934,235.200 32.632,235.200 34.062 C 235.200 35.518,235.051 36.000,234.600 36.000 C 234.147 36.000,234.000 36.489,234.000 38.000 C 234.000 39.511,233.853 40.000,233.400 40.000 C 232.981 40.000,232.800 40.422,232.800 41.400 C 232.800 42.267,232.495 43.105,232.000 43.600 C 231.560 44.040,231.200 44.921,231.200 45.557 C 231.200 46.217,230.942 46.813,230.600 46.945 C 230.192 47.101,230.000 47.740,230.000 48.941 C 230.000 50.370,229.848 50.747,229.200 50.916 C 228.626 51.066,228.400 51.462,228.400 52.314 C 228.400 52.967,228.130 53.726,227.800 54.000 C 227.455 54.286,227.200 55.158,227.200 56.049 C 227.200 57.161,227.030 57.600,226.600 57.600 C 226.173 57.600,226.000 58.034,226.000 59.104 C 226.000 60.174,225.770 60.751,225.200 61.107 C 224.648 61.452,224.400 62.040,224.400 63.003 C 224.400 63.978,224.219 64.400,223.800 64.400 C 223.381 64.400,223.200 64.822,223.200 65.800 C 223.200 66.773,223.018 67.200,222.605 67.200 C 222.220 67.200,221.919 67.763,221.755 68.792 C 221.615 69.668,221.253 70.590,220.950 70.841 C 220.648 71.093,220.400 71.906,220.400 72.649 C 220.400 73.583,220.215 74.000,219.800 74.000 C 219.385 74.000,219.200 74.417,219.200 75.353 C 219.200 76.370,219.001 76.759,218.400 76.916 C 217.841 77.062,217.596 77.468,217.587 78.263 C 217.580 78.888,217.310 79.749,216.987 80.176 C 216.664 80.604,216.400 81.549,216.400 82.276 C 216.400 83.186,216.212 83.600,215.800 83.600 C 215.403 83.600,215.200 83.997,215.200 84.773 C 215.200 85.595,214.960 86.022,214.400 86.200 C 213.811 86.387,213.600 86.805,213.600 87.784 C 213.600 88.598,213.367 89.204,213.000 89.345 C 212.608 89.495,212.400 90.118,212.400 91.141 C 212.400 92.370,212.228 92.752,211.600 92.916 C 211.025 93.066,210.800 93.462,210.800 94.320 C 210.800 95.013,210.548 95.611,210.200 95.745 C 209.828 95.887,209.600 96.496,209.600 97.345 C 209.600 98.193,209.372 98.802,209.000 98.945 C 208.604 99.097,208.400 99.723,208.400 100.787 C 208.400 102.133,208.268 102.400,207.600 102.400 C 206.957 102.400,206.800 102.667,206.800 103.757 C 206.800 104.595,206.570 105.203,206.200 105.345 C 205.792 105.501,205.600 106.140,205.600 107.341 C 205.600 108.770,205.448 109.147,204.800 109.316 C 204.226 109.466,204.000 109.862,204.000 110.714 C 204.000 111.367,203.730 112.126,203.400 112.400 C 203.055 112.686,202.800 113.558,202.800 114.449 C 202.800 115.561,202.630 116.000,202.200 116.000 C 201.749 116.000,201.600 116.484,201.600 117.953 C 201.600 119.570,201.462 119.943,200.800 120.116 C 200.033 120.316,200.000 120.662,200.000 128.366 C 200.000 135.913,200.049 136.450,200.800 137.093 C 201.288 137.510,201.600 138.273,201.600 139.046 C 201.600 139.804,201.841 140.407,202.200 140.545 C 202.597 140.697,202.800 141.324,202.800 142.400 C 202.800 143.476,203.003 144.103,203.400 144.255 C 203.742 144.387,204.000 144.983,204.000 145.643 C 204.000 146.279,204.360 147.160,204.800 147.600 C 205.284 148.084,205.600 148.933,205.600 149.751 C 205.600 150.494,205.870 151.326,206.200 151.600 C 206.530 151.874,206.800 152.340,206.800 152.636 C 206.800 152.951,206.550 153.079,206.200 152.945 C 205.870 152.818,205.600 152.375,205.600 151.961 C 205.600 151.546,205.240 150.982,204.800 150.707 C 204.360 150.432,204.000 149.801,204.000 149.304 C 204.000 148.767,203.756 148.400,203.400 148.400 C 202.996 148.400,202.800 147.996,202.800 147.163 C 202.800 146.262,202.583 145.868,202.000 145.716 C 201.479 145.580,201.200 145.170,201.200 144.541 C 201.200 144.010,200.930 143.471,200.600 143.345 C 200.270 143.218,200.000 142.774,200.000 142.357 C 200.000 141.941,199.744 141.600,199.432 141.600 C 199.119 141.600,198.749 141.078,198.609 140.441 C 198.140 138.307,194.800 138.055,194.800 140.153 C 194.800 141.170,194.601 141.559,194.000 141.716 C 193.335 141.890,193.200 142.262,193.200 143.920 C 193.200 145.324,193.022 145.983,192.600 146.145 C 192.180 146.306,192.000 146.961,192.000 148.325 C 192.000 149.768,191.792 150.465,191.200 151.000 C 190.640 151.507,190.400 152.232,190.400 153.419 C 190.400 154.557,190.203 155.190,189.800 155.345 C 189.392 155.501,189.200 156.141,189.200 157.345 C 189.200 158.549,189.008 159.188,188.600 159.345 C 188.195 159.500,188.000 160.135,188.000 161.299 C 188.000 162.527,187.770 163.219,187.200 163.707 C 186.654 164.175,186.400 164.887,186.400 165.953 C 186.400 166.972,186.192 167.594,185.800 167.745 C 185.389 167.902,185.200 168.545,185.200 169.787 C 185.200 171.132,185.045 171.600,184.600 171.600 C 184.149 171.600,184.000 172.084,184.000 173.553 C 184.000 175.170,183.862 175.543,183.200 175.716 C 182.546 175.887,182.400 176.262,182.400 177.763 C 182.400 179.129,182.246 179.600,181.800 179.600 C 181.349 179.600,181.200 180.084,181.200 181.553 C 181.200 183.170,181.062 183.543,180.400 183.716 C 179.763 183.882,179.600 184.262,179.600 185.575 C 179.600 186.673,179.399 187.302,179.000 187.455 C 178.635 187.595,178.400 188.201,178.400 189.000 C 178.400 189.799,178.165 190.405,177.800 190.545 C 177.391 190.702,177.200 191.342,177.200 192.560 C 177.200 193.995,177.043 194.396,176.400 194.600 C 175.759 194.804,175.600 195.205,175.600 196.627 C 175.600 197.936,175.443 198.400,175.000 198.400 C 174.600 198.400,174.400 198.800,174.400 199.600 C 174.400 200.267,174.044 201.156,173.600 201.600 C 173.114 202.086,172.800 202.933,172.800 203.757 C 172.800 204.595,172.570 205.203,172.200 205.345 C 171.823 205.489,171.600 206.101,171.600 206.987 C 171.600 207.976,171.420 208.400,171.000 208.400 C 170.558 208.400,170.400 208.861,170.400 210.153 C 170.400 211.570,170.247 211.947,169.600 212.116 C 169.015 212.269,168.800 212.662,168.800 213.575 C 168.800 214.317,168.556 214.919,168.200 215.055 C 167.796 215.210,167.600 215.845,167.600 216.996 C 167.600 218.370,167.443 218.748,166.800 218.916 C 166.225 219.066,166.000 219.462,166.000 220.320 C 166.000 221.013,165.748 221.611,165.400 221.745 C 165.029 221.887,164.800 222.495,164.800 223.338 C 164.800 224.088,164.530 224.926,164.200 225.200 C 163.870 225.474,163.600 226.285,163.600 227.002 C 163.600 227.970,163.394 228.361,162.800 228.516 C 162.225 228.666,162.000 229.062,162.000 229.920 C 162.000 230.613,161.748 231.211,161.400 231.345 C 161.056 231.477,160.800 232.074,160.800 232.745 C 160.800 233.415,160.544 234.013,160.200 234.145 C 159.789 234.302,159.600 234.945,159.600 236.187 C 159.600 237.733,159.482 238.000,158.800 238.000 C 158.184 238.000,158.000 238.267,158.000 239.157 C 158.000 239.817,157.742 240.413,157.400 240.545 C 157.070 240.671,156.800 241.231,156.800 241.787 C 156.800 242.344,156.440 243.160,156.000 243.600 C 155.560 244.040,155.200 244.738,155.200 245.151 C 155.200 245.564,154.930 246.126,154.600 246.400 C 154.255 246.686,154.000 247.558,154.000 248.449 C 154.000 249.561,153.830 250.000,153.400 250.000 C 152.981 250.000,152.800 250.422,152.800 251.400 C 152.800 252.533,152.648 252.800,152.000 252.800 C 151.352 252.800,151.200 253.067,151.200 254.200 C 151.200 255.178,151.019 255.600,150.600 255.600 C 150.147 255.600,150.000 256.089,150.000 257.600 C 150.000 259.043,149.845 259.600,149.443 259.600 C 148.636 259.600,148.400 260.512,148.400 263.633 C 148.400 265.826,148.276 266.400,147.800 266.400 C 147.291 266.400,147.200 267.400,147.200 273.000 C 147.200 278.600,147.291 279.600,147.800 279.600 C 148.269 279.600,148.401 280.147,148.405 282.100 C 148.412 285.146,148.716 286.400,149.447 286.400 C 149.849 286.400,150.000 286.987,150.000 288.557 C 150.000 290.106,150.169 290.779,150.600 290.945 C 151.042 291.114,151.200 291.812,151.200 293.587 C 151.200 295.467,151.377 296.177,152.000 296.800 C 152.665 297.465,152.800 298.133,152.800 300.751 C 152.800 303.064,152.960 304.034,153.400 304.400 C 154.374 305.209,154.215 308.400,153.200 308.400 C 152.476 308.400,152.400 308.133,152.400 305.600 C 152.400 303.378,152.276 302.800,151.800 302.800 C 151.355 302.800,151.200 302.332,151.200 300.987 C 151.200 299.745,151.011 299.102,150.600 298.945 C 150.230 298.803,150.000 298.195,150.000 297.357 C 150.000 296.533,149.686 295.686,149.200 295.200 C 148.756 294.756,148.400 293.867,148.400 293.200 C 148.400 292.400,148.200 292.000,147.800 292.000 C 147.396 292.000,147.200 291.596,147.200 290.763 C 147.200 289.862,146.983 289.468,146.400 289.316 C 145.833 289.168,145.600 288.770,145.600 287.953 C 145.600 287.195,145.395 286.800,145.000 286.800 C 144.581 286.800,144.400 286.378,144.400 285.400 C 144.400 284.422,144.219 284.000,143.800 284.000 C 143.470 284.000,143.200 283.655,143.200 283.233 C 143.200 282.041,142.769 281.200,142.157 281.200 C 141.851 281.200,141.600 280.920,141.600 280.578 C 141.600 279.378,137.831 279.973,137.662 281.200 C 137.585 281.750,137.270 282.344,136.962 282.520 C 136.653 282.696,136.400 283.371,136.400 284.020 C 136.400 284.802,136.198 285.200,135.800 285.200 C 135.381 285.200,135.200 285.622,135.200 286.600 C 135.200 287.733,135.048 288.000,134.400 288.000 C 133.939 288.000,133.600 288.267,133.600 288.629 C 133.600 288.974,133.330 289.527,133.000 289.857 C 132.670 290.187,132.400 290.785,132.400 291.186 C 132.400 291.587,132.147 292.012,131.838 292.130 C 131.528 292.249,131.157 292.883,131.013 293.540 C 130.869 294.196,130.492 294.833,130.176 294.954 C 129.850 295.079,129.600 295.702,129.600 296.387 C 129.600 297.199,129.401 297.600,129.000 297.600 C 128.581 297.600,128.400 298.022,128.400 299.000 C 128.400 300.133,128.248 300.400,127.600 300.400 C 127.082 300.400,126.800 300.667,126.800 301.157 C 126.800 301.574,126.530 302.018,126.200 302.145 C 125.870 302.271,125.600 302.810,125.600 303.341 C 125.600 303.970,125.321 304.380,124.800 304.516 C 124.271 304.654,124.000 305.062,124.000 305.720 C 124.000 306.267,123.730 306.818,123.400 306.945 C 123.070 307.071,122.800 307.636,122.800 308.200 C 122.800 308.764,122.530 309.329,122.200 309.455 C 121.870 309.582,121.600 310.005,121.600 310.396 C 121.600 310.787,121.240 311.201,120.800 311.316 C 120.271 311.454,120.000 311.862,120.000 312.520 C 120.000 313.067,119.730 313.618,119.400 313.745 C 119.049 313.879,118.800 314.479,118.800 315.187 C 118.800 316.010,118.603 316.400,118.187 316.400 C 117.851 316.400,117.459 316.715,117.318 317.100 C 117.176 317.485,116.822 317.944,116.530 318.120 C 116.239 318.296,116.000 318.862,116.000 319.377 C 116.000 319.893,115.730 320.418,115.400 320.545 C 115.049 320.679,114.800 321.279,114.800 321.987 C 114.800 322.933,114.624 323.200,114.000 323.200 C 113.548 323.200,113.200 323.467,113.200 323.813 C 113.200 324.149,112.930 324.529,112.600 324.655 C 112.266 324.784,112.000 325.378,112.000 325.996 C 112.000 326.770,111.758 327.170,111.200 327.316 C 110.741 327.436,110.400 327.862,110.400 328.314 C 110.400 328.747,110.130 329.326,109.800 329.600 C 109.470 329.874,109.200 330.327,109.200 330.606 C 109.200 330.886,108.930 331.218,108.600 331.345 C 108.257 331.476,108.000 332.073,108.000 332.741 C 108.000 333.570,107.769 333.967,107.200 334.116 C 106.760 334.231,106.400 334.593,106.400 334.920 C 106.400 335.247,106.130 335.618,105.800 335.745 C 105.470 335.871,105.200 336.411,105.200 336.945 C 105.200 337.478,104.930 338.018,104.600 338.145 C 104.270 338.271,104.000 338.623,104.000 338.925 C 104.000 339.228,103.640 339.802,103.200 340.200 C 102.760 340.598,102.400 341.256,102.400 341.662 C 102.400 342.068,102.130 342.400,101.800 342.400 C 101.405 342.400,101.200 342.795,101.200 343.553 C 101.200 344.370,100.967 344.768,100.400 344.916 C 99.960 345.031,99.600 345.412,99.600 345.763 C 99.600 346.113,99.330 346.400,99.000 346.400 C 98.600 346.400,98.400 346.800,98.400 347.600 C 98.400 348.400,98.200 348.800,97.800 348.800 C 97.470 348.800,97.200 349.139,97.200 349.553 C 97.200 349.970,96.843 350.400,96.400 350.516 C 95.817 350.668,95.600 351.062,95.600 351.963 C 95.600 352.796,95.404 353.200,95.000 353.200 C 94.670 353.200,94.400 353.380,94.400 353.600 C 94.400 353.820,94.040 354.360,93.600 354.800 C 93.160 355.240,92.800 355.960,92.800 356.400 C 92.800 356.844,92.533 357.200,92.200 357.200 C 91.870 357.200,91.600 357.541,91.600 357.957 C 91.600 358.374,91.330 358.818,91.000 358.945 C 90.670 359.071,90.400 359.610,90.400 360.141 C 90.400 360.770,90.121 361.180,89.600 361.316 C 89.017 361.468,88.800 361.862,88.800 362.763 C 88.800 363.596,88.604 364.000,88.200 364.000 C 87.870 364.000,87.600 364.227,87.600 364.504 C 87.600 364.781,87.240 365.232,86.800 365.507 C 86.348 365.790,86.000 366.440,86.000 367.003 C 86.000 367.623,85.773 368.000,85.400 368.000 C 85.070 368.000,84.800 368.283,84.800 368.629 C 84.800 368.974,84.530 369.527,84.200 369.857 C 83.870 370.187,83.600 370.804,83.600 371.229 C 83.600 371.653,83.338 372.000,83.018 372.000 C 82.670 372.000,82.331 372.562,82.174 373.400 C 82.023 374.202,81.674 374.800,81.355 374.800 C 80.987 374.800,80.800 375.272,80.800 376.200 C 80.800 377.178,80.619 377.600,80.200 377.600 C 79.805 377.600,79.600 377.995,79.600 378.753 C 79.600 379.570,79.367 379.968,78.800 380.116 C 78.217 380.268,78.000 380.662,78.000 381.563 C 78.000 382.396,77.804 382.800,77.400 382.800 C 76.985 382.800,76.800 383.217,76.800 384.153 C 76.800 385.170,76.601 385.559,76.000 385.716 C 75.417 385.868,75.200 386.262,75.200 387.163 C 75.200 387.996,75.004 388.400,74.600 388.400 C 74.181 388.400,74.000 388.822,74.000 389.800 C 74.000 390.778,73.819 391.200,73.400 391.200 C 72.954 391.200,72.800 391.671,72.800 393.037 C 72.800 394.538,72.654 394.913,72.000 395.084 C 71.431 395.233,71.200 395.630,71.200 396.459 C 71.200 397.127,70.943 397.724,70.600 397.855 C 70.183 398.016,70.000 398.667,70.000 399.996 C 70.000 401.570,69.859 401.944,69.200 402.116 C 68.546 402.287,68.400 402.662,68.400 404.163 C 68.400 405.529,68.246 406.000,67.800 406.000 C 67.347 406.000,67.200 406.489,67.200 408.000 C 67.200 409.511,67.053 410.000,66.600 410.000 C 66.156 410.000,66.000 410.467,66.000 411.800 C 66.000 413.067,65.763 413.837,65.200 414.400 C 64.598 415.002,64.400 415.733,64.400 417.357 C 64.400 418.906,64.231 419.579,63.800 419.745 C 63.336 419.923,63.200 420.701,63.200 423.187 C 63.200 425.656,63.072 426.400,62.647 426.400 C 61.857 426.400,61.612 427.687,61.605 431.857 C 61.601 434.735,61.472 435.563,61.000 435.745 C 60.484 435.943,60.400 437.768,60.400 448.787 C 60.400 459.910,60.321 461.600,59.800 461.600 C 59.470 461.600,59.200 461.870,59.200 462.200 C 59.200 462.533,58.844 462.800,58.400 462.800 C 57.960 462.800,57.600 463.051,57.600 463.357 C 57.600 463.664,57.330 464.018,57.000 464.145 C 56.670 464.271,56.400 464.651,56.400 464.987 C 56.400 465.324,56.130 465.600,55.800 465.600 C 55.470 465.600,55.200 465.870,55.200 466.200 C 55.200 466.530,54.913 466.800,54.563 466.800 C 54.212 466.800,53.831 467.160,53.716 467.600 C 53.601 468.040,53.258 468.400,52.953 468.400 C 52.649 468.400,52.400 468.670,52.400 469.000 C 52.400 469.330,52.196 469.600,51.946 469.600 C 51.412 469.600,49.600 471.470,49.600 472.021 C 49.600 472.229,49.330 472.400,49.000 472.400 C 48.670 472.400,48.400 472.670,48.400 473.000 C 48.400 473.330,48.113 473.600,47.763 473.600 C 47.412 473.600,47.031 473.960,46.916 474.400 C 46.801 474.840,46.458 475.200,46.153 475.200 C 45.849 475.200,45.600 475.373,45.600 475.585 C 45.600 476.074,42.460 479.200,41.968 479.200 C 41.766 479.200,41.600 479.470,41.600 479.800 C 41.600 480.130,41.428 480.400,41.218 480.400 C 40.722 480.400,38.800 482.322,38.800 482.818 C 38.800 483.028,38.629 483.200,38.421 483.200 C 37.870 483.200,36.000 485.012,36.000 485.546 C 36.000 485.796,35.730 486.000,35.400 486.000 C 35.070 486.000,34.800 486.270,34.800 486.600 C 34.800 486.930,34.596 487.200,34.346 487.200 C 33.812 487.200,32.000 489.070,32.000 489.621 C 32.000 489.829,31.829 490.000,31.621 490.000 C 31.070 490.000,29.200 491.812,29.200 492.346 C 29.200 492.596,28.930 492.800,28.600 492.800 C 28.270 492.800,28.000 493.070,28.000 493.400 C 28.000 493.730,27.775 494.003,27.500 494.007 C 26.890 494.015,25.200 495.742,25.200 496.356 C 25.200 496.600,24.930 496.800,24.600 496.800 C 24.270 496.800,24.000 497.070,24.000 497.400 C 24.000 497.730,23.775 498.003,23.500 498.007 C 22.890 498.015,21.200 499.742,21.200 500.356 C 21.200 500.600,20.975 500.803,20.700 500.807 C 20.090 500.815,18.400 502.542,18.400 503.156 C 18.400 503.400,18.130 503.600,17.800 503.600 C 17.470 503.600,17.200 503.870,17.200 504.200 C 17.200 504.533,16.844 504.800,16.400 504.800 C 15.960 504.800,15.600 505.051,15.600 505.357 C 15.600 505.664,15.330 506.018,15.000 506.145 C 14.670 506.271,14.400 506.651,14.400 506.987 C 14.400 507.324,14.175 507.603,13.900 507.607 C 13.290 507.615,11.600 509.342,11.600 509.956 C 11.600 510.200,11.330 510.400,11.000 510.400 C 10.670 510.400,10.400 510.670,10.400 511.000 C 10.400 511.330,10.113 511.600,9.763 511.600 C 9.412 511.600,9.031 511.960,8.916 512.400 C 8.801 512.840,8.458 513.200,8.153 513.200 C 7.849 513.200,7.600 513.430,7.600 513.711 C 7.600 513.992,7.240 514.530,6.800 514.907 C 6.360 515.284,6.000 515.864,6.000 516.196 C 6.000 516.528,5.730 516.800,5.400 516.800 C 5.067 516.800,4.800 517.156,4.800 517.600 C 4.800 518.044,4.533 518.400,4.200 518.400 C 3.870 518.400,3.600 518.670,3.600 519.000 C 3.600 519.330,3.324 519.600,2.987 519.600 C 2.651 519.600,2.259 519.915,2.118 520.300 C 1.976 520.685,1.622 521.144,1.330 521.320 C 1.039 521.496,0.800 522.081,0.800 522.620 C 0.800 523.159,0.620 523.600,0.400 523.600 C 0.180 523.600,0.000 524.230,0.000 525.000 L 0.000 526.400 2.400 526.400 C 4.267 526.400,4.800 526.267,4.800 525.800 C 4.800 525.427,5.177 525.200,5.797 525.200 C 6.360 525.200,7.010 524.852,7.293 524.400 C 7.568 523.960,8.190 523.600,8.676 523.600 C 9.162 523.600,9.704 523.361,9.880 523.070 C 10.056 522.778,10.515 522.424,10.900 522.282 C 11.285 522.141,11.600 521.769,11.600 521.456 C 11.600 521.143,12.050 520.774,12.600 520.636 C 13.150 520.498,13.600 520.208,13.600 519.992 C 13.600 519.777,14.050 519.600,14.600 519.600 C 15.222 519.600,15.600 519.373,15.600 519.000 C 15.600 518.670,15.870 518.400,16.200 518.400 C 16.533 518.400,16.800 518.044,16.800 517.600 C 16.800 516.981,17.067 516.800,17.980 516.800 C 18.629 516.800,19.304 516.561,19.480 516.270 C 19.656 515.978,20.115 515.624,20.500 515.482 C 20.885 515.341,21.200 514.949,21.200 514.613 C 21.200 514.276,21.470 514.000,21.800 514.000 C 22.130 514.000,22.400 513.730,22.400 513.400 C 22.400 513.070,22.670 512.800,23.000 512.800 C 23.330 512.800,23.600 512.530,23.600 512.200 C 23.600 511.870,23.920 511.600,24.312 511.600 C 24.703 511.600,25.283 511.240,25.600 510.800 C 25.917 510.360,26.413 510.000,26.701 510.000 C 26.989 510.000,27.329 509.730,27.455 509.400 C 27.582 509.070,27.891 508.797,28.143 508.793 C 28.720 508.784,30.400 507.036,30.400 506.444 C 30.400 506.200,30.676 506.000,31.013 506.000 C 31.349 506.000,31.729 505.730,31.855 505.400 C 31.982 505.070,32.336 504.800,32.643 504.800 C 32.949 504.800,33.200 504.440,33.200 504.000 C 33.200 503.556,33.467 503.200,33.800 503.200 C 34.130 503.200,34.400 502.930,34.400 502.600 C 34.400 502.267,34.756 502.000,35.200 502.000 C 35.644 502.000,36.000 501.733,36.000 501.400 C 36.000 501.070,36.270 500.800,36.600 500.800 C 36.933 500.800,37.200 500.444,37.200 500.000 C 37.200 499.467,37.467 499.200,38.000 499.200 C 38.444 499.200,38.800 498.933,38.800 498.600 C 38.800 498.270,39.070 498.000,39.400 498.000 C 39.730 498.000,40.007 497.685,40.016 497.300 C 40.025 496.865,40.781 496.235,42.016 495.634 C 43.107 495.103,44.000 494.506,44.000 494.308 C 44.000 494.110,44.900 493.071,46.000 492.000 C 47.100 490.929,48.000 489.978,48.000 489.888 C 48.000 489.798,48.990 488.702,50.200 487.453 C 51.410 486.204,52.400 485.006,52.400 484.791 C 52.400 484.576,52.670 484.400,53.000 484.400 C 53.330 484.400,53.600 484.130,53.600 483.800 C 53.600 483.470,53.870 483.200,54.200 483.200 C 54.533 483.200,54.800 482.844,54.800 482.400 C 54.800 481.867,55.067 481.600,55.600 481.600 C 56.044 481.600,56.400 481.333,56.400 481.000 C 56.400 480.670,56.670 480.400,57.000 480.400 C 57.333 480.400,57.600 480.044,57.600 479.600 C 57.600 479.156,57.867 478.800,58.200 478.800 C 58.530 478.800,58.800 478.530,58.800 478.200 C 58.800 477.867,59.156 477.600,59.600 477.600 C 60.044 477.600,60.400 477.333,60.400 477.000 C 60.400 476.670,60.670 476.400,61.000 476.400 C 61.333 476.400,61.600 476.044,61.600 475.600 C 61.600 475.067,61.867 474.800,62.400 474.800 C 62.844 474.800,63.200 474.533,63.200 474.200 C 63.200 473.870,63.470 473.600,63.800 473.600 C 64.133 473.600,64.400 473.244,64.400 472.800 C 64.400 472.356,64.667 472.000,65.000 472.000 C 65.330 472.000,65.600 471.730,65.600 471.400 C 65.600 471.070,65.825 470.797,66.100 470.793 C 66.710 470.785,68.400 469.058,68.400 468.444 C 68.400 468.200,68.670 468.000,69.000 468.000 C 69.330 468.000,69.600 467.773,69.600 467.496 C 69.600 467.219,69.960 466.768,70.400 466.493 C 70.852 466.210,71.200 465.560,71.200 464.997 C 71.200 464.377,71.427 464.000,71.800 464.000 C 72.130 464.000,72.400 463.730,72.400 463.400 C 72.400 463.067,72.756 462.800,73.200 462.800 C 73.733 462.800,74.000 462.533,74.000 462.000 C 74.000 461.556,74.267 461.200,74.600 461.200 C 74.930 461.200,75.200 460.930,75.200 460.600 C 75.200 460.270,75.425 459.997,75.700 459.993 C 76.310 459.985,78.000 458.258,78.000 457.644 C 78.000 457.400,78.270 457.200,78.600 457.200 C 78.930 457.200,79.200 457.008,79.200 456.773 C 79.200 456.538,79.830 455.752,80.600 455.026 C 81.370 454.300,82.000 453.521,82.000 453.296 C 82.000 453.070,82.270 452.782,82.600 452.655 C 82.930 452.529,83.200 451.969,83.200 451.413 C 83.200 450.667,83.411 450.400,84.000 450.400 C 84.444 450.400,84.800 450.133,84.800 449.800 C 84.800 449.470,85.070 449.200,85.400 449.200 C 85.730 449.200,86.000 449.014,86.000 448.788 C 86.000 448.561,86.630 447.797,87.400 447.090 C 88.170 446.384,88.800 445.599,88.800 445.346 C 88.800 445.093,89.070 444.782,89.400 444.655 C 89.730 444.529,90.000 443.969,90.000 443.413 C 90.000 442.667,90.211 442.400,90.800 442.400 C 91.240 442.400,91.600 442.149,91.600 441.843 C 91.600 441.536,91.870 441.182,92.200 441.055 C 92.530 440.929,92.800 440.549,92.800 440.213 C 92.800 439.876,93.025 439.597,93.300 439.593 C 93.888 439.585,95.600 437.868,95.600 437.286 C 95.600 437.066,95.870 436.782,96.200 436.655 C 96.530 436.529,96.800 435.969,96.800 435.413 C 96.800 434.753,97.022 434.400,97.437 434.400 C 97.788 434.400,98.169 434.040,98.284 433.600 C 98.399 433.160,98.742 432.800,99.047 432.800 C 99.351 432.800,99.600 432.530,99.600 432.200 C 99.600 431.870,99.825 431.592,100.100 431.583 C 100.681 431.563,102.400 429.014,102.400 428.172 C 102.400 427.858,102.670 427.600,103.000 427.600 C 103.333 427.600,103.600 427.244,103.600 426.800 C 103.600 426.267,103.867 426.000,104.400 426.000 C 104.840 426.000,105.200 425.749,105.200 425.443 C 105.200 425.136,105.470 424.782,105.800 424.655 C 106.130 424.529,106.400 424.059,106.400 423.613 C 106.400 423.166,106.577 422.800,106.792 422.800 C 107.008 422.800,107.298 422.350,107.436 421.800 C 107.593 421.174,107.970 420.800,108.443 420.800 C 108.933 420.800,109.200 420.518,109.200 420.000 C 109.200 419.556,109.467 419.200,109.800 419.200 C 110.130 419.200,110.400 418.930,110.400 418.600 C 110.400 418.270,110.662 418.000,110.982 418.000 C 111.330 418.000,111.669 417.438,111.826 416.600 C 111.977 415.798,112.326 415.200,112.645 415.200 C 112.950 415.200,113.200 414.930,113.200 414.600 C 113.200 414.270,113.470 414.000,113.800 414.000 C 114.130 414.000,114.400 413.661,114.400 413.247 C 114.400 412.830,114.757 412.400,115.200 412.284 C 115.741 412.143,116.000 411.738,116.000 411.037 C 116.000 410.382,116.221 410.000,116.600 410.000 C 116.930 410.000,117.200 409.661,117.200 409.247 C 117.200 408.830,117.557 408.400,118.000 408.284 C 118.440 408.169,118.800 407.807,118.800 407.480 C 118.800 407.153,119.070 406.782,119.400 406.655 C 119.730 406.529,120.000 405.969,120.000 405.413 C 120.000 404.779,120.225 404.400,120.600 404.400 C 120.930 404.400,121.200 404.130,121.200 403.800 C 121.200 403.470,121.474 403.200,121.810 403.200 C 122.145 403.200,122.584 402.767,122.785 402.239 C 122.986 401.710,123.342 401.160,123.575 401.015 C 123.809 400.871,124.000 400.424,124.000 400.023 C 124.000 399.622,124.360 399.199,124.800 399.084 C 125.240 398.969,125.600 398.588,125.600 398.237 C 125.600 397.887,125.870 397.600,126.200 397.600 C 126.619 397.600,126.800 397.178,126.800 396.200 C 126.800 395.222,126.981 394.800,127.400 394.800 C 127.730 394.800,128.000 394.530,128.000 394.200 C 128.000 393.870,128.267 393.600,128.592 393.600 C 128.918 393.600,129.593 392.704,130.092 391.608 C 130.592 390.513,131.222 389.613,131.492 389.608 C 131.763 389.604,132.393 388.704,132.892 387.608 C 133.392 386.513,134.025 385.613,134.300 385.608 C 134.575 385.604,134.800 385.240,134.800 384.800 C 134.800 384.360,135.056 384.000,135.368 384.000 C 135.681 384.000,136.052 383.475,136.193 382.833 C 136.334 382.192,136.708 381.567,137.024 381.446 C 137.341 381.324,137.600 380.949,137.600 380.613 C 137.600 380.276,137.870 380.000,138.200 380.000 C 138.619 380.000,138.800 379.578,138.800 378.600 C 138.800 377.467,138.952 377.200,139.600 377.200 C 140.040 377.200,140.400 376.949,140.400 376.643 C 140.400 376.336,140.670 375.982,141.000 375.855 C 141.351 375.721,141.600 375.121,141.600 374.413 C 141.600 373.467,141.776 373.200,142.400 373.200 C 142.840 373.200,143.200 372.952,143.200 372.649 C 143.200 372.346,143.470 371.874,143.800 371.600 C 144.130 371.326,144.400 370.674,144.400 370.151 C 144.400 369.572,144.635 369.200,145.000 369.200 C 145.333 369.200,145.600 368.844,145.600 368.400 C 145.600 367.950,145.867 367.600,146.210 367.600 C 146.568 367.600,146.919 367.104,147.060 366.400 C 147.192 365.740,147.548 365.200,147.850 365.200 C 148.153 365.200,148.400 364.868,148.400 364.462 C 148.400 364.056,148.760 363.398,149.200 363.000 C 149.640 362.602,150.000 362.053,150.000 361.781 C 150.000 361.508,150.270 361.182,150.600 361.055 C 150.930 360.929,151.200 360.481,151.200 360.062 C 151.200 359.642,151.470 359.074,151.800 358.800 C 152.130 358.526,152.400 358.060,152.400 357.765 C 152.400 357.470,152.760 357.035,153.200 356.800 C 153.668 356.550,154.000 355.962,154.000 355.386 C 154.000 354.776,154.229 354.400,154.600 354.400 C 154.930 354.400,155.200 354.068,155.200 353.662 C 155.200 353.256,155.560 352.598,156.000 352.200 C 156.440 351.802,156.800 351.228,156.800 350.925 C 156.800 350.623,157.070 350.271,157.400 350.145 C 157.742 350.013,158.000 349.417,158.000 348.757 C 158.000 347.995,158.205 347.600,158.600 347.600 C 158.933 347.600,159.200 347.244,159.200 346.800 C 159.200 346.360,159.456 346.000,159.768 346.000 C 160.081 346.000,160.452 345.475,160.593 344.833 C 160.734 344.192,161.108 343.567,161.424 343.446 C 161.750 343.321,162.000 342.698,162.000 342.013 C 162.000 341.201,162.199 340.800,162.600 340.800 C 162.933 340.800,163.200 340.444,163.200 340.000 C 163.200 339.560,163.456 339.200,163.768 339.200 C 164.081 339.200,164.452 338.675,164.593 338.033 C 164.734 337.392,165.108 336.767,165.424 336.646 C 165.743 336.524,166.000 335.905,166.000 335.259 C 166.000 334.430,166.231 334.033,166.800 333.884 C 167.383 333.732,167.600 333.338,167.600 332.437 C 167.600 331.604,167.796 331.200,168.200 331.200 C 168.530 331.200,168.800 330.859,168.800 330.443 C 168.800 330.026,169.070 329.582,169.400 329.455 C 169.730 329.329,170.000 328.790,170.000 328.259 C 170.000 327.630,170.279 327.220,170.800 327.084 C 171.383 326.932,171.600 326.538,171.600 325.637 C 171.600 324.804,171.796 324.400,172.200 324.400 C 172.619 324.400,172.800 323.978,172.800 323.000 C 172.800 321.867,172.952 321.600,173.600 321.600 C 174.061 321.600,174.400 321.333,174.400 320.971 C 174.400 320.626,174.670 320.073,175.000 319.743 C 175.330 319.413,175.600 318.815,175.600 318.414 C 175.600 318.013,175.870 317.582,176.200 317.455 C 176.543 317.324,176.800 316.727,176.800 316.059 C 176.800 315.230,177.031 314.833,177.600 314.684 C 178.129 314.546,178.400 314.138,178.400 313.480 C 178.400 312.933,178.670 312.382,179.000 312.255 C 179.351 312.121,179.600 311.521,179.600 310.813 C 179.600 310.043,179.803 309.600,180.157 309.600 C 180.769 309.600,181.200 308.759,181.200 307.567 C 181.200 307.145,181.470 306.800,181.800 306.800 C 182.219 306.800,182.400 306.378,182.400 305.400 C 182.400 304.422,182.581 304.000,183.000 304.000 C 183.395 304.000,183.600 303.605,183.600 302.847 C 183.600 302.030,183.833 301.632,184.400 301.484 C 184.983 301.332,185.200 300.938,185.200 300.037 C 185.200 299.204,185.396 298.800,185.800 298.800 C 186.219 298.800,186.400 298.378,186.400 297.400 C 186.400 296.422,186.581 296.000,187.000 296.000 C 187.419 296.000,187.600 295.578,187.600 294.600 C 187.600 293.467,187.752 293.200,188.400 293.200 C 189.016 293.200,189.200 292.933,189.200 292.043 C 189.200 291.383,189.458 290.787,189.800 290.655 C 190.143 290.524,190.400 289.927,190.400 289.259 C 190.400 288.430,190.631 288.033,191.200 287.884 C 191.783 287.732,192.000 287.338,192.000 286.437 C 192.000 285.604,192.196 285.200,192.600 285.200 C 193.019 285.200,193.200 284.778,193.200 283.800 C 193.200 282.822,193.381 282.400,193.800 282.400 C 194.219 282.400,194.400 281.978,194.400 281.000 C 194.400 279.867,194.552 279.600,195.200 279.600 C 195.824 279.600,196.000 279.333,196.000 278.387 C 196.000 277.679,196.249 277.079,196.600 276.945 C 196.930 276.818,197.200 276.284,197.200 275.757 C 197.200 275.231,197.560 274.440,198.000 274.000 C 198.440 273.560,198.800 272.827,198.800 272.371 C 198.800 271.916,199.070 271.273,199.400 270.943 C 199.730 270.613,200.000 269.726,200.000 268.971 C 200.000 268.019,200.183 267.600,200.600 267.600 C 201.019 267.600,201.200 267.178,201.200 266.200 C 201.200 265.067,201.352 264.800,202.000 264.800 C 202.648 264.800,202.800 264.533,202.800 263.400 C 202.800 262.422,202.981 262.000,203.400 262.000 C 203.800 262.000,204.000 261.600,204.000 260.800 C 204.000 260.133,204.356 259.244,204.800 258.800 C 205.240 258.360,205.600 257.479,205.600 256.843 C 205.600 256.183,205.858 255.587,206.200 255.455 C 206.544 255.323,206.800 254.726,206.800 254.055 C 206.800 253.385,207.056 252.787,207.400 252.655 C 207.765 252.515,208.000 251.910,208.000 251.109 C 208.000 250.226,208.263 249.628,208.800 249.293 C 209.344 248.953,209.600 248.360,209.600 247.439 C 209.600 246.605,209.830 245.997,210.200 245.855 C 210.530 245.729,210.800 245.169,210.800 244.613 C 210.800 244.056,211.160 243.240,211.600 242.800 C 212.086 242.314,212.400 241.467,212.400 240.643 C 212.400 239.805,212.630 239.197,213.000 239.055 C 213.344 238.923,213.600 238.326,213.600 237.655 C 213.600 236.985,213.856 236.387,214.200 236.255 C 214.608 236.099,214.800 235.460,214.800 234.259 C 214.800 232.830,214.952 232.453,215.600 232.284 C 216.159 232.138,216.404 231.732,216.413 230.937 C 216.420 230.312,216.690 229.451,217.013 229.024 C 217.336 228.596,217.600 227.671,217.600 226.966 C 217.600 226.197,217.840 225.594,218.200 225.455 C 218.608 225.299,218.800 224.660,218.800 223.459 C 218.800 222.030,218.952 221.653,219.600 221.484 C 220.254 221.313,220.400 220.938,220.400 219.437 C 220.400 218.071,220.554 217.600,221.000 217.600 C 221.433 217.600,221.600 217.156,221.600 216.000 C 221.600 214.904,221.774 214.400,222.153 214.400 C 222.727 214.400,223.185 213.230,223.195 211.743 C 223.198 211.271,223.470 210.782,223.800 210.655 C 224.212 210.497,224.400 209.853,224.400 208.600 C 224.400 207.347,224.588 206.703,225.000 206.545 C 225.417 206.384,225.600 205.733,225.600 204.404 C 225.600 202.830,225.741 202.456,226.400 202.284 C 227.054 202.113,227.200 201.738,227.200 200.237 C 227.200 198.871,227.354 198.400,227.800 198.400 C 228.253 198.400,228.400 197.911,228.400 196.400 C 228.400 194.941,228.553 194.400,228.967 194.400 C 229.278 194.400,229.624 194.175,229.735 193.900 C 229.846 193.625,229.951 194.165,229.968 195.100 C 229.991 196.297,229.763 197.037,229.200 197.600 C 228.674 198.126,228.400 198.933,228.400 199.957 C 228.400 200.972,228.191 201.595,227.800 201.745 C 227.392 201.901,227.200 202.541,227.200 203.745 C 227.200 204.949,227.008 205.588,226.600 205.745 C 226.177 205.907,226.000 206.567,226.000 207.984 C 226.000 209.560,225.828 210.101,225.200 210.493 C 224.676 210.820,224.400 211.426,224.400 212.247 C 224.400 212.937,224.130 213.726,223.800 214.000 C 223.470 214.274,223.200 215.106,223.200 215.849 C 223.200 216.667,222.884 217.516,222.400 218.000 C 221.914 218.486,221.600 219.333,221.600 220.157 C 221.600 220.995,221.370 221.603,221.000 221.745 C 220.589 221.902,220.400 222.545,220.400 223.787 C 220.400 225.132,220.245 225.600,219.800 225.600 C 219.380 225.600,219.200 226.024,219.200 227.017 C 219.200 227.881,218.888 228.769,218.400 229.292 C 217.960 229.764,217.600 230.638,217.600 231.233 C 217.600 231.828,217.330 232.418,217.000 232.545 C 216.592 232.701,216.400 233.341,216.400 234.545 C 216.400 235.749,216.208 236.388,215.800 236.545 C 215.464 236.674,215.200 237.269,215.200 237.899 C 215.200 238.527,214.848 239.324,214.400 239.707 C 213.882 240.151,213.600 240.887,213.600 241.796 C 213.600 242.777,213.419 243.200,213.000 243.200 C 212.600 243.200,212.400 243.600,212.400 244.400 C 212.400 245.067,212.044 245.956,211.600 246.400 C 211.105 246.895,210.800 247.733,210.800 248.600 C 210.800 249.578,210.619 250.000,210.200 250.000 C 209.785 250.000,209.600 250.417,209.600 251.357 C 209.600 252.195,209.370 252.803,209.000 252.945 C 208.589 253.102,208.400 253.745,208.400 254.987 C 208.400 256.533,208.282 256.800,207.600 256.800 C 206.952 256.800,206.800 257.067,206.800 258.200 C 206.800 259.178,206.619 259.600,206.200 259.600 C 205.781 259.600,205.600 260.022,205.600 261.000 C 205.600 261.925,205.412 262.400,205.047 262.400 C 204.465 262.400,204.015 263.574,204.005 265.113 C 204.002 265.614,203.730 266.129,203.400 266.255 C 203.030 266.397,202.800 267.005,202.800 267.843 C 202.800 268.783,202.615 269.200,202.200 269.200 C 201.805 269.200,201.600 269.595,201.600 270.353 C 201.600 271.170,201.367 271.568,200.800 271.716 C 200.225 271.866,200.000 272.262,200.000 273.120 C 200.000 273.813,199.748 274.411,199.400 274.545 C 199.049 274.679,198.800 275.279,198.800 275.987 C 198.800 276.782,198.599 277.200,198.218 277.200 C 197.872 277.200,197.532 277.756,197.379 278.572 C 197.237 279.327,196.869 280.041,196.561 280.160 C 196.252 280.278,196.000 280.901,196.000 281.545 C 196.000 282.215,195.744 282.813,195.400 282.945 C 195.070 283.071,194.800 283.631,194.800 284.187 C 194.800 284.744,194.440 285.560,194.000 286.000 C 193.560 286.440,193.200 287.138,193.200 287.551 C 193.200 287.964,192.930 288.526,192.600 288.800 C 192.270 289.074,192.000 289.885,192.000 290.602 C 192.000 291.570,191.794 291.961,191.200 292.116 C 190.617 292.268,190.400 292.662,190.400 293.563 C 190.400 294.396,190.204 294.800,189.800 294.800 C 189.381 294.800,189.200 295.222,189.200 296.200 C 189.200 297.178,189.019 297.600,188.600 297.600 C 188.181 297.600,188.000 298.022,188.000 299.000 C 188.000 300.133,187.848 300.400,187.200 300.400 C 186.578 300.400,186.400 300.667,186.400 301.600 C 186.400 302.400,186.200 302.800,185.800 302.800 C 185.405 302.800,185.200 303.195,185.200 303.957 C 185.200 304.617,184.942 305.213,184.600 305.345 C 184.270 305.471,184.000 306.029,184.000 306.584 C 184.000 307.160,183.657 307.808,183.200 308.093 C 182.760 308.368,182.400 308.890,182.400 309.253 C 182.400 309.617,182.130 310.018,181.800 310.145 C 181.470 310.271,181.200 310.836,181.200 311.400 C 181.200 311.964,180.941 312.524,180.624 312.646 C 180.308 312.767,179.937 313.377,179.800 314.000 C 179.663 314.623,179.292 315.233,178.976 315.354 C 178.650 315.479,178.400 316.102,178.400 316.787 C 178.400 317.599,178.201 318.000,177.800 318.000 C 177.396 318.000,177.200 318.404,177.200 319.237 C 177.200 320.138,176.983 320.532,176.400 320.684 C 175.833 320.832,175.600 321.230,175.600 322.047 C 175.600 322.805,175.395 323.200,175.000 323.200 C 174.581 323.200,174.400 323.622,174.400 324.600 C 174.400 325.547,174.215 326.000,173.828 326.000 C 173.513 326.000,172.839 326.855,172.328 327.900 C 171.818 328.945,171.176 329.944,170.900 330.120 C 170.625 330.296,170.400 330.971,170.400 331.620 C 170.400 332.533,170.219 332.800,169.600 332.800 C 168.952 332.800,168.800 333.067,168.800 334.200 C 168.800 335.178,168.619 335.600,168.200 335.600 C 167.800 335.600,167.600 336.000,167.600 336.800 C 167.600 337.562,167.396 338.000,167.040 338.000 C 166.451 338.000,164.800 340.809,164.800 341.812 C 164.800 342.136,164.530 342.400,164.200 342.400 C 163.805 342.400,163.600 342.795,163.600 343.553 C 163.600 344.370,163.367 344.768,162.800 344.916 C 162.321 345.041,162.000 345.462,162.000 345.963 C 162.000 346.423,161.838 346.800,161.639 346.800 C 161.441 346.800,161.090 347.340,160.860 348.000 C 160.630 348.660,160.252 349.200,160.021 349.200 C 159.789 349.200,159.600 349.740,159.600 350.400 C 159.600 351.209,159.401 351.600,158.990 351.600 C 158.655 351.600,158.216 352.033,158.015 352.561 C 157.814 353.090,157.458 353.640,157.225 353.785 C 156.991 353.929,156.800 354.307,156.800 354.624 C 156.800 354.941,156.440 355.560,156.000 356.000 C 155.560 356.440,155.200 357.160,155.200 357.600 C 155.200 358.044,154.933 358.400,154.600 358.400 C 154.227 358.400,154.000 358.778,154.000 359.400 C 154.000 359.950,153.823 360.400,153.608 360.400 C 153.392 360.400,153.101 360.855,152.962 361.411 C 152.822 361.966,152.369 362.603,151.954 362.825 C 151.528 363.052,151.200 363.658,151.200 364.214 C 151.200 364.824,150.971 365.200,150.600 365.200 C 150.267 365.200,150.000 365.556,150.000 366.000 C 150.000 366.440,149.744 366.800,149.432 366.800 C 149.119 366.800,148.745 367.340,148.600 368.000 C 148.455 368.660,148.081 369.200,147.768 369.200 C 147.456 369.200,147.200 369.538,147.200 369.951 C 147.200 370.364,146.930 370.926,146.600 371.200 C 146.270 371.474,146.000 372.024,146.000 372.422 C 146.000 372.820,145.640 373.260,145.200 373.400 C 144.640 373.578,144.400 374.005,144.400 374.827 C 144.400 375.603,144.197 376.000,143.800 376.000 C 143.467 376.000,143.200 376.356,143.200 376.800 C 143.200 377.250,142.933 377.600,142.590 377.600 C 142.232 377.600,141.881 378.096,141.740 378.800 C 141.608 379.460,141.253 380.000,140.950 380.000 C 140.648 380.000,140.400 380.360,140.400 380.800 C 140.400 381.244,140.133 381.600,139.800 381.600 C 139.381 381.600,139.200 382.022,139.200 383.000 C 139.200 384.133,139.048 384.400,138.400 384.400 C 137.960 384.400,137.600 384.651,137.600 384.957 C 137.600 385.264,137.330 385.618,137.000 385.745 C 136.649 385.879,136.400 386.479,136.400 387.187 C 136.400 387.999,136.201 388.400,135.800 388.400 C 135.470 388.400,135.200 388.649,135.200 388.953 C 135.200 389.258,134.840 389.601,134.400 389.716 C 133.817 389.868,133.600 390.262,133.600 391.163 C 133.600 391.996,133.404 392.400,133.000 392.400 C 132.670 392.400,132.400 392.670,132.400 393.000 C 132.400 393.330,132.148 393.600,131.839 393.600 C 131.531 393.600,131.070 394.095,130.816 394.700 C 129.929 396.808,129.407 397.600,128.905 397.600 C 128.627 397.600,128.400 397.960,128.400 398.400 C 128.400 398.840,128.149 399.200,127.843 399.200 C 127.231 399.200,126.800 400.041,126.800 401.233 C 126.800 401.655,126.530 402.000,126.200 402.000 C 125.870 402.000,125.600 402.270,125.600 402.600 C 125.600 402.930,125.344 403.200,125.031 403.200 C 124.718 403.200,124.254 403.830,124.000 404.600 C 123.746 405.370,123.372 406.000,123.169 406.000 C 122.966 406.000,122.800 406.270,122.800 406.600 C 122.800 406.930,122.530 407.200,122.200 407.200 C 121.870 407.200,121.600 407.464,121.600 407.786 C 121.600 408.108,121.240 408.565,120.800 408.800 C 120.360 409.035,120.000 409.587,120.000 410.027 C 120.000 410.466,119.730 410.929,119.400 411.055 C 119.070 411.182,118.800 411.626,118.800 412.043 C 118.800 412.533,118.518 412.800,118.000 412.800 C 117.560 412.800,117.200 413.051,117.200 413.357 C 117.200 413.664,116.930 414.018,116.600 414.145 C 116.249 414.279,116.000 414.879,116.000 415.587 C 116.000 416.399,115.801 416.800,115.400 416.800 C 115.070 416.800,114.800 417.070,114.800 417.400 C 114.800 417.730,114.513 418.000,114.163 418.000 C 113.812 418.000,113.434 418.348,113.323 418.772 C 113.212 419.197,112.869 419.641,112.561 419.760 C 112.252 419.878,112.000 420.431,112.000 420.987 C 112.000 421.647,111.778 422.000,111.363 422.000 C 111.012 422.000,110.631 422.360,110.516 422.800 C 110.401 423.240,110.058 423.600,109.753 423.600 C 109.449 423.600,109.200 423.870,109.200 424.200 C 109.200 424.530,108.930 424.800,108.600 424.800 C 108.270 424.800,108.000 425.070,108.000 425.400 C 108.000 425.730,107.640 426.360,107.200 426.800 C 106.760 427.240,106.400 427.870,106.400 428.200 C 106.400 428.530,106.130 428.800,105.800 428.800 C 105.467 428.800,105.200 429.156,105.200 429.600 C 105.200 430.044,104.933 430.400,104.600 430.400 C 104.270 430.400,104.000 430.670,104.000 431.000 C 104.000 431.330,103.733 431.600,103.408 431.600 C 103.082 431.600,102.407 432.496,101.908 433.592 C 101.408 434.687,100.758 435.587,100.463 435.592 C 100.167 435.596,99.831 435.960,99.716 436.400 C 99.601 436.840,99.258 437.200,98.953 437.200 C 98.649 437.200,98.400 437.470,98.400 437.800 C 98.400 438.130,98.130 438.400,97.800 438.400 C 97.470 438.400,97.200 438.670,97.200 439.000 C 97.200 439.330,96.840 439.960,96.400 440.400 C 95.960 440.840,95.600 441.470,95.600 441.800 C 95.600 442.130,95.330 442.400,95.000 442.400 C 94.667 442.400,94.400 442.756,94.400 443.200 C 94.400 443.733,94.133 444.000,93.600 444.000 C 93.156 444.000,92.800 444.267,92.800 444.600 C 92.800 444.930,92.530 445.200,92.200 445.200 C 91.870 445.200,91.600 445.476,91.600 445.813 C 91.600 446.149,91.330 446.529,91.000 446.655 C 90.670 446.782,90.400 447.046,90.400 447.243 C 90.400 447.439,90.040 447.960,89.600 448.400 C 89.160 448.840,88.800 449.560,88.800 450.000 C 88.800 450.444,88.533 450.800,88.200 450.800 C 87.870 450.800,87.600 451.070,87.600 451.400 C 87.600 451.733,87.244 452.000,86.800 452.000 C 86.356 452.000,86.000 452.267,86.000 452.600 C 86.000 452.930,85.730 453.200,85.400 453.200 C 85.067 453.200,84.800 453.556,84.800 454.000 C 84.800 454.444,84.533 454.800,84.200 454.800 C 83.870 454.800,83.600 455.070,83.600 455.400 C 83.600 455.730,83.342 456.000,83.027 456.000 C 82.712 456.000,82.340 456.360,82.200 456.800 C 82.060 457.240,81.688 457.600,81.373 457.600 C 81.058 457.600,80.800 457.941,80.800 458.357 C 80.800 458.774,80.519 459.222,80.176 459.354 C 79.729 459.525,79.587 460.021,79.676 461.097 C 79.828 462.933,82.639 463.701,83.077 462.026 C 83.258 461.334,83.609 461.200,85.247 461.200 C 86.716 461.200,87.200 461.051,87.200 460.600 C 87.200 460.157,87.664 460.000,88.980 460.000 C 90.052 460.000,90.887 459.785,91.080 459.459 C 91.256 459.161,92.204 458.813,93.186 458.685 C 94.168 458.558,95.178 458.171,95.430 457.827 C 95.682 457.482,96.453 457.200,97.144 457.200 C 97.994 457.200,98.400 457.006,98.400 456.600 C 98.400 456.154,98.871 456.000,100.237 456.000 C 101.738 456.000,102.113 455.854,102.284 455.200 C 102.452 454.557,102.830 454.400,104.204 454.400 C 105.355 454.400,105.990 454.204,106.145 453.800 C 106.280 453.447,106.880 453.200,107.600 453.200 C 108.320 453.200,108.920 452.953,109.055 452.600 C 109.189 452.252,109.787 452.000,110.480 452.000 C 111.338 452.000,111.734 451.775,111.884 451.200 C 112.052 450.557,112.430 450.400,113.804 450.400 C 114.955 450.400,115.590 450.204,115.745 449.800 C 115.871 449.470,116.436 449.200,117.000 449.200 C 117.564 449.200,118.129 448.930,118.255 448.600 C 118.382 448.270,118.812 448.000,119.210 448.000 C 120.362 448.000,121.200 447.561,121.200 446.957 C 121.200 446.587,121.670 446.400,122.600 446.400 C 123.578 446.400,124.000 446.219,124.000 445.800 C 124.000 445.396,124.404 445.200,125.237 445.200 C 126.138 445.200,126.532 444.983,126.684 444.400 C 126.841 443.799,127.230 443.600,128.247 443.600 C 129.183 443.600,129.600 443.415,129.600 443.000 C 129.600 442.600,130.000 442.400,130.800 442.400 C 131.600 442.400,132.000 442.200,132.000 441.800 C 132.000 441.470,132.242 441.200,132.538 441.200 C 132.834 441.200,133.402 440.840,133.800 440.400 C 134.198 439.960,134.946 439.600,135.462 439.600 C 136.029 439.600,136.400 439.363,136.400 439.000 C 136.400 438.621,136.782 438.400,137.437 438.400 C 138.138 438.400,138.543 438.141,138.684 437.600 C 138.800 437.157,139.230 436.800,139.647 436.800 C 140.061 436.800,140.400 436.530,140.400 436.200 C 140.400 435.814,140.792 435.598,141.500 435.593 C 142.591 435.586,144.400 434.121,144.400 433.244 C 144.400 433.000,144.946 432.800,145.613 432.800 C 146.321 432.800,146.921 432.551,147.055 432.200 C 147.182 431.870,147.536 431.600,147.843 431.600 C 148.149 431.600,148.400 431.240,148.400 430.800 C 148.400 430.267,148.667 430.000,149.200 430.000 C 149.644 430.000,150.000 429.733,150.000 429.400 C 150.000 429.070,150.270 428.800,150.600 428.800 C 150.930 428.800,151.529 428.471,151.931 428.069 C 152.332 427.668,152.962 427.223,153.331 427.082 C 153.699 426.941,154.000 426.639,154.000 426.413 C 154.000 426.186,154.270 426.000,154.600 426.000 C 154.930 426.000,155.200 425.730,155.200 425.400 C 155.200 425.070,155.425 424.797,155.700 424.793 C 156.310 424.785,158.000 423.058,158.000 422.444 C 158.000 422.200,158.270 422.000,158.600 422.000 C 158.930 422.000,159.200 421.730,159.200 421.400 C 159.200 421.070,159.487 420.800,159.837 420.800 C 160.188 420.800,160.569 420.440,160.684 420.000 C 160.799 419.560,161.142 419.200,161.447 419.200 C 162.386 419.200,162.190 415.714,161.234 415.411 C 160.193 415.081,158.506 415.546,158.241 416.236 C 157.847 417.263,150.814 417.031,151.084 416.000 C 151.257 415.338,151.630 415.200,153.247 415.200 C 154.716 415.200,155.200 415.051,155.200 414.600 C 155.200 414.154,155.671 414.000,157.037 414.000 C 158.538 414.000,158.913 413.854,159.084 413.200 C 159.241 412.599,159.630 412.400,160.647 412.400 C 161.583 412.400,162.000 412.215,162.000 411.800 C 162.000 411.381,162.422 411.200,163.400 411.200 C 164.343 411.200,164.800 411.015,164.800 410.632 C 164.800 410.319,165.340 409.945,166.000 409.800 C 166.660 409.655,167.200 409.281,167.200 408.968 C 167.200 408.656,167.476 408.400,167.813 408.400 C 168.149 408.400,168.529 408.130,168.655 407.800 C 168.782 407.470,169.136 407.200,169.443 407.200 C 169.749 407.200,170.000 406.951,170.000 406.647 C 170.000 406.342,170.360 405.999,170.800 405.884 C 171.240 405.769,171.600 405.388,171.600 405.037 C 171.600 404.687,171.870 404.400,172.200 404.400 C 172.530 404.400,172.800 404.130,172.800 403.800 C 172.800 403.470,173.160 402.840,173.600 402.400 C 174.040 401.960,174.400 401.330,174.400 401.000 C 174.400 400.670,174.670 400.400,175.000 400.400 C 175.333 400.400,175.600 400.044,175.600 399.600 C 175.600 399.156,175.867 398.800,176.200 398.800 C 176.600 398.800,176.800 398.400,176.800 397.600 C 176.800 396.667,176.978 396.400,177.600 396.400 C 178.118 396.400,178.400 396.133,178.400 395.643 C 178.400 395.226,178.670 394.782,179.000 394.655 C 179.330 394.529,179.600 393.969,179.600 393.413 C 179.600 392.770,179.824 392.400,180.213 392.400 C 180.549 392.400,180.941 392.085,181.082 391.700 C 181.224 391.315,181.578 390.856,181.870 390.680 C 182.161 390.504,182.400 389.829,182.400 389.180 C 182.400 388.398,182.602 388.000,183.000 388.000 C 183.330 388.000,183.600 387.770,183.600 387.489 C 183.600 387.208,183.960 386.670,184.400 386.293 C 184.840 385.916,185.200 385.246,185.200 384.804 C 185.200 384.356,185.466 384.000,185.800 384.000 C 186.175 384.000,186.400 383.621,186.400 382.987 C 186.400 382.431,186.670 381.871,187.000 381.745 C 187.330 381.618,187.600 381.195,187.600 380.804 C 187.600 380.413,187.960 379.999,188.400 379.884 C 188.983 379.732,189.200 379.338,189.200 378.437 C 189.200 377.604,189.396 377.200,189.800 377.200 C 190.130 377.200,190.400 377.020,190.400 376.800 C 190.400 376.580,190.760 376.040,191.200 375.600 C 191.640 375.160,192.000 374.440,192.000 374.000 C 192.000 373.556,192.267 373.200,192.600 373.200 C 193.019 373.200,193.200 372.778,193.200 371.800 C 193.200 370.822,193.381 370.400,193.800 370.400 C 194.130 370.400,194.400 370.130,194.400 369.800 C 194.400 369.470,194.651 369.200,194.957 369.200 C 195.569 369.200,196.000 368.359,196.000 367.167 C 196.000 366.745,196.270 366.400,196.600 366.400 C 196.930 366.400,197.200 366.068,197.200 365.662 C 197.200 365.256,197.560 364.598,198.000 364.200 C 198.440 363.802,198.800 363.253,198.800 362.981 C 198.800 362.708,199.070 362.382,199.400 362.255 C 199.751 362.121,200.000 361.521,200.000 360.813 C 200.000 360.001,200.199 359.600,200.600 359.600 C 200.956 359.600,201.200 359.233,201.200 358.696 C 201.200 358.199,201.560 357.568,202.000 357.293 C 202.440 357.018,202.800 356.544,202.800 356.239 C 202.800 355.935,203.070 355.582,203.400 355.455 C 203.751 355.321,204.000 354.721,204.000 354.013 C 204.000 353.193,204.197 352.800,204.610 352.800 C 204.965 352.800,205.318 352.309,205.455 351.626 C 205.584 350.980,205.940 350.355,206.245 350.238 C 206.550 350.121,206.800 349.479,206.800 348.813 C 206.800 348.001,206.999 347.600,207.400 347.600 C 207.730 347.600,208.000 347.261,208.000 346.847 C 208.000 346.430,208.357 346.000,208.800 345.884 C 209.329 345.746,209.600 345.338,209.600 344.680 C 209.600 344.133,209.870 343.582,210.200 343.455 C 210.543 343.324,210.800 342.727,210.800 342.059 C 210.800 341.230,211.031 340.833,211.600 340.684 C 212.183 340.532,212.400 340.138,212.400 339.237 C 212.400 338.404,212.596 338.000,213.000 338.000 C 213.333 338.000,213.600 337.644,213.600 337.200 C 213.600 336.760,213.777 336.400,213.992 336.400 C 214.208 336.400,214.504 335.924,214.650 335.342 C 214.796 334.760,215.250 333.950,215.658 333.542 C 216.066 333.134,216.400 332.440,216.400 332.000 C 216.400 331.556,216.667 331.200,217.000 331.200 C 217.419 331.200,217.600 330.778,217.600 329.800 C 217.600 328.822,217.781 328.400,218.200 328.400 C 218.595 328.400,218.800 328.005,218.800 327.247 C 218.800 326.430,219.033 326.032,219.600 325.884 C 220.183 325.732,220.400 325.338,220.400 324.437 C 220.400 323.604,220.596 323.200,221.000 323.200 C 221.373 323.200,221.600 322.823,221.600 322.203 C 221.600 321.640,221.948 320.990,222.400 320.707 C 222.840 320.432,223.206 319.936,223.213 319.604 C 223.220 319.272,223.490 318.651,223.813 318.224 C 224.144 317.785,224.400 316.590,224.400 315.478 L 224.400 313.510 221.556 313.670 C 219.467 313.788,218.580 314.013,218.212 314.516 C 217.815 315.059,217.077 315.200,214.643 315.200 C 212.285 315.200,211.522 315.339,211.345 315.800 C 211.044 316.583,206.641 316.682,206.898 315.900 C 206.988 315.625,207.563 315.341,208.176 315.269 C 208.870 315.188,209.367 314.848,209.492 314.369 C 209.630 313.843,210.045 313.600,210.804 313.600 C 211.422 313.600,212.016 313.334,212.145 313.000 C 212.271 312.670,212.623 312.400,212.925 312.400 C 213.228 312.400,213.802 312.040,214.200 311.600 C 214.598 311.160,215.256 310.800,215.662 310.800 C 216.068 310.800,216.400 310.530,216.400 310.200 C 216.400 309.800,216.800 309.600,217.600 309.600 C 218.400 309.600,218.800 309.400,218.800 309.000 C 218.800 308.666,219.156 308.400,219.604 308.400 C 220.046 308.400,220.716 308.040,221.093 307.600 C 221.470 307.160,222.098 306.800,222.489 306.800 C 222.880 306.800,223.200 306.530,223.200 306.200 C 223.200 305.800,223.600 305.600,224.400 305.600 C 225.333 305.600,225.600 305.422,225.600 304.800 C 225.600 304.267,225.867 304.000,226.400 304.000 C 226.844 304.000,227.200 303.733,227.200 303.400 C 227.200 303.000,227.600 302.800,228.400 302.800 C 229.231 302.800,229.600 302.604,229.600 302.163 C 229.600 301.812,229.960 301.431,230.400 301.316 C 230.840 301.201,231.200 300.858,231.200 300.553 C 231.200 300.249,231.470 300.000,231.800 300.000 C 232.200 300.000,232.400 299.600,232.400 298.800 C 232.400 297.867,232.578 297.600,233.200 297.600 C 233.733 297.600,234.000 297.333,234.000 296.800 C 234.000 296.356,234.267 296.000,234.600 296.000 C 235.015 296.000,235.200 295.583,235.200 294.647 C 235.200 293.630,235.399 293.241,236.000 293.084 C 236.575 292.934,236.800 292.538,236.800 291.680 C 236.800 290.987,237.052 290.389,237.400 290.255 C 237.744 290.123,238.000 289.526,238.000 288.855 C 238.000 288.185,238.256 287.587,238.600 287.455 C 238.992 287.305,239.200 286.682,239.200 285.659 C 239.200 284.430,239.372 284.048,240.000 283.884 C 240.575 283.734,240.800 283.338,240.800 282.480 C 240.800 281.787,241.052 281.189,241.400 281.055 C 241.751 280.921,242.000 280.321,242.000 279.613 C 242.000 278.801,242.199 278.400,242.600 278.400 C 243.000 278.400,243.200 278.000,243.200 277.200 C 243.200 276.533,243.556 275.644,244.000 275.200 C 244.495 274.705,244.800 273.867,244.800 273.000 C 244.800 272.022,244.981 271.600,245.400 271.600 C 245.819 271.600,246.000 271.178,246.000 270.200 C 246.000 269.275,246.188 268.800,246.553 268.800 C 247.135 268.800,247.585 267.626,247.595 266.087 C 247.598 265.586,247.870 265.071,248.200 264.945 C 248.570 264.803,248.800 264.195,248.800 263.357 C 248.800 262.417,248.985 262.000,249.400 262.000 C 249.819 262.000,250.000 261.578,250.000 260.600 C 250.000 259.670,250.187 259.200,250.557 259.200 C 251.225 259.200,251.600 258.340,251.600 256.810 C 251.600 256.180,251.864 255.584,252.200 255.455 C 252.551 255.321,252.800 254.721,252.800 254.013 C 252.800 253.333,253.152 252.448,253.600 252.000 C 254.040 251.560,254.400 250.679,254.400 250.043 C 254.400 249.383,254.658 248.787,255.000 248.655 C 255.371 248.513,255.600 247.905,255.600 247.062 C 255.600 246.312,255.870 245.474,256.200 245.200 C 256.530 244.926,256.800 244.106,256.800 243.378 C 256.800 242.405,257.012 241.987,257.600 241.800 C 258.258 241.591,258.400 241.195,258.400 239.573 C 258.400 238.086,258.548 237.600,259.000 237.600 C 259.400 237.600,259.600 237.200,259.600 236.400 C 259.600 235.733,259.956 234.844,260.400 234.400 C 260.848 233.952,261.200 233.067,261.200 232.387 C 261.200 231.679,261.449 231.079,261.800 230.945 C 262.220 230.783,262.400 230.128,262.400 228.757 C 262.400 227.284,262.548 226.800,263.000 226.800 C 263.400 226.800,263.600 226.400,263.600 225.600 C 263.600 224.933,263.956 224.044,264.400 223.600 C 264.886 223.114,265.200 222.267,265.200 221.443 C 265.200 220.605,265.430 219.997,265.800 219.855 C 266.208 219.699,266.400 219.059,266.400 217.855 C 266.400 216.651,266.592 216.012,267.000 215.855 C 267.440 215.687,267.600 214.993,267.600 213.259 C 267.600 211.230,267.714 210.864,268.400 210.684 C 269.098 210.502,269.200 210.138,269.200 207.837 C 269.200 205.760,269.327 205.200,269.800 205.200 C 270.269 205.200,270.400 204.655,270.400 202.696 C 270.400 200.626,270.538 200.106,271.200 199.693 C 271.892 199.261,272.000 198.760,272.000 195.997 C 272.000 193.422,272.117 192.800,272.600 192.800 C 273.094 192.800,273.200 192.086,273.200 188.771 C 273.200 185.724,273.346 184.597,273.800 184.143 C 274.280 183.663,274.400 182.346,274.400 177.571 C 274.400 172.133,274.471 171.529,275.200 170.800 C 275.976 170.024,276.000 169.467,276.000 152.433 C 276.000 134.596,275.945 133.600,274.957 133.600 C 274.500 133.600,274.400 132.199,274.400 125.787 C 274.400 119.212,274.305 117.938,273.800 117.745 C 273.310 117.557,273.200 116.578,273.200 112.406 C 273.200 108.354,273.076 107.195,272.600 106.800 C 272.146 106.423,272.000 105.404,272.000 102.613 C 272.000 99.432,271.890 98.824,271.200 98.200 C 270.516 97.581,270.400 96.968,270.400 93.981 C 270.400 91.243,270.270 90.436,269.800 90.255 C 269.338 90.078,269.200 89.309,269.200 86.901 C 269.200 84.235,269.083 83.692,268.400 83.200 C 267.726 82.714,267.600 82.165,267.600 79.712 C 267.600 77.390,267.478 76.800,267.000 76.800 C 266.521 76.800,266.400 76.203,266.400 73.829 C 266.400 71.721,266.226 70.683,265.800 70.257 C 265.396 69.854,265.200 68.850,265.200 67.191 C 265.200 65.062,265.091 64.697,264.400 64.516 C 263.705 64.334,263.600 63.970,263.600 61.753 C 263.600 59.750,263.471 59.200,263.000 59.200 C 262.528 59.200,262.400 58.643,262.400 56.587 C 262.400 54.634,262.249 53.917,261.800 53.745 C 261.380 53.583,261.200 52.928,261.200 51.557 C 261.200 50.133,260.982 49.382,260.400 48.800 C 259.835 48.235,259.600 47.467,259.600 46.187 C 259.600 44.945,259.411 44.302,259.000 44.145 C 258.559 43.975,258.400 43.279,258.400 41.520 C 258.400 39.462,258.288 39.096,257.600 38.916 C 256.938 38.743,256.800 38.370,256.800 36.753 C 256.800 35.284,256.651 34.800,256.200 34.800 C 255.740 34.800,255.600 34.292,255.600 32.629 C 255.600 31.232,255.386 30.243,255.000 29.857 C 254.670 29.527,254.398 28.749,254.395 28.129 C 254.386 26.389,253.963 25.200,253.353 25.200 C 252.956 25.200,252.800 24.636,252.800 23.200 C 252.800 21.689,252.653 21.200,252.200 21.200 C 251.747 21.200,251.600 20.711,251.600 19.200 C 251.600 17.467,251.493 17.200,250.800 17.200 C 250.106 17.200,250.000 16.933,250.000 15.187 C 250.000 13.768,249.823 13.107,249.400 12.945 C 248.992 12.788,248.800 12.149,248.800 10.945 C 248.800 9.741,248.608 9.101,248.200 8.945 C 247.834 8.804,247.600 8.198,247.600 7.390 C 247.600 5.669,247.250 4.800,246.557 4.800 C 246.155 4.800,246.000 4.243,246.000 2.800 C 246.000 0.857,245.967 0.800,244.833 0.800 C 244.192 0.800,243.607 0.646,243.533 0.458 C 243.460 0.270,243.085 0.420,242.700 0.792 M243.492 140.112 C 243.408 141.040,243.341 140.180,243.342 138.200 C 243.343 136.220,243.412 135.460,243.495 136.512 C 243.577 137.564,243.576 139.184,243.492 140.112 M240.236 156.484 C 239.757 156.752,239.600 157.477,239.600 159.420 C 239.600 161.467,239.435 162.165,238.800 162.800 L 238.000 163.600 238.013 162.700 C 238.020 162.205,238.290 161.451,238.613 161.024 C 238.985 160.531,239.200 159.323,239.200 157.724 C 239.200 155.747,239.330 155.200,239.800 155.200 C 240.130 155.200,240.425 154.975,240.454 154.700 C 240.484 154.425,240.591 154.634,240.691 155.164 C 240.806 155.776,240.640 156.258,240.236 156.484 M238.000 167.400 C 238.000 168.378,237.819 168.800,237.400 168.800 C 236.670 168.800,236.606 167.387,237.300 166.598 C 237.991 165.814,238.000 165.825,238.000 167.400 M236.800 172.504 C 236.800 173.374,236.534 173.974,236.000 174.307 C 235.057 174.896,234.776 172.584,235.680 171.680 C 236.473 170.887,236.800 171.128,236.800 172.504 M235.200 178.000 C 235.200 179.156,235.033 179.600,234.600 179.600 C 234.184 179.600,234.000 179.181,234.000 178.233 C 234.000 177.086,234.232 176.706,235.100 176.432 C 235.155 176.414,235.200 177.120,235.200 178.000 M234.000 182.213 C 234.000 183.099,233.777 183.711,233.400 183.855 C 232.953 184.027,232.800 184.739,232.800 186.643 C 232.800 188.933,232.717 189.200,232.000 189.200 C 230.993 189.200,230.818 186.521,231.800 186.145 C 232.227 185.981,232.400 185.315,232.400 183.837 C 232.400 181.929,232.876 180.800,233.680 180.800 C 233.856 180.800,234.000 181.436,234.000 182.213 M231.200 191.600 C 231.200 192.756,231.033 193.200,230.600 193.200 C 230.184 193.200,230.000 192.781,230.000 191.833 C 230.000 190.686,230.232 190.306,231.100 190.032 C 231.155 190.014,231.200 190.720,231.200 191.600 M150.145 417.400 C 150.003 417.770,149.395 418.000,148.557 418.000 C 147.617 418.000,147.200 417.815,147.200 417.400 C 147.200 416.967,147.643 416.800,148.787 416.800 C 150.034 416.800,150.325 416.929,150.145 417.400 M143.905 419.475 C 143.522 419.575,142.802 419.579,142.305 419.483 C 141.807 419.387,142.120 419.305,143.000 419.301 C 143.880 419.296,144.287 419.375,143.905 419.475 M306.184 447.227 C 306.039 447.461,306.028 447.761,306.160 447.893 C 306.292 448.025,306.403 447.878,306.406 447.567 C 306.411 447.104,306.474 447.098,306.750 447.534 C 307.023 447.963,307.136 447.944,307.332 447.434 C 307.607 446.716,306.610 446.536,306.184 447.227 M191.100 455.876 C 190.715 455.976,190.400 456.225,190.400 456.429 C 190.400 456.994,191.043 456.872,191.600 456.200 C 191.874 455.870,192.031 455.621,191.949 455.646 C 191.867 455.672,191.485 455.775,191.100 455.876 M125.660 485.980 C 125.748 486.244,125.951 486.447,126.110 486.430 C 126.588 486.381,126.496 485.832,125.980 485.660 C 125.716 485.572,125.572 485.716,125.660 485.980 M151.260 493.180 C 151.348 493.444,151.551 493.647,151.710 493.630 C 152.188 493.581,152.096 493.032,151.580 492.860 C 151.316 492.772,151.172 492.916,151.260 493.180 M177.830 524.490 C 178.381 526.146,178.551 526.400,179.109 526.400 C 179.645 526.400,179.639 526.306,179.061 525.668 C 178.697 525.265,178.534 524.786,178.699 524.603 C 178.865 524.421,178.790 524.392,178.534 524.538 C 178.278 524.685,177.976 524.619,177.864 524.392 C 177.752 524.166,177.736 524.210,177.830 524.490 M180.000 525.557 C 180.000 525.754,180.240 526.007,180.533 526.119 C 180.827 526.232,181.067 526.071,181.067 525.762 C 181.067 525.453,180.827 525.200,180.533 525.200 C 180.240 525.200,180.000 525.361,180.000 525.557 " stroke="none" fill="#334cfc" fill-rule="evenodd"></path><path id="path1" d="M398.000 415.033 C 397.450 415.339,396.674 415.591,396.276 415.594 C 395.878 415.597,395.664 415.780,395.800 416.001 C 395.937 416.221,395.587 416.577,395.024 416.791 C 394.461 417.005,394.000 417.365,394.000 417.590 C 394.000 417.816,393.773 418.000,393.496 418.000 C 393.219 418.000,392.768 418.360,392.493 418.800 C 392.218 419.240,391.629 419.600,391.184 419.600 C 390.739 419.600,390.271 419.870,390.145 420.200 C 390.018 420.530,389.587 420.800,389.186 420.800 C 388.785 420.800,388.187 421.070,387.857 421.400 C 387.527 421.730,386.974 422.000,386.629 422.000 C 386.267 422.000,386.000 422.339,386.000 422.800 C 386.000 423.448,385.733 423.600,384.600 423.600 C 383.622 423.600,383.200 423.781,383.200 424.200 C 383.200 424.530,382.855 424.800,382.433 424.800 C 381.241 424.800,380.400 425.231,380.400 425.843 C 380.400 426.195,379.959 426.400,379.200 426.400 C 378.540 426.400,378.000 426.567,378.000 426.771 C 378.000 427.174,373.715 429.324,372.900 429.330 C 372.625 429.332,372.400 429.573,372.400 429.867 C 372.400 430.194,371.931 430.400,371.187 430.400 C 370.479 430.400,369.879 430.649,369.745 431.000 C 369.615 431.339,369.019 431.600,368.377 431.600 C 367.752 431.600,367.096 431.846,366.920 432.146 C 366.647 432.612,365.289 433.035,363.300 433.273 C 363.025 433.306,362.800 433.573,362.800 433.867 C 362.800 434.198,362.324 434.400,361.544 434.400 C 360.853 434.400,360.088 434.664,359.844 434.988 C 359.600 435.311,358.725 435.618,357.901 435.669 C 356.864 435.734,356.332 435.985,356.174 436.482 C 355.995 437.045,355.520 437.200,353.973 437.200 C 352.608 437.200,352.031 437.354,352.100 437.700 C 352.166 438.032,351.553 438.241,350.279 438.323 C 349.063 438.400,348.276 438.658,348.136 439.023 C 347.990 439.403,347.323 439.600,346.183 439.600 C 344.139 439.600,342.249 440.232,342.600 440.799 C 342.754 441.049,342.007 441.200,340.624 441.200 C 339.078 441.200,338.400 441.357,338.400 441.714 C 338.400 441.997,338.085 442.242,337.700 442.259 C 333.288 442.452,332.800 442.553,332.800 443.271 C 332.800 443.672,332.665 443.979,332.500 443.953 C 330.678 443.665,325.958 444.099,325.457 444.600 C 325.018 445.039,323.946 445.200,321.457 445.200 C 319.056 445.200,317.891 445.367,317.490 445.767 C 317.083 446.175,315.607 446.372,312.257 446.467 C 308.105 446.585,307.565 446.683,307.352 447.353 C 307.160 447.956,307.043 447.996,306.762 447.553 C 306.510 447.154,306.411 447.139,306.406 447.500 C 306.402 447.875,305.054 448.000,301.020 448.000 C 296.777 448.000,295.572 448.121,295.320 448.571 C 295.109 448.946,294.144 449.183,292.497 449.265 C 290.525 449.362,289.947 449.538,289.770 450.094 C 289.613 450.588,289.134 450.800,288.173 450.800 C 287.219 450.800,286.800 450.983,286.800 451.400 C 286.800 451.795,286.405 452.000,285.643 452.000 C 284.983 452.000,284.387 452.258,284.255 452.600 C 284.129 452.930,283.553 453.200,282.975 453.200 C 282.262 453.200,281.858 453.456,281.716 454.000 C 281.570 454.558,281.170 454.800,280.396 454.800 C 279.778 454.800,279.184 455.066,279.055 455.400 C 278.929 455.730,278.391 456.000,277.862 456.000 C 277.332 456.000,276.682 456.261,276.417 456.580 C 276.152 456.898,275.319 457.363,274.564 457.612 C 273.810 457.861,273.295 458.230,273.420 458.432 C 273.545 458.635,273.277 458.800,272.824 458.800 C 272.371 458.800,272.000 458.980,272.000 459.200 C 272.000 459.420,271.865 459.562,271.700 459.515 C 271.535 459.468,271.019 459.642,270.553 459.901 C 270.087 460.160,269.577 460.243,269.419 460.086 C 269.262 459.929,269.170 459.980,269.214 460.200 C 269.423 461.238,269.109 461.600,268.000 461.600 C 267.200 461.600,266.800 461.800,266.800 462.200 C 266.800 462.598,266.402 462.800,265.620 462.800 C 264.971 462.800,264.291 463.067,264.108 463.392 C 263.926 463.718,263.152 464.083,262.388 464.203 C 261.347 464.367,261.203 464.330,261.814 464.055 C 262.262 463.854,262.869 463.399,263.163 463.045 C 263.457 462.690,264.030 462.400,264.436 462.400 C 264.929 462.400,265.098 462.200,264.945 461.800 C 264.798 461.417,264.952 461.200,265.370 461.200 C 265.730 461.200,266.129 460.930,266.255 460.600 C 266.382 460.270,266.736 460.000,267.043 460.000 C 267.349 460.000,267.600 459.751,267.600 459.447 C 267.600 459.142,267.915 458.787,268.300 458.658 C 269.516 458.248,271.644 456.891,271.591 456.559 C 271.563 456.383,271.914 456.101,272.370 455.933 C 272.827 455.764,273.200 455.350,273.200 455.013 C 273.200 454.676,273.470 454.400,273.800 454.400 C 274.130 454.400,274.400 454.130,274.400 453.800 C 274.400 453.470,274.760 453.178,275.200 453.150 C 276.642 453.060,276.800 453.005,276.776 452.600 C 276.763 452.380,277.168 452.102,277.676 451.982 C 278.607 451.762,279.092 449.427,278.307 448.942 C 278.131 448.834,278.091 448.577,278.217 448.372 C 278.357 448.146,273.646 448.000,266.171 448.000 C 254.927 448.000,253.839 447.940,253.247 447.291 C 252.701 446.692,251.755 446.562,247.200 446.454 C 243.267 446.362,241.628 446.174,241.169 445.764 C 240.685 445.332,239.129 445.200,234.511 445.200 C 229.459 445.200,228.447 445.101,228.250 444.585 C 227.911 443.703,214.000 443.751,214.000 444.634 C 214.000 445.052,213.435 445.200,211.833 445.200 C 209.429 445.200,208.290 445.499,208.626 446.042 C 208.748 446.239,208.190 446.400,207.386 446.400 C 206.262 446.400,205.877 446.584,205.716 447.200 C 205.569 447.763,205.170 448.000,204.373 448.000 C 203.750 448.000,203.096 448.229,202.920 448.508 C 202.744 448.788,202.105 449.234,201.500 449.500 C 200.895 449.765,200.400 450.167,200.400 450.391 C 200.400 450.616,200.124 450.800,199.787 450.800 C 199.451 450.800,199.071 451.070,198.945 451.400 C 198.818 451.730,198.458 452.000,198.145 452.000 C 197.831 452.000,197.471 452.270,197.345 452.600 C 197.218 452.930,196.864 453.200,196.557 453.200 C 196.251 453.200,196.000 453.560,196.000 454.000 C 196.000 454.444,195.733 454.800,195.400 454.800 C 195.070 454.800,194.800 455.048,194.800 455.350 C 194.800 455.652,194.248 456.010,193.573 456.145 C 192.892 456.282,192.458 456.570,192.597 456.795 C 192.735 457.018,192.657 457.223,192.424 457.250 C 191.614 457.346,191.397 457.414,190.893 457.734 C 190.615 457.911,190.478 458.202,190.589 458.382 C 190.700 458.562,190.433 458.803,189.995 458.917 C 189.212 459.122,189.211 459.108,189.942 458.063 C 190.351 457.478,190.614 456.798,190.527 456.551 C 190.439 456.304,190.735 456.006,191.184 455.888 C 191.633 455.771,192.000 455.388,192.000 455.037 C 192.000 454.687,192.270 454.400,192.600 454.400 C 192.930 454.400,193.200 454.130,193.200 453.800 C 193.200 453.470,193.470 453.200,193.800 453.200 C 194.141 453.200,194.400 452.841,194.400 452.367 C 194.400 451.890,194.608 451.603,194.886 451.695 C 195.357 451.852,197.200 449.543,197.200 448.796 C 197.200 448.594,197.560 448.235,198.000 448.000 C 198.440 447.765,198.800 447.205,198.800 446.757 C 198.800 446.309,199.083 445.660,199.430 445.313 C 200.341 444.401,199.515 444.014,196.644 444.006 C 195.031 444.002,194.148 444.186,193.844 444.589 C 193.490 445.059,192.163 445.188,187.300 445.227 C 182.349 445.266,181.200 445.381,181.200 445.838 C 181.200 446.265,180.551 446.401,178.500 446.404 C 174.718 446.411,172.709 446.786,172.960 447.441 C 173.117 447.849,172.371 447.996,169.682 448.085 C 167.157 448.168,166.227 448.337,166.300 448.700 C 166.372 449.060,165.659 449.200,163.763 449.200 C 161.481 449.200,161.097 449.306,160.920 449.983 C 160.747 450.644,160.305 450.784,158.058 450.883 C 156.193 450.965,155.430 451.149,155.500 451.500 C 155.568 451.840,155.033 452.000,153.833 452.000 C 151.907 452.000,150.705 452.322,150.978 452.765 C 151.074 452.920,150.405 453.091,149.492 453.144 C 148.578 453.198,147.607 453.428,147.333 453.656 C 147.059 453.883,146.649 453.954,146.422 453.814 C 146.176 453.661,146.105 453.809,146.247 454.179 C 146.439 454.678,146.163 454.800,144.843 454.800 C 143.649 454.800,143.200 454.964,143.200 455.400 C 143.200 455.845,142.732 456.000,141.387 456.000 C 140.145 456.000,139.502 456.189,139.345 456.600 C 139.218 456.930,138.720 457.200,138.237 457.200 C 137.218 457.200,135.208 458.061,135.203 458.500 C 135.201 458.665,134.654 458.800,133.987 458.800 C 133.279 458.800,132.679 459.049,132.545 459.400 C 132.411 459.748,131.813 460.000,131.120 460.000 C 130.262 460.000,129.866 460.225,129.716 460.800 C 129.553 461.424,129.170 461.600,127.977 461.600 C 127.136 461.600,126.319 461.808,126.162 462.062 C 125.985 462.348,126.052 462.415,126.338 462.238 C 126.592 462.081,126.800 462.143,126.800 462.376 C 126.800 462.609,126.192 462.800,125.449 462.800 C 124.706 462.800,123.883 463.058,123.621 463.374 C 123.359 463.690,122.617 464.064,121.972 464.206 C 121.328 464.348,120.800 464.626,120.800 464.824 C 120.800 465.022,120.350 465.298,119.800 465.436 C 119.250 465.574,118.800 465.937,118.800 466.243 C 118.800 466.613,118.329 466.800,117.400 466.800 C 116.267 466.800,116.000 466.952,116.000 467.600 C 116.000 468.224,115.733 468.400,114.787 468.400 C 114.079 468.400,113.479 468.649,113.345 469.000 C 113.218 469.330,112.692 469.600,112.175 469.600 C 111.269 469.600,109.200 471.264,109.200 471.993 C 109.200 472.189,108.615 472.406,107.900 472.475 C 107.122 472.550,106.640 472.801,106.700 473.100 C 106.755 473.375,106.539 473.600,106.220 473.600 C 105.901 473.600,105.479 473.887,105.282 474.238 C 105.086 474.590,104.445 474.905,103.858 474.938 C 103.231 474.975,102.699 475.289,102.569 475.700 C 102.446 476.085,102.083 476.400,101.760 476.400 C 101.438 476.400,101.072 476.669,100.946 476.998 C 100.819 477.326,100.600 477.528,100.458 477.445 C 99.937 477.140,98.400 477.993,98.400 478.587 C 98.400 478.924,98.130 479.200,97.800 479.200 C 97.470 479.200,97.200 479.470,97.200 479.800 C 97.200 480.133,96.844 480.400,96.400 480.400 C 95.960 480.400,95.600 480.589,95.600 480.821 C 95.600 481.052,95.074 481.425,94.432 481.649 C 93.125 482.105,92.860 482.545,93.022 484.000 C 93.083 484.550,93.148 485.133,93.167 485.296 C 93.185 485.458,100.715 485.638,109.900 485.696 C 124.425 485.786,126.600 485.878,126.600 486.399 C 126.600 487.101,126.235 487.061,133.471 487.139 C 137.727 487.185,139.282 487.339,139.701 487.758 C 140.122 488.179,141.683 488.330,146.030 488.371 C 150.020 488.409,151.924 488.576,152.201 488.913 C 152.886 489.744,154.067 489.904,159.924 489.960 C 162.238 489.983,163.950 490.157,163.826 490.358 C 163.421 491.012,164.816 491.200,170.133 491.206 C 173.681 491.210,175.204 491.339,174.800 491.600 C 174.470 491.813,174.335 492.013,174.500 492.044 C 174.665 492.075,174.980 492.145,175.200 492.200 C 175.420 492.255,178.120 492.323,181.200 492.350 C 185.661 492.390,186.800 492.512,186.800 492.950 C 186.800 493.746,188.252 493.925,195.180 493.983 C 199.340 494.017,201.554 494.192,201.956 494.517 C 202.427 494.898,202.490 494.894,202.253 494.500 C 202.088 494.225,202.143 494.000,202.376 494.000 C 202.609 494.000,202.800 494.262,202.800 494.583 C 202.800 495.454,234.586 495.506,235.825 494.637 C 236.457 494.195,238.361 494.035,243.951 493.956 C 250.534 493.864,251.288 493.782,251.639 493.127 C 251.983 492.484,252.604 492.400,256.990 492.400 C 260.310 492.400,262.047 492.247,262.238 491.938 C 262.427 491.633,262.346 491.586,262.000 491.800 C 261.654 492.014,261.573 491.967,261.762 491.662 C 262.119 491.084,268.000 491.026,268.000 491.600 C 268.000 491.820,267.865 491.979,267.700 491.953 C 266.910 491.828,266.660 492.051,267.200 492.400 C 267.618 492.670,266.935 492.790,264.943 492.794 C 262.776 492.799,262.030 492.945,261.855 493.400 C 261.679 493.860,260.921 494.000,258.613 494.000 C 256.201 494.000,255.600 494.120,255.600 494.600 C 255.600 495.088,254.944 495.200,252.100 495.201 C 249.359 495.203,248.328 495.369,247.346 495.968 C 246.322 496.592,245.149 496.757,240.978 496.866 C 237.342 496.961,235.818 497.144,235.699 497.500 C 235.428 498.317,193.362 498.219,192.543 497.400 C 192.063 496.920,190.744 496.800,185.955 496.800 C 180.519 496.800,179.887 496.726,179.108 496.000 C 178.326 495.272,177.696 495.200,172.101 495.200 C 168.584 495.200,166.047 495.047,166.174 494.842 C 166.584 494.179,165.243 494.031,158.381 493.981 C 152.896 493.941,151.506 493.819,151.331 493.365 C 151.152 492.898,149.315 492.800,140.770 492.800 C 132.180 492.800,130.461 492.707,130.635 492.253 C 130.990 491.328,129.735 491.260,112.271 491.255 C 96.417 491.251,93.208 491.443,93.776 492.361 C 93.911 492.579,91.274 492.751,87.316 492.781 C 82.233 492.820,80.480 492.965,80.014 493.387 C 79.599 493.762,78.138 493.975,75.500 494.045 C 72.597 494.122,71.600 494.283,71.600 494.674 C 71.600 495.053,70.894 495.200,69.075 495.200 C 67.104 495.200,66.363 495.375,65.692 496.000 C 65.014 496.632,64.281 496.800,62.204 496.800 C 60.236 496.800,59.517 496.951,59.345 497.400 C 59.189 497.806,58.552 498.000,57.377 498.000 C 56.262 498.000,55.522 498.211,55.310 498.589 C 55.093 498.977,54.245 499.205,52.830 499.255 C 51.307 499.309,50.496 499.545,50.051 500.066 C 49.678 500.501,48.888 500.800,48.111 500.800 C 47.212 500.800,46.800 500.989,46.800 501.400 C 46.800 501.843,46.336 502.000,45.027 502.000 C 43.605 502.000,43.204 502.159,43.000 502.800 C 42.821 503.363,42.395 503.600,41.560 503.600 C 40.876 503.600,40.278 503.853,40.145 504.200 C 40.013 504.542,39.417 504.800,38.757 504.800 C 38.036 504.800,37.600 505.010,37.600 505.355 C 37.600 505.674,37.002 506.023,36.200 506.174 C 35.362 506.331,34.800 506.670,34.800 507.018 C 34.800 507.397,34.384 507.600,33.608 507.600 C 32.323 507.600,31.800 508.572,32.067 510.459 C 32.247 511.734,42.113 511.944,43.357 510.700 C 43.941 510.116,44.806 510.000,48.586 510.000 C 52.242 510.000,53.159 509.884,53.345 509.400 C 53.517 508.951,54.237 508.800,56.211 508.800 C 57.736 508.800,58.750 508.643,58.617 508.428 C 58.277 507.877,58.851 507.651,60.829 507.557 C 61.854 507.509,62.937 507.175,63.400 506.764 C 64.036 506.200,65.040 506.035,68.300 505.955 C 71.379 505.881,72.400 505.724,72.400 505.328 C 72.400 504.490,95.703 504.560,96.400 505.400 C 96.674 505.730,97.317 506.000,97.829 506.000 C 98.341 506.000,98.904 506.254,99.080 506.564 C 99.256 506.875,100.030 507.299,100.800 507.507 C 101.570 507.715,102.155 508.091,102.100 508.342 C 102.038 508.626,102.604 508.800,103.587 508.800 C 104.834 508.800,105.125 508.929,104.945 509.400 C 104.764 509.872,105.056 510.000,106.311 510.000 C 107.570 510.000,107.951 510.169,108.116 510.800 C 108.254 511.329,108.662 511.600,109.320 511.600 C 109.867 511.600,110.418 511.870,110.545 512.200 C 110.687 512.572,111.296 512.800,112.145 512.800 C 112.993 512.800,113.602 513.028,113.745 513.400 C 113.879 513.749,114.477 514.000,115.175 514.000 C 116.011 514.000,116.313 514.162,116.170 514.533 C 116.058 514.827,116.198 515.094,116.483 515.127 C 118.456 515.355,119.846 515.786,120.120 516.254 C 120.296 516.554,120.906 516.800,121.476 516.800 C 122.046 516.800,122.718 517.082,122.970 517.427 C 123.222 517.771,124.187 518.155,125.114 518.279 C 126.164 518.420,126.800 518.712,126.800 519.053 C 126.800 519.412,127.284 519.600,128.213 519.600 C 129.024 519.600,129.713 519.828,129.831 520.136 C 129.954 520.457,130.751 520.699,131.822 520.739 C 133.003 520.784,133.876 521.076,134.403 521.603 C 134.900 522.100,135.735 522.400,136.624 522.400 C 137.407 522.400,137.948 522.561,137.826 522.758 C 137.528 523.240,138.564 523.600,140.249 523.600 C 141.081 523.600,141.976 523.920,142.492 524.400 C 143.104 524.970,143.904 525.200,145.275 525.200 C 146.719 525.200,147.200 525.350,147.200 525.800 C 147.200 526.251,147.683 526.400,149.151 526.400 C 150.397 526.400,151.282 526.617,151.600 527.000 C 151.935 527.403,152.836 527.600,154.353 527.600 C 156.174 527.600,156.704 527.754,157.107 528.400 C 157.523 529.067,158.040 529.200,160.203 529.200 C 162.017 529.200,162.770 529.345,162.700 529.682 C 162.581 530.253,162.761 530.285,166.424 530.350 C 168.084 530.379,169.151 530.556,169.013 530.778 C 168.664 531.344,171.469 531.995,174.267 531.998 C 176.808 532.000,178.122 532.280,177.828 532.755 C 177.735 532.905,178.889 533.077,180.391 533.139 C 182.090 533.208,183.226 533.081,183.399 532.802 C 183.783 532.180,183.264 530.313,182.788 530.607 C 182.575 530.739,182.400 530.477,182.400 530.024 C 182.400 529.558,182.139 529.200,181.800 529.200 C 181.470 529.200,181.200 528.930,181.200 528.600 C 181.200 528.270,180.941 528.000,180.624 528.000 C 180.307 528.000,179.919 527.792,179.762 527.538 C 179.568 527.225,179.657 527.185,180.038 527.415 C 180.517 527.703,180.519 527.653,180.051 527.077 C 179.749 526.705,179.254 526.400,178.951 526.400 C 178.648 526.400,178.400 526.164,178.400 525.875 C 178.400 525.587,178.085 525.000,177.700 524.570 C 176.005 522.680,175.857 522.400,176.551 522.400 C 176.908 522.400,177.200 522.670,177.200 523.000 C 177.200 523.330,177.458 523.600,177.773 523.600 C 178.088 523.600,178.459 523.956,178.597 524.392 C 178.736 524.827,178.973 525.166,179.124 525.145 C 180.129 525.001,181.207 525.265,180.998 525.603 C 180.861 525.824,181.076 526.126,181.475 526.273 C 181.874 526.420,182.344 526.778,182.520 527.070 C 182.696 527.361,183.080 527.600,183.373 527.600 C 183.667 527.600,184.001 527.960,184.116 528.400 C 184.257 528.941,184.662 529.200,185.363 529.200 C 186.018 529.200,186.400 529.421,186.400 529.800 C 186.400 530.130,186.717 530.400,187.104 530.400 C 187.491 530.400,188.032 530.760,188.307 531.200 C 188.583 531.642,189.240 532.000,189.775 532.000 C 190.307 532.000,191.013 532.270,191.343 532.600 C 191.673 532.930,192.599 533.200,193.400 533.200 C 194.201 533.200,195.127 533.470,195.457 533.800 C 195.926 534.269,197.143 534.400,201.029 534.400 C 204.076 534.400,206.000 534.555,206.000 534.800 C 206.000 535.053,208.867 535.200,213.800 535.200 C 218.733 535.200,221.600 535.053,221.600 534.800 C 221.600 534.544,225.200 534.400,231.600 534.400 C 239.911 534.400,241.600 534.305,241.600 533.839 C 241.600 533.392,242.710 533.250,247.067 533.139 C 250.982 533.040,252.581 532.858,252.700 532.500 C 252.809 532.173,253.720 531.998,255.333 531.995 C 258.347 531.988,259.600 531.682,259.600 530.953 C 259.600 530.545,260.216 530.400,261.951 530.400 C 263.553 530.400,264.461 530.209,264.800 529.800 C 265.114 529.422,265.996 529.200,267.187 529.200 C 268.568 529.200,269.271 528.985,269.800 528.400 C 270.334 527.810,271.032 527.600,272.462 527.600 C 273.918 527.600,274.400 527.451,274.400 527.000 C 274.400 526.581,274.822 526.400,275.800 526.400 C 276.778 526.400,277.200 526.219,277.200 525.800 C 277.200 525.272,279.093 524.911,280.534 525.164 C 280.718 525.196,280.964 524.858,281.081 524.411 C 281.242 523.798,281.623 523.600,282.647 523.600 C 283.583 523.600,284.000 523.415,284.000 523.000 C 284.000 522.630,284.376 522.400,284.981 522.400 C 286.239 522.400,288.039 521.586,287.764 521.142 C 287.648 520.954,288.283 520.800,289.176 520.800 C 290.353 520.800,290.800 520.635,290.800 520.200 C 290.800 519.870,291.154 519.600,291.588 519.600 C 292.736 519.600,295.977 517.207,295.724 516.546 C 295.609 516.246,295.354 516.000,295.157 516.000 C 294.961 516.000,294.800 515.640,294.800 515.200 C 294.800 514.505,294.533 514.400,292.764 514.400 C 291.229 514.400,290.565 514.206,290.064 513.611 C 289.603 513.064,288.826 512.796,287.522 512.738 C 286.489 512.691,285.725 512.521,285.824 512.361 C 285.924 512.200,285.779 511.977,285.502 511.866 C 285.226 511.754,286.013 511.649,287.251 511.632 C 288.762 511.610,289.660 511.791,289.984 512.181 C 290.620 512.946,298.043 512.874,298.300 512.100 C 298.415 511.756,299.455 511.600,301.630 511.600 C 304.360 511.600,304.862 511.490,305.293 510.800 C 305.622 510.273,306.226 510.000,307.063 510.000 C 307.762 510.000,308.403 509.791,308.488 509.535 C 308.638 509.087,309.201 508.909,311.071 508.719 C 311.550 508.670,311.860 508.498,311.760 508.335 C 311.516 507.941,313.021 507.154,313.363 507.497 C 313.511 507.644,313.736 507.368,313.863 506.883 C 314.013 506.306,314.402 506.000,314.985 506.000 C 315.475 506.000,316.198 505.644,316.591 505.209 C 316.985 504.775,317.467 504.518,317.663 504.639 C 317.859 504.760,317.994 504.711,317.963 504.530 C 317.808 503.640,318.069 503.200,318.751 503.200 C 319.164 503.200,319.726 502.930,320.000 502.600 C 320.274 502.270,320.836 502.000,321.249 502.000 C 321.662 502.000,322.000 501.730,322.000 501.400 C 322.000 501.070,322.270 500.800,322.600 500.800 C 322.933 500.800,323.200 500.444,323.200 500.000 C 323.200 499.411,323.467 499.200,324.213 499.200 C 324.769 499.200,325.322 498.946,325.441 498.636 C 325.561 498.326,326.089 497.964,326.615 497.832 C 327.252 497.672,327.495 497.393,327.343 496.996 C 327.185 496.584,327.375 496.400,327.957 496.400 C 328.421 496.400,328.800 496.173,328.800 495.895 C 328.800 495.393,329.592 494.871,331.700 493.984 C 332.305 493.730,332.800 493.269,332.800 492.961 C 332.800 492.652,333.070 492.400,333.400 492.400 C 333.730 492.400,334.000 492.130,334.000 491.800 C 334.000 491.470,334.264 491.200,334.586 491.200 C 334.908 491.200,335.367 490.835,335.606 490.389 C 335.845 489.943,336.211 489.683,336.420 489.812 C 336.629 489.942,336.800 489.689,336.800 489.251 C 336.800 488.734,337.114 488.408,337.700 488.318 C 338.195 488.243,338.555 487.960,338.500 487.691 C 338.445 487.421,338.535 487.236,338.700 487.279 C 339.375 487.458,340.800 486.707,340.800 486.173 C 340.800 485.858,341.064 485.600,341.386 485.600 C 341.708 485.600,342.167 485.235,342.406 484.789 C 342.645 484.343,343.016 484.086,343.230 484.219 C 343.444 484.351,343.594 484.311,343.563 484.130 C 343.400 483.196,343.655 482.736,344.215 482.950 C 344.581 483.091,344.933 482.918,345.085 482.524 C 345.410 481.675,346.680 480.400,347.200 480.400 C 347.420 480.400,347.600 480.040,347.600 479.600 C 347.600 479.067,347.867 478.800,348.400 478.800 C 348.844 478.800,349.200 478.533,349.200 478.200 C 349.200 477.870,349.470 477.600,349.800 477.600 C 350.130 477.600,350.400 477.428,350.400 477.218 C 350.400 476.722,352.322 474.800,352.818 474.800 C 353.028 474.800,353.200 474.530,353.200 474.200 C 353.200 473.870,353.470 473.600,353.800 473.600 C 354.133 473.600,354.400 473.244,354.400 472.800 C 354.400 472.348,354.667 472.000,355.013 472.000 C 355.349 472.000,355.729 471.730,355.855 471.400 C 355.982 471.070,356.336 470.800,356.643 470.800 C 356.949 470.800,357.200 470.643,357.200 470.450 C 357.200 469.946,361.885 465.200,362.383 465.200 C 362.612 465.200,362.800 464.930,362.800 464.600 C 362.800 464.270,363.070 464.000,363.400 464.000 C 363.730 464.000,364.000 463.751,364.000 463.447 C 364.000 463.142,364.361 462.799,364.802 462.684 C 365.336 462.544,365.522 462.262,365.359 461.837 C 365.138 461.261,365.565 461.005,366.500 461.153 C 366.665 461.179,366.800 460.868,366.800 460.462 C 366.800 460.056,367.153 459.405,367.584 459.014 C 368.015 458.624,368.330 458.101,368.284 457.852 C 368.238 457.604,368.441 457.450,368.734 457.511 C 369.028 457.573,369.364 457.258,369.481 456.811 C 369.598 456.365,369.942 456.000,370.247 456.000 C 370.551 456.000,370.800 455.640,370.800 455.200 C 370.800 454.760,370.980 454.400,371.200 454.400 C 371.588 454.400,374.800 451.383,374.800 451.018 C 374.800 450.918,375.260 450.377,375.822 449.815 C 376.386 449.250,376.716 448.588,376.560 448.335 C 376.388 448.056,376.453 447.986,376.726 448.155 C 376.999 448.323,377.277 448.031,377.432 447.416 C 377.572 446.857,377.937 446.400,378.243 446.400 C 378.550 446.400,378.800 446.142,378.800 445.827 C 378.800 445.512,379.160 445.140,379.600 445.000 C 380.040 444.860,380.400 444.507,380.400 444.216 C 380.400 443.924,380.672 443.581,381.004 443.454 C 381.336 443.327,381.584 443.082,381.556 442.911 C 381.394 441.921,381.681 441.200,382.237 441.200 C 382.588 441.200,382.969 440.840,383.084 440.400 C 383.199 439.960,383.542 439.600,383.847 439.600 C 384.151 439.600,384.400 439.324,384.400 438.987 C 384.400 438.651,384.652 438.278,384.961 438.160 C 385.269 438.041,385.617 437.579,385.734 437.132 C 385.851 436.685,386.124 436.429,386.341 436.563 C 386.557 436.697,386.851 436.280,386.992 435.637 C 387.133 434.993,387.508 434.367,387.824 434.246 C 388.141 434.124,388.400 433.845,388.400 433.626 C 388.400 433.406,389.033 432.594,389.807 431.820 C 390.580 431.046,391.210 430.320,391.207 430.207 C 391.170 429.070,391.284 428.800,391.800 428.800 C 392.133 428.800,392.400 428.444,392.400 428.000 C 392.400 427.471,392.667 427.200,393.187 427.200 C 393.673 427.200,393.898 426.999,393.773 426.675 C 393.662 426.386,393.938 425.818,394.386 425.413 C 394.834 425.008,395.200 424.344,395.200 423.938 C 395.200 423.532,395.449 423.200,395.753 423.200 C 396.252 423.200,396.952 421.853,396.843 421.100 C 396.819 420.935,397.021 420.845,397.291 420.900 C 397.560 420.955,397.843 420.595,397.918 420.100 C 397.994 419.605,398.313 419.200,398.628 419.200 C 398.971 419.200,399.200 418.801,399.200 418.200 C 399.200 417.650,399.380 417.200,399.600 417.200 C 399.820 417.200,400.000 416.570,400.000 415.800 C 400.000 414.275,399.626 414.131,398.000 415.033 M188.000 460.753 C 188.000 461.170,187.643 461.600,187.200 461.716 C 186.760 461.831,186.400 461.762,186.400 461.563 C 186.400 461.363,186.670 461.200,187.000 461.200 C 187.330 461.200,187.600 460.930,187.600 460.600 C 187.600 460.270,187.690 460.000,187.800 460.000 C 187.910 460.000,188.000 460.339,188.000 460.753 M289.105 485.875 C 288.722 485.975,288.002 485.979,287.505 485.883 C 287.007 485.787,287.320 485.705,288.200 485.701 C 289.080 485.696,289.487 485.775,289.105 485.875 M277.716 489.200 C 277.570 489.759,277.170 490.000,276.391 490.000 C 275.472 490.000,275.312 489.859,275.484 489.200 C 275.630 488.641,276.030 488.400,276.809 488.400 C 277.728 488.400,277.888 488.541,277.716 489.200 M273.345 490.600 C 273.175 491.041,272.478 491.200,270.708 491.200 C 268.615 491.200,268.367 491.122,268.800 490.600 C 269.129 490.204,270.024 490.000,271.436 490.000 C 273.173 490.000,273.532 490.113,273.345 490.600 M279.100 510.276 C 278.715 510.376,278.085 510.376,277.700 510.276 C 277.315 510.175,277.630 510.093,278.400 510.093 C 279.170 510.093,279.485 510.175,279.100 510.276 " stroke="none" fill="#0424cc" fill-rule="evenodd"></path></g></svg>