<svg id="svg" xmlns="http://www.w3.org/2000/svg" xmlns:xlink="http://www.w3.org/1999/xlink" width="400" height="109.7236438075742" viewBox="0, 0, 400,109.7236438075742"><g id="svgg"><path id="path0" d="M218.708 12.943 C 218.543 13.010,218.500 20.698,218.500 50.597 L 218.500 88.167 227.667 88.167 L 236.833 88.167 236.833 81.086 L 236.833 74.006 237.920 72.920 C 238.517 72.322,239.080 71.833,239.170 71.833 C 239.260 71.833,239.333 71.753,239.333 71.655 C 239.333 71.438,239.752 71.000,239.960 71.000 C 240.043 71.000,240.211 70.813,240.333 70.583 C 240.622 70.045,241.000 70.045,241.000 70.583 C 241.000 70.813,241.075 71.000,241.167 71.000 C 241.258 71.000,241.333 71.152,241.333 71.339 C 241.333 71.525,241.446 71.720,241.583 71.773 C 241.721 71.826,241.836 71.992,241.839 72.143 C 241.845 72.488,242.226 73.000,242.477 73.000 C 242.581 73.000,242.667 73.188,242.667 73.417 C 242.667 73.646,242.742 73.833,242.833 73.833 C 242.925 73.833,243.000 74.021,243.000 74.250 C 243.000 74.509,243.094 74.667,243.250 74.667 C 243.399 74.667,243.500 74.820,243.500 75.047 C 243.500 75.255,243.650 75.535,243.833 75.667 C 244.017 75.799,244.167 76.078,244.167 76.287 C 244.167 76.513,244.268 76.667,244.417 76.667 C 244.572 76.667,244.667 76.824,244.667 77.083 C 244.667 77.313,244.742 77.500,244.833 77.500 C 244.925 77.500,245.000 77.652,245.000 77.839 C 245.000 78.025,245.112 78.220,245.250 78.273 C 245.387 78.326,245.500 78.521,245.500 78.707 C 245.500 78.893,245.688 79.219,245.917 79.431 C 246.146 79.644,246.333 79.933,246.333 80.075 C 246.333 80.217,246.408 80.333,246.500 80.333 C 246.592 80.333,246.667 80.521,246.667 80.750 C 246.667 81.009,246.761 81.167,246.917 81.167 C 247.072 81.167,247.167 81.324,247.167 81.583 C 247.167 81.813,247.242 82.000,247.333 82.000 C 247.425 82.000,247.500 82.112,247.500 82.250 C 247.500 82.387,247.612 82.500,247.750 82.500 C 247.906 82.500,248.000 82.657,248.000 82.917 C 248.000 83.146,248.075 83.333,248.167 83.333 C 248.258 83.333,248.333 83.434,248.333 83.558 C 248.333 83.892,248.834 84.833,249.012 84.833 C 249.097 84.833,249.167 85.021,249.167 85.250 C 249.167 85.479,249.242 85.667,249.333 85.667 C 249.425 85.667,249.500 85.779,249.500 85.917 C 249.500 86.054,249.612 86.167,249.750 86.167 C 249.906 86.167,250.000 86.324,250.000 86.583 C 250.000 86.813,250.075 87.000,250.167 87.000 C 250.258 87.000,250.333 87.133,250.333 87.296 C 250.333 88.181,250.158 88.167,261.335 88.167 L 271.667 88.167 271.667 87.750 C 271.667 87.491,271.572 87.333,271.417 87.333 C 271.279 87.333,271.167 87.197,271.167 87.031 C 271.167 86.865,271.017 86.569,270.833 86.372 C 270.650 86.175,270.500 85.896,270.500 85.752 C 270.500 85.608,270.387 85.446,270.250 85.394 C 270.112 85.341,269.998 85.174,269.995 85.024 C 269.988 84.678,269.607 84.167,269.357 84.167 C 269.252 84.167,269.167 83.979,269.167 83.750 C 269.167 83.521,269.092 83.333,269.000 83.333 C 268.908 83.333,268.833 83.221,268.833 83.083 C 268.833 82.946,268.721 82.833,268.583 82.833 C 268.428 82.833,268.333 82.676,268.333 82.417 C 268.333 82.188,268.258 82.000,268.167 82.000 C 268.075 82.000,268.000 81.885,268.000 81.745 C 268.000 81.604,267.887 81.446,267.750 81.394 C 267.612 81.341,267.500 81.193,267.500 81.066 C 267.500 80.938,267.425 80.833,267.333 80.833 C 267.242 80.833,267.167 80.646,267.167 80.417 C 267.167 80.188,267.086 80.000,266.988 80.000 C 266.694 80.000,266.333 79.548,266.333 79.179 C 266.333 78.983,266.225 78.833,266.083 78.833 C 265.928 78.833,265.833 78.676,265.833 78.417 C 265.833 78.188,265.758 78.000,265.667 78.000 C 265.575 78.000,265.500 77.887,265.500 77.750 C 265.500 77.612,265.425 77.500,265.333 77.500 C 265.242 77.500,265.167 77.350,265.167 77.167 C 265.167 76.981,265.056 76.833,264.917 76.833 C 264.761 76.833,264.667 76.676,264.667 76.417 C 264.667 76.188,264.592 76.000,264.500 76.000 C 264.408 76.000,264.333 75.887,264.333 75.750 C 264.333 75.612,264.221 75.500,264.083 75.500 C 263.942 75.500,263.833 75.351,263.833 75.155 C 263.833 74.786,263.473 74.333,263.179 74.333 C 263.080 74.333,263.000 74.146,263.000 73.917 C 263.000 73.688,262.925 73.500,262.833 73.500 C 262.742 73.500,262.667 73.361,262.667 73.190 C 262.667 73.020,262.479 72.739,262.250 72.567 C 262.021 72.395,261.833 72.085,261.833 71.877 C 261.833 71.653,261.732 71.500,261.583 71.500 C 261.446 71.500,261.333 71.387,261.333 71.250 C 261.333 71.112,261.258 71.000,261.167 71.000 C 261.075 71.000,261.000 70.813,261.000 70.583 C 261.000 70.354,260.942 70.167,260.871 70.167 C 260.800 70.167,260.601 69.904,260.428 69.583 C 260.256 69.262,260.051 69.000,259.974 69.000 C 259.897 69.000,259.833 68.848,259.833 68.661 C 259.833 68.475,259.721 68.280,259.583 68.227 C 259.446 68.174,259.333 67.984,259.333 67.804 C 259.333 67.450,258.967 67.000,258.679 67.000 C 258.580 67.000,258.500 66.813,258.500 66.583 C 258.500 66.354,258.425 66.167,258.333 66.167 C 258.242 66.167,258.167 66.054,258.167 65.917 C 258.167 65.779,258.054 65.667,257.917 65.667 C 257.761 65.667,257.667 65.509,257.667 65.250 C 257.667 65.021,257.592 64.833,257.500 64.833 C 257.408 64.833,257.333 64.717,257.333 64.575 C 257.333 64.433,257.146 64.144,256.917 63.931 C 256.688 63.719,256.500 63.417,256.500 63.261 C 256.500 62.943,256.119 62.500,255.845 62.500 C 255.747 62.500,255.667 62.313,255.667 62.083 C 255.667 61.854,255.600 61.667,255.518 61.667 C 255.436 61.667,255.322 61.479,255.265 61.250 C 255.207 61.021,255.087 60.833,254.997 60.833 C 254.907 60.833,254.833 60.721,254.833 60.583 C 254.833 60.446,254.758 60.333,254.667 60.333 C 254.575 60.333,254.500 60.194,254.500 60.023 C 254.500 59.853,254.313 59.573,254.083 59.400 C 253.854 59.228,253.667 58.918,253.667 58.710 C 253.667 58.486,253.565 58.333,253.417 58.333 C 253.261 58.333,253.167 58.176,253.167 57.917 C 253.167 57.688,253.092 57.500,253.000 57.500 C 252.689 57.500,252.832 57.080,253.250 56.766 C 253.479 56.594,253.667 56.346,253.667 56.215 C 253.667 55.935,254.065 55.500,254.321 55.500 C 254.420 55.500,254.500 55.404,254.500 55.287 C 254.500 55.170,254.650 54.965,254.833 54.833 C 255.017 54.701,255.167 54.497,255.167 54.380 C 255.167 54.263,255.279 54.167,255.417 54.167 C 255.572 54.167,255.667 54.009,255.667 53.750 C 255.667 53.521,255.747 53.333,255.845 53.333 C 256.039 53.333,256.500 52.923,256.500 52.751 C 256.500 52.692,256.762 52.397,257.083 52.094 C 257.404 51.792,257.667 51.422,257.667 51.272 C 257.667 51.122,257.779 51.000,257.917 51.000 C 258.054 51.000,258.167 50.926,258.167 50.836 C 258.167 50.745,258.542 50.294,259.000 49.833 C 259.458 49.373,259.833 48.884,259.833 48.748 C 259.833 48.612,259.908 48.500,260.000 48.500 C 260.092 48.500,260.167 48.387,260.167 48.250 C 260.167 48.112,260.247 48.000,260.345 48.000 C 260.557 48.000,261.000 47.583,261.000 47.385 C 261.000 47.308,261.188 47.105,261.417 46.933 C 261.646 46.761,261.833 46.513,261.833 46.381 C 261.833 46.101,262.232 45.667,262.488 45.667 C 262.586 45.667,262.667 45.587,262.667 45.489 C 262.667 45.391,262.929 45.063,263.250 44.761 C 263.571 44.458,263.833 44.051,263.833 43.855 C 263.833 43.660,263.917 43.500,264.019 43.500 C 264.324 43.500,265.833 41.819,265.833 41.480 C 265.833 41.308,265.946 41.167,266.083 41.167 C 266.221 41.167,266.333 41.086,266.333 40.988 C 266.333 40.757,266.757 40.333,266.988 40.333 C 267.086 40.333,267.167 40.239,267.167 40.123 C 267.167 40.007,267.354 39.772,267.583 39.600 C 267.813 39.427,268.000 39.183,268.000 39.056 C 268.000 38.929,268.450 38.385,269.000 37.847 C 269.595 37.264,270.000 36.726,270.000 36.517 C 270.000 36.310,270.107 36.167,270.261 36.167 C 270.454 36.167,270.508 36.027,270.469 35.625 L 270.417 35.083 259.637 35.040 L 248.857 34.998 248.738 35.374 C 248.672 35.581,248.480 35.871,248.309 36.020 C 248.139 36.168,248.000 36.374,248.000 36.478 C 248.000 36.582,247.887 36.667,247.750 36.667 C 247.612 36.667,247.500 36.779,247.500 36.917 C 247.500 37.054,247.425 37.167,247.333 37.167 C 247.242 37.167,247.167 37.317,247.167 37.500 C 247.167 37.685,247.056 37.833,246.917 37.833 C 246.779 37.833,246.667 37.913,246.667 38.011 C 246.667 38.109,246.404 38.437,246.083 38.739 C 245.762 39.042,245.500 39.449,245.500 39.645 C 245.500 39.840,245.425 40.000,245.333 40.000 C 245.078 40.000,243.833 41.341,243.833 41.615 C 243.833 41.898,243.436 42.333,243.179 42.333 C 243.080 42.333,243.000 42.446,243.000 42.583 C 243.000 42.721,242.925 42.833,242.833 42.833 C 242.742 42.833,242.667 43.021,242.667 43.250 C 242.667 43.479,242.586 43.667,242.488 43.667 C 242.257 43.667,241.833 44.091,241.833 44.321 C 241.833 44.420,241.753 44.500,241.655 44.500 C 241.361 44.500,241.000 44.952,241.000 45.321 C 241.000 45.511,240.920 45.667,240.821 45.667 C 240.624 45.667,240.167 46.078,240.167 46.256 C 240.167 46.318,239.979 46.516,239.750 46.696 C 239.521 46.877,239.333 47.169,239.333 47.345 C 239.333 47.522,239.258 47.667,239.167 47.667 C 239.075 47.667,239.000 47.779,239.000 47.917 C 239.000 48.054,238.920 48.167,238.821 48.167 C 238.591 48.167,238.167 48.591,238.167 48.821 C 238.167 48.920,238.054 49.000,237.917 49.000 C 237.778 49.000,237.667 49.148,237.667 49.333 C 237.667 49.517,237.592 49.667,237.500 49.667 C 237.408 49.667,237.333 49.779,237.333 49.917 C 237.333 50.054,237.221 50.167,237.084 50.167 C 236.865 50.167,236.830 47.943,236.792 31.542 L 236.750 12.917 227.833 12.887 C 222.929 12.871,218.823 12.896,218.708 12.943 M279.894 13.083 C 279.826 13.258,279.553 13.333,278.982 13.333 C 278.534 13.333,278.167 13.408,278.167 13.500 C 278.167 13.592,277.983 13.667,277.758 13.667 C 277.533 13.667,277.161 13.854,276.932 14.083 C 276.703 14.313,276.362 14.500,276.174 14.500 C 275.982 14.500,275.833 14.609,275.833 14.750 C 275.833 14.887,275.753 15.000,275.655 15.000 C 275.424 15.000,275.000 15.424,275.000 15.655 C 275.000 15.753,274.920 15.833,274.821 15.833 C 274.591 15.833,274.167 16.257,274.167 16.488 C 274.167 16.586,274.081 16.667,273.977 16.667 C 273.745 16.667,273.346 17.169,273.339 17.470 C 273.336 17.591,273.221 17.803,273.083 17.940 C 272.946 18.078,272.833 18.373,272.833 18.595 C 272.833 18.818,272.758 19.000,272.667 19.000 C 272.562 19.000,272.500 20.139,272.500 22.083 C 272.500 24.028,272.562 25.167,272.667 25.167 C 272.758 25.167,272.833 25.354,272.833 25.583 C 272.833 25.843,272.928 26.000,273.083 26.000 C 273.239 26.000,273.333 26.157,273.333 26.417 C 273.333 26.646,273.408 26.833,273.500 26.833 C 273.592 26.833,273.667 26.953,273.667 27.098 C 273.667 27.489,275.920 29.667,276.325 29.667 C 276.513 29.667,276.667 29.742,276.667 29.833 C 276.667 29.925,276.809 30.000,276.982 30.000 C 277.156 30.000,277.341 30.113,277.394 30.250 C 277.446 30.387,277.637 30.500,277.818 30.500 C 277.999 30.500,278.193 30.575,278.250 30.667 C 278.307 30.758,278.799 30.833,279.343 30.833 C 280.112 30.833,280.333 30.889,280.333 31.083 C 280.333 31.292,280.667 31.333,282.333 31.333 C 284.000 31.333,284.333 31.292,284.333 31.083 C 284.333 30.889,284.556 30.833,285.333 30.833 C 285.889 30.833,286.333 30.759,286.333 30.667 C 286.333 30.575,286.521 30.500,286.750 30.500 C 287.009 30.500,287.167 30.406,287.167 30.250 C 287.167 30.094,287.324 30.000,287.583 30.000 C 287.813 30.000,288.000 29.925,288.000 29.833 C 288.000 29.742,288.156 29.667,288.346 29.667 C 288.698 29.667,290.000 28.491,290.000 28.173 C 290.000 28.078,290.080 28.000,290.179 28.000 C 290.401 28.000,290.833 27.579,290.833 27.363 C 290.833 27.275,290.946 27.159,291.083 27.106 C 291.221 27.054,291.333 26.858,291.333 26.672 C 291.333 26.486,291.408 26.333,291.500 26.333 C 291.592 26.333,291.667 26.154,291.667 25.934 C 291.667 25.715,291.779 25.492,291.917 25.440 C 292.097 25.370,292.167 25.088,292.167 24.422 C 292.167 23.915,292.242 23.500,292.333 23.500 C 292.431 23.500,292.500 22.917,292.500 22.083 C 292.500 21.250,292.431 20.667,292.333 20.667 C 292.242 20.667,292.167 20.252,292.167 19.745 C 292.167 19.079,292.097 18.796,291.917 18.727 C 291.779 18.674,291.667 18.452,291.667 18.232 C 291.667 18.013,291.592 17.833,291.500 17.833 C 291.408 17.833,291.333 17.694,291.333 17.523 C 291.333 17.353,291.146 17.073,290.917 16.900 C 290.688 16.728,290.500 16.493,290.500 16.377 C 290.500 16.261,290.387 16.167,290.250 16.167 C 290.107 16.167,290.000 16.017,290.000 15.818 C 290.000 15.609,289.866 15.434,289.667 15.382 C 289.483 15.334,289.333 15.228,289.333 15.147 C 289.333 15.066,289.221 15.000,289.083 15.000 C 288.946 15.000,288.833 14.887,288.833 14.750 C 288.833 14.612,288.721 14.500,288.583 14.500 C 288.446 14.500,288.333 14.425,288.333 14.333 C 288.333 14.242,288.191 14.167,288.018 14.167 C 287.844 14.167,287.659 14.054,287.606 13.917 C 287.546 13.760,287.291 13.667,286.922 13.667 C 286.598 13.667,286.333 13.592,286.333 13.500 C 286.333 13.408,286.103 13.333,285.821 13.333 C 285.540 13.333,285.197 13.221,285.060 13.083 C 284.860 12.884,284.320 12.833,282.400 12.833 C 280.411 12.833,279.973 12.877,279.894 13.083 M43.268 14.097 C 43.212 14.242,43.167 14.763,43.167 15.254 C 43.167 15.745,43.092 16.193,43.000 16.250 C 42.908 16.307,42.833 16.686,42.833 17.093 C 42.833 17.500,42.764 17.833,42.680 17.833 C 42.596 17.833,42.441 18.190,42.337 18.625 C 42.232 19.060,42.102 19.603,42.047 19.830 C 41.991 20.058,41.846 20.345,41.723 20.467 C 41.600 20.590,41.500 20.873,41.500 21.095 C 41.500 21.318,41.425 21.500,41.333 21.500 C 41.242 21.500,41.167 21.683,41.167 21.907 C 41.167 22.131,41.092 22.360,41.000 22.417 C 40.908 22.473,40.833 22.740,40.833 23.010 C 40.833 23.334,40.749 23.500,40.583 23.500 C 40.444 23.500,40.333 23.648,40.333 23.836 C 40.333 24.171,40.287 24.290,39.774 25.276 C 39.623 25.565,39.500 25.959,39.500 26.151 C 39.500 26.343,39.425 26.500,39.333 26.500 C 39.242 26.500,39.167 26.652,39.167 26.839 C 39.167 27.025,39.054 27.220,38.917 27.273 C 38.779 27.326,38.667 27.548,38.667 27.768 C 38.667 27.987,38.592 28.167,38.500 28.167 C 38.408 28.167,38.333 28.421,38.333 28.732 C 38.333 29.081,38.238 29.334,38.083 29.394 C 37.946 29.446,37.833 29.637,37.833 29.818 C 37.833 29.999,37.758 30.193,37.667 30.250 C 37.575 30.307,37.500 31.024,37.500 31.843 C 37.500 33.322,37.497 33.333,37.083 33.333 C 36.750 33.333,36.667 33.417,36.667 33.750 C 36.667 33.979,36.592 34.167,36.500 34.167 C 36.408 34.167,36.333 34.459,36.333 34.816 C 36.333 35.238,36.246 35.498,36.083 35.560 C 35.926 35.620,35.833 35.875,35.833 36.245 C 35.833 36.568,35.758 36.833,35.667 36.833 C 35.575 36.833,35.500 37.087,35.500 37.396 C 35.500 37.706,35.387 38.053,35.250 38.167 C 35.112 38.281,35.000 38.548,35.000 38.761 C 35.000 38.973,34.925 39.193,34.833 39.250 C 34.742 39.307,34.667 39.566,34.667 39.825 C 34.667 40.091,34.558 40.340,34.417 40.394 C 34.272 40.449,34.167 40.698,34.167 40.985 C 34.167 41.257,34.092 41.527,34.000 41.583 C 33.908 41.640,33.833 41.837,33.833 42.022 C 33.833 42.206,33.721 42.470,33.583 42.607 C 33.446 42.745,33.333 43.039,33.333 43.262 C 33.333 43.485,33.258 43.667,33.167 43.667 C 33.075 43.667,33.000 43.845,33.000 44.063 C 33.000 44.281,32.887 44.553,32.750 44.667 C 32.612 44.781,32.500 45.052,32.500 45.270 C 32.500 45.488,32.425 45.667,32.333 45.667 C 32.242 45.667,32.167 45.854,32.167 46.083 C 32.167 46.313,32.092 46.500,32.000 46.500 C 31.908 46.500,31.833 46.678,31.833 46.896 C 31.833 47.114,31.721 47.386,31.583 47.500 C 31.446 47.614,31.333 47.886,31.333 48.104 C 31.333 48.322,31.258 48.500,31.167 48.500 C 31.075 48.500,31.000 48.688,31.000 48.917 C 31.000 49.176,30.906 49.333,30.750 49.333 C 30.600 49.333,30.500 49.487,30.500 49.717 C 30.500 49.928,30.428 50.172,30.339 50.261 C 30.251 50.349,30.157 51.240,30.131 52.241 C 30.086 53.945,30.066 54.043,29.804 53.780 C 29.392 53.368,28.500 53.404,28.500 53.833 C 28.500 54.017,28.439 54.167,28.365 54.167 C 28.218 54.167,27.667 55.328,27.667 55.639 C 27.667 55.746,27.592 55.833,27.500 55.833 C 27.408 55.833,27.333 55.946,27.333 56.083 C 27.333 56.221,27.260 56.333,27.170 56.333 C 27.080 56.333,26.959 56.521,26.902 56.750 C 26.844 56.979,26.730 57.167,26.649 57.167 C 26.567 57.167,26.500 57.354,26.500 57.583 C 26.500 57.843,26.406 58.000,26.250 58.000 C 26.113 58.000,26.000 58.112,26.000 58.250 C 26.000 58.387,25.925 58.500,25.833 58.500 C 25.742 58.500,25.667 58.642,25.667 58.816 C 25.667 58.989,25.554 59.174,25.417 59.227 C 25.279 59.280,25.167 59.441,25.167 59.585 C 25.167 59.730,24.979 60.050,24.750 60.297 C 24.521 60.544,24.333 60.841,24.333 60.957 C 24.333 61.072,24.258 61.167,24.167 61.167 C 24.075 61.167,24.000 61.320,24.000 61.508 C 24.000 61.696,23.813 62.023,23.583 62.235 C 23.354 62.448,23.167 62.710,23.167 62.819 C 23.167 62.927,22.979 63.190,22.750 63.402 C 22.521 63.614,22.333 63.914,22.333 64.068 C 22.333 64.222,22.146 64.550,21.917 64.797 C 21.688 65.044,21.500 65.341,21.500 65.457 C 21.500 65.572,21.425 65.667,21.333 65.667 C 21.242 65.667,21.167 65.854,21.167 66.083 C 21.167 66.313,21.073 66.501,20.958 66.501 C 20.743 66.503,20.333 67.234,20.333 67.617 C 20.333 67.736,20.269 67.833,20.189 67.833 C 20.024 67.833,19.500 69.126,19.500 69.533 C 19.500 69.683,19.417 69.833,19.316 69.867 C 19.103 69.938,18.673 71.087,18.669 71.593 C 18.668 71.782,18.557 72.082,18.422 72.260 C 18.287 72.438,18.175 72.865,18.172 73.208 C 18.169 73.552,18.092 73.833,18.000 73.833 C 17.901 73.833,17.833 74.469,17.833 75.407 C 17.833 76.276,17.759 77.026,17.667 77.083 C 17.450 77.217,17.450 78.384,17.667 78.600 C 17.848 78.781,17.527 79.663,17.280 79.665 C 17.082 79.667,16.667 80.112,16.667 80.321 C 16.667 80.420,16.586 80.500,16.488 80.500 C 16.257 80.500,15.833 80.924,15.833 81.155 C 15.833 81.253,15.755 81.333,15.659 81.333 C 15.431 81.333,13.000 83.764,13.000 83.992 C 13.000 84.088,12.920 84.167,12.821 84.167 C 12.591 84.167,12.167 84.591,12.167 84.821 C 12.167 84.920,12.086 85.000,11.988 85.000 C 11.757 85.000,11.333 85.424,11.333 85.655 C 11.333 85.753,11.257 85.833,11.163 85.833 C 10.713 85.833,9.144 87.657,9.197 88.118 C 9.260 88.669,10.248 88.916,10.436 88.427 C 10.491 88.284,10.678 88.167,10.851 88.167 C 11.025 88.167,11.167 88.092,11.167 88.000 C 11.167 87.908,11.279 87.833,11.417 87.833 C 11.554 87.833,11.667 87.735,11.667 87.614 C 11.667 87.494,11.929 87.293,12.250 87.167 C 12.571 87.041,12.833 86.839,12.833 86.719 C 12.833 86.599,12.946 86.500,13.083 86.500 C 13.221 86.500,13.333 86.425,13.333 86.333 C 13.333 86.242,13.458 86.167,13.611 86.167 C 13.764 86.167,13.839 86.117,13.777 86.055 C 13.631 85.908,14.156 85.333,14.437 85.333 C 14.563 85.333,14.616 85.227,14.560 85.083 C 14.508 84.946,14.551 84.833,14.657 84.833 C 14.897 84.833,16.500 83.246,16.500 83.008 C 16.500 82.912,16.580 82.833,16.679 82.833 C 16.909 82.833,17.333 82.409,17.333 82.179 C 17.333 82.080,17.414 82.000,17.512 82.000 C 17.743 82.000,18.167 81.576,18.167 81.345 C 18.167 81.247,18.247 81.167,18.345 81.167 C 18.576 81.167,19.000 80.743,19.000 80.512 C 19.000 80.414,19.082 80.333,19.183 80.333 C 19.284 80.333,19.566 80.120,19.810 79.859 C 20.144 79.501,20.335 79.416,20.585 79.514 C 21.092 79.712,21.454 79.689,21.699 79.444 C 21.911 79.232,22.306 79.102,23.388 78.886 C 23.648 78.834,23.899 78.689,23.948 78.562 C 23.996 78.436,24.248 78.333,24.508 78.333 C 24.768 78.333,25.027 78.258,25.083 78.167 C 25.140 78.075,25.369 78.000,25.593 78.000 C 25.844 78.000,26.000 77.904,26.000 77.750 C 26.000 77.594,26.157 77.500,26.417 77.500 C 26.646 77.500,26.833 77.425,26.833 77.333 C 26.833 77.242,27.021 77.167,27.250 77.167 C 27.509 77.167,27.667 77.072,27.667 76.917 C 27.667 76.761,27.824 76.667,28.083 76.667 C 28.313 76.667,28.500 76.592,28.500 76.500 C 28.500 76.408,28.615 76.333,28.755 76.333 C 28.896 76.333,29.054 76.221,29.106 76.083 C 29.159 75.946,29.307 75.833,29.434 75.833 C 29.562 75.833,29.667 75.758,29.667 75.667 C 29.667 75.575,29.768 75.500,29.892 75.500 C 30.016 75.500,30.320 75.313,30.568 75.083 C 30.815 74.854,31.056 74.667,31.104 74.667 C 31.261 74.667,31.667 74.194,31.667 74.012 C 31.667 73.914,31.747 73.833,31.845 73.833 C 32.193 73.833,32.500 73.350,32.500 72.803 C 32.500 72.336,32.586 72.211,33.042 72.015 C 33.638 71.759,34.167 71.281,34.167 70.999 C 34.167 70.899,34.354 70.644,34.583 70.431 C 34.812 70.219,35.000 69.903,35.000 69.729 C 35.000 69.555,35.188 69.272,35.417 69.100 C 35.646 68.927,35.833 68.647,35.833 68.477 C 35.833 68.306,35.908 68.167,36.000 68.167 C 36.092 68.167,36.167 68.062,36.167 67.934 C 36.167 67.807,36.279 67.659,36.417 67.606 C 36.554 67.554,36.667 67.358,36.667 67.172 C 36.667 66.986,36.742 66.833,36.833 66.833 C 36.925 66.833,37.000 66.717,37.000 66.575 C 37.000 66.433,37.188 66.144,37.417 65.931 C 37.646 65.719,37.833 65.385,37.833 65.189 C 37.833 64.984,37.939 64.833,38.083 64.833 C 38.239 64.833,38.333 64.676,38.333 64.417 C 38.333 64.188,38.408 64.000,38.500 64.000 C 38.592 64.000,38.667 63.887,38.667 63.750 C 38.667 63.612,38.723 63.500,38.792 63.499 C 38.954 63.498,39.500 62.538,39.500 62.254 C 39.500 62.134,39.612 61.992,39.750 61.940 C 39.887 61.887,40.000 61.691,40.000 61.505 C 40.000 61.319,40.075 61.167,40.167 61.167 C 40.258 61.167,40.333 60.979,40.333 60.750 C 40.333 60.521,40.408 60.333,40.500 60.333 C 40.592 60.333,40.667 60.221,40.667 60.083 C 40.667 59.946,40.723 59.833,40.792 59.832 C 41.004 59.830,41.500 58.829,41.500 58.403 C 41.500 58.054,41.423 58.000,40.917 58.000 C 40.596 58.000,40.333 58.075,40.333 58.167 C 40.333 58.258,40.258 58.333,40.167 58.333 C 40.075 58.333,40.000 58.221,40.000 58.083 C 40.000 57.944,40.148 57.833,40.333 57.833 C 40.517 57.833,40.667 57.758,40.667 57.667 C 40.667 57.575,40.820 57.500,41.008 57.500 C 41.413 57.500,42.833 56.153,42.833 55.768 C 42.833 55.621,42.908 55.500,43.000 55.500 C 43.092 55.500,43.167 55.321,43.167 55.101 C 43.167 54.882,43.279 54.659,43.417 54.606 C 43.554 54.554,43.667 54.358,43.667 54.172 C 43.667 53.986,43.742 53.833,43.833 53.833 C 43.925 53.833,44.000 53.689,44.000 53.514 C 44.000 53.338,44.125 52.944,44.278 52.639 C 44.785 51.627,44.833 51.507,44.833 51.252 C 44.833 51.114,44.908 51.000,45.000 51.000 C 45.092 51.000,45.167 50.784,45.167 50.520 C 45.167 50.257,45.279 49.947,45.417 49.833 C 45.554 49.719,45.667 49.448,45.667 49.230 C 45.667 49.012,45.742 48.833,45.833 48.833 C 45.925 48.833,46.000 48.571,46.000 48.250 C 46.000 47.843,46.075 47.667,46.250 47.667 C 46.404 47.667,46.500 47.510,46.500 47.260 C 46.500 47.036,46.575 46.807,46.667 46.750 C 46.758 46.693,46.833 46.434,46.833 46.175 C 46.833 45.909,46.942 45.660,47.083 45.606 C 47.240 45.546,47.333 45.291,47.333 44.922 C 47.333 44.598,47.408 44.333,47.500 44.333 C 47.592 44.333,47.667 44.028,47.667 43.655 C 47.667 43.274,47.776 42.867,47.917 42.726 C 48.077 42.565,48.167 42.153,48.167 41.571 C 48.167 41.074,48.242 40.667,48.333 40.667 C 48.441 40.667,48.500 38.753,48.500 35.260 C 48.500 31.835,48.439 29.815,48.333 29.750 C 48.242 29.693,48.166 29.183,48.166 28.615 C 48.165 28.026,48.058 27.379,47.916 27.106 C 47.779 26.843,47.667 26.225,47.667 25.731 C 47.667 25.237,47.592 24.833,47.500 24.833 C 47.408 24.833,47.333 24.493,47.333 24.078 C 47.333 23.561,47.255 23.293,47.083 23.227 C 46.908 23.160,46.833 22.887,46.833 22.316 C 46.833 21.867,46.758 21.500,46.667 21.500 C 46.575 21.500,46.500 21.209,46.500 20.854 C 46.500 20.483,46.394 20.119,46.250 20.000 C 46.112 19.886,46.000 19.539,46.000 19.230 C 46.000 18.920,45.925 18.667,45.833 18.667 C 45.742 18.667,45.667 18.410,45.667 18.095 C 45.667 17.781,45.554 17.411,45.417 17.274 C 45.279 17.136,45.167 16.798,45.167 16.522 C 45.167 16.246,45.092 15.973,45.000 15.917 C 44.908 15.860,44.833 15.656,44.833 15.463 C 44.833 14.306,43.600 13.230,43.268 14.097 M77.667 52.583 L 77.667 88.167 101.583 88.167 L 125.500 88.167 125.500 80.583 L 125.500 73.000 111.000 73.000 L 96.500 73.000 96.500 45.000 L 96.500 17.000 87.083 17.000 L 77.667 17.000 77.667 52.583 M351.500 28.496 L 351.500 34.992 348.458 35.038 L 345.417 35.083 345.373 41.792 L 345.330 48.500 348.415 48.500 L 351.500 48.500 351.500 61.583 C 351.500 73.102,351.530 74.667,351.750 74.667 C 351.956 74.667,352.000 74.963,352.000 76.333 C 352.000 77.333,352.067 78.000,352.167 78.000 C 352.258 78.000,352.333 78.333,352.333 78.740 C 352.333 79.147,352.408 79.527,352.500 79.583 C 352.592 79.640,352.667 79.909,352.667 80.182 C 352.667 80.468,352.772 80.718,352.917 80.773 C 353.054 80.826,353.167 81.048,353.167 81.268 C 353.167 81.487,353.242 81.667,353.333 81.667 C 353.425 81.667,353.500 81.854,353.500 82.083 C 353.500 82.343,353.594 82.500,353.750 82.500 C 353.889 82.500,354.000 82.648,354.000 82.833 C 354.000 83.017,354.075 83.167,354.167 83.167 C 354.258 83.167,354.333 83.279,354.333 83.417 C 354.333 83.554,354.446 83.667,354.583 83.667 C 354.721 83.667,354.833 83.779,354.833 83.917 C 354.833 84.054,354.908 84.167,355.000 84.167 C 355.092 84.167,355.167 84.317,355.167 84.500 C 355.167 84.685,355.278 84.833,355.417 84.833 C 355.554 84.833,355.667 84.914,355.667 85.012 C 355.667 85.306,356.119 85.667,356.488 85.667 C 356.678 85.667,356.833 85.747,356.833 85.845 C 356.833 86.068,357.254 86.500,357.470 86.500 C 357.559 86.500,357.674 86.612,357.727 86.750 C 357.780 86.888,357.975 87.000,358.161 87.000 C 358.348 87.000,358.500 87.075,358.500 87.167 C 358.500 87.258,358.679 87.333,358.899 87.333 C 359.118 87.333,359.341 87.446,359.394 87.583 C 359.446 87.721,359.642 87.833,359.828 87.833 C 360.014 87.833,360.167 87.908,360.167 88.000 C 360.167 88.092,360.397 88.167,360.679 88.167 C 360.960 88.167,361.303 88.279,361.440 88.417 C 361.578 88.554,361.985 88.667,362.345 88.667 C 362.705 88.667,363.000 88.742,363.000 88.833 C 363.000 88.931,363.583 89.000,364.417 89.000 C 365.250 89.000,365.833 89.069,365.833 89.167 C 365.833 89.272,367.111 89.333,369.333 89.333 C 371.556 89.333,372.833 89.272,372.833 89.167 C 372.833 89.069,373.417 89.000,374.250 89.000 C 375.083 89.000,375.667 88.931,375.667 88.833 C 375.667 88.742,376.007 88.667,376.422 88.667 C 376.939 88.667,377.207 88.588,377.273 88.417 C 377.336 88.254,377.595 88.167,378.016 88.167 C 379.387 88.167,379.333 88.459,379.333 80.963 L 379.333 74.333 375.833 74.333 C 372.833 74.333,372.333 74.298,372.333 74.083 C 372.333 73.928,372.176 73.833,371.917 73.833 C 371.688 73.833,371.500 73.758,371.500 73.667 C 371.500 73.575,371.313 73.500,371.083 73.500 C 370.750 73.500,370.667 73.417,370.667 73.083 C 370.667 72.854,370.592 72.667,370.500 72.667 C 370.408 72.667,370.333 72.479,370.333 72.250 C 370.333 71.991,370.239 71.833,370.083 71.833 C 369.863 71.833,369.833 70.426,369.833 60.167 L 369.833 48.500 374.002 48.500 L 378.170 48.500 378.127 41.792 L 378.083 35.083 373.958 35.039 L 369.833 34.994 369.833 28.497 L 369.833 22.000 360.667 22.000 L 351.500 22.000 351.500 28.496 M147.167 34.417 C 147.167 34.619,146.898 34.667,145.750 34.667 C 144.917 34.667,144.333 34.735,144.333 34.833 C 144.333 34.925,143.993 35.000,143.578 35.000 C 143.061 35.000,142.793 35.079,142.727 35.250 C 142.668 35.404,142.414 35.500,142.066 35.500 C 141.754 35.500,141.500 35.575,141.500 35.667 C 141.500 35.758,141.237 35.833,140.917 35.833 C 140.596 35.833,140.333 35.908,140.333 36.000 C 140.333 36.092,140.114 36.167,139.845 36.167 C 139.577 36.167,139.245 36.279,139.107 36.417 C 138.970 36.554,138.702 36.667,138.512 36.667 C 138.322 36.667,138.167 36.742,138.167 36.833 C 138.167 36.925,138.014 37.000,137.828 37.000 C 137.642 37.000,137.446 37.112,137.394 37.250 C 137.341 37.387,137.156 37.500,136.982 37.500 C 136.809 37.500,136.667 37.575,136.667 37.667 C 136.667 37.758,136.554 37.833,136.417 37.833 C 136.279 37.833,136.167 37.946,136.167 38.083 C 136.167 38.225,136.017 38.333,135.821 38.333 C 135.452 38.333,135.000 38.694,135.000 38.988 C 135.000 39.086,134.813 39.167,134.583 39.167 C 134.354 39.167,134.167 39.242,134.167 39.333 C 134.167 39.425,134.054 39.500,133.917 39.500 C 133.779 39.500,133.667 39.580,133.667 39.679 C 133.667 39.909,133.243 40.333,133.012 40.333 C 132.914 40.333,132.833 40.397,132.833 40.474 C 132.833 40.552,132.571 40.886,132.250 41.216 C 131.929 41.547,131.667 41.933,131.667 42.075 C 131.667 42.217,131.554 42.333,131.417 42.333 C 131.279 42.333,131.167 42.429,131.167 42.547 C 131.167 42.664,131.017 42.868,130.833 43.000 C 130.650 43.132,130.500 43.411,130.500 43.620 C 130.500 43.847,130.399 44.000,130.250 44.000 C 130.094 44.000,130.000 44.157,130.000 44.417 C 130.000 44.646,129.925 44.833,129.833 44.833 C 129.742 44.833,129.667 45.013,129.667 45.232 C 129.667 45.452,129.554 45.674,129.417 45.727 C 129.272 45.782,129.167 46.032,129.167 46.318 C 129.167 46.591,129.092 46.860,129.000 46.917 C 128.908 46.973,128.833 47.345,128.833 47.742 C 128.833 48.230,128.752 48.495,128.583 48.560 C 128.381 48.638,128.333 49.023,128.333 50.578 L 128.333 52.500 137.333 52.500 L 146.333 52.500 146.333 51.934 C 146.333 51.586,146.429 51.332,146.583 51.273 C 146.755 51.207,146.833 50.939,146.833 50.422 C 146.833 50.007,146.908 49.667,147.000 49.667 C 147.092 49.667,147.167 49.479,147.167 49.250 C 147.167 49.021,147.247 48.833,147.345 48.833 C 147.576 48.833,148.000 48.409,148.000 48.179 C 148.000 48.080,148.188 48.000,148.417 48.000 C 148.646 48.000,148.833 47.925,148.833 47.833 C 148.833 47.730,149.694 47.667,151.083 47.667 C 152.472 47.667,153.333 47.730,153.333 47.833 C 153.333 47.925,153.521 48.000,153.750 48.000 C 153.979 48.000,154.167 48.080,154.167 48.179 C 154.167 48.409,154.591 48.833,154.821 48.833 C 154.920 48.833,155.000 48.946,155.000 49.083 C 155.000 49.221,155.074 49.333,155.163 49.333 C 155.253 49.333,155.374 49.521,155.432 49.750 C 155.489 49.979,155.603 50.167,155.685 50.167 C 155.766 50.167,155.833 50.354,155.833 50.583 C 155.833 50.813,155.908 51.000,156.000 51.000 C 156.103 51.000,156.167 51.861,156.167 53.250 L 156.167 55.500 151.917 55.500 C 149.194 55.500,147.667 55.560,147.667 55.667 C 147.667 55.768,146.944 55.833,145.833 55.833 C 144.315 55.833,144.000 55.876,144.000 56.083 C 144.000 56.283,143.750 56.333,142.750 56.333 C 142.028 56.333,141.500 56.404,141.500 56.500 C 141.500 56.592,141.160 56.667,140.745 56.667 C 140.227 56.667,139.959 56.745,139.894 56.917 C 139.834 57.071,139.581 57.167,139.232 57.167 C 138.921 57.167,138.667 57.242,138.667 57.333 C 138.667 57.425,138.402 57.500,138.078 57.500 C 137.709 57.500,137.454 57.593,137.394 57.750 C 137.341 57.887,137.118 58.000,136.899 58.000 C 136.679 58.000,136.500 58.075,136.500 58.167 C 136.500 58.258,136.313 58.333,136.083 58.333 C 135.854 58.333,135.667 58.408,135.667 58.500 C 135.667 58.592,135.517 58.667,135.333 58.667 C 135.148 58.667,135.000 58.778,135.000 58.917 C 135.000 59.072,134.843 59.167,134.583 59.167 C 134.354 59.167,134.167 59.242,134.167 59.333 C 134.167 59.425,134.054 59.500,133.917 59.500 C 133.779 59.500,133.667 59.612,133.667 59.750 C 133.667 59.892,133.517 60.000,133.321 60.000 C 132.952 60.000,132.500 60.361,132.500 60.655 C 132.500 60.753,132.420 60.833,132.321 60.833 C 132.091 60.833,131.667 61.257,131.667 61.488 C 131.667 61.586,131.586 61.667,131.488 61.667 C 131.294 61.667,130.833 62.077,130.833 62.250 C 130.833 62.423,130.373 62.833,130.179 62.833 C 130.080 62.833,130.000 62.946,130.000 63.083 C 130.000 63.221,129.925 63.333,129.833 63.333 C 129.742 63.333,129.667 63.449,129.667 63.591 C 129.667 63.733,129.479 64.023,129.250 64.235 C 129.021 64.448,128.833 64.774,128.833 64.960 C 128.833 65.146,128.721 65.341,128.583 65.394 C 128.437 65.450,128.333 65.699,128.333 65.995 C 128.333 66.273,128.258 66.500,128.167 66.500 C 128.075 66.500,128.000 66.754,128.000 67.066 C 128.000 67.414,127.904 67.668,127.750 67.727 C 127.579 67.793,127.500 68.061,127.500 68.578 C 127.500 68.993,127.425 69.333,127.333 69.333 C 127.227 69.333,127.167 70.667,127.167 73.000 C 127.167 75.333,127.227 76.667,127.333 76.667 C 127.425 76.667,127.500 76.961,127.500 77.321 C 127.500 77.682,127.612 78.089,127.750 78.226 C 127.888 78.364,128.000 78.632,128.000 78.821 C 128.000 79.011,128.075 79.167,128.167 79.167 C 128.258 79.167,128.333 79.394,128.333 79.672 C 128.333 79.967,128.437 80.217,128.583 80.273 C 128.721 80.326,128.833 80.473,128.833 80.601 C 128.833 80.729,128.908 80.833,129.000 80.833 C 129.092 80.833,129.167 81.021,129.167 81.250 C 129.167 81.479,129.247 81.667,129.345 81.667 C 129.639 81.667,130.000 82.119,130.000 82.488 C 130.000 82.684,130.108 82.833,130.250 82.833 C 130.387 82.833,130.500 82.912,130.500 83.008 C 130.500 83.235,132.098 84.833,132.325 84.833 C 132.421 84.833,132.500 84.919,132.500 85.023 C 132.500 85.279,133.015 85.655,133.375 85.661 C 133.535 85.664,133.667 85.779,133.667 85.917 C 133.667 86.054,133.779 86.167,133.917 86.167 C 134.054 86.167,134.167 86.242,134.167 86.333 C 134.167 86.425,134.354 86.500,134.583 86.500 C 134.843 86.500,135.000 86.594,135.000 86.750 C 135.000 86.889,135.148 87.000,135.333 87.000 C 135.517 87.000,135.667 87.075,135.667 87.167 C 135.667 87.258,135.846 87.333,136.066 87.333 C 136.285 87.333,136.508 87.446,136.560 87.583 C 136.613 87.721,136.809 87.833,136.995 87.833 C 137.181 87.833,137.333 87.908,137.333 88.000 C 137.333 88.092,137.633 88.167,138.000 88.167 C 138.481 88.167,138.667 88.236,138.667 88.417 C 138.667 88.590,138.841 88.667,139.240 88.667 C 139.556 88.667,139.860 88.742,139.917 88.833 C 139.973 88.925,140.540 89.000,141.177 89.000 C 141.837 89.000,142.333 89.072,142.333 89.167 C 142.333 89.272,143.444 89.333,145.333 89.333 C 147.222 89.333,148.333 89.272,148.333 89.167 C 148.333 89.070,148.861 89.000,149.583 89.000 C 150.306 89.000,150.833 88.930,150.833 88.833 C 150.833 88.742,151.088 88.667,151.399 88.667 C 151.748 88.667,152.001 88.571,152.060 88.417 C 152.113 88.279,152.346 88.167,152.578 88.167 C 152.810 88.167,153.000 88.092,153.000 88.000 C 153.000 87.908,153.150 87.833,153.333 87.833 C 153.519 87.833,153.667 87.722,153.667 87.583 C 153.667 87.428,153.824 87.333,154.083 87.333 C 154.313 87.333,154.500 87.258,154.500 87.167 C 154.500 87.075,154.612 87.000,154.750 87.000 C 154.887 87.000,155.000 86.888,155.000 86.750 C 155.000 86.612,155.131 86.498,155.292 86.495 C 155.652 86.488,156.167 86.113,156.167 85.857 C 156.167 85.752,156.247 85.667,156.345 85.667 C 156.576 85.667,157.000 85.243,157.000 85.012 C 157.000 84.914,157.112 84.833,157.250 84.833 C 157.387 84.833,157.500 84.946,157.500 85.083 C 157.500 85.221,157.575 85.333,157.667 85.333 C 157.758 85.333,157.833 85.596,157.833 85.917 C 157.833 86.324,157.909 86.500,158.083 86.500 C 158.259 86.500,158.333 86.677,158.333 87.095 C 158.333 88.219,157.872 88.167,167.738 88.167 L 176.667 88.167 176.667 87.167 C 176.667 86.611,176.593 86.167,176.500 86.167 C 176.408 86.167,176.333 85.939,176.333 85.661 C 176.333 85.366,176.229 85.116,176.083 85.060 C 175.930 85.002,175.833 84.749,175.833 84.409 C 175.833 84.103,175.758 83.807,175.667 83.750 C 175.575 83.693,175.500 83.389,175.500 83.073 C 175.500 82.675,175.424 82.500,175.250 82.500 C 175.047 82.500,175.000 82.231,175.000 81.083 C 175.000 80.250,174.931 79.667,174.833 79.667 C 174.723 79.667,174.667 74.639,174.667 64.917 C 174.667 51.917,174.637 50.167,174.417 50.167 C 174.222 50.167,174.167 49.944,174.167 49.167 C 174.167 48.611,174.093 48.167,174.000 48.167 C 173.908 48.167,173.833 47.792,173.833 47.333 C 173.833 46.704,173.772 46.500,173.583 46.500 C 173.409 46.500,173.333 46.324,173.333 45.917 C 173.333 45.596,173.258 45.333,173.167 45.333 C 173.075 45.333,173.000 45.146,173.000 44.917 C 173.000 44.657,172.906 44.500,172.750 44.500 C 172.594 44.500,172.500 44.343,172.500 44.083 C 172.500 43.854,172.425 43.667,172.333 43.667 C 172.242 43.667,172.167 43.554,172.167 43.417 C 172.167 43.279,172.092 43.167,172.000 43.167 C 171.908 43.167,171.833 43.043,171.833 42.891 C 171.833 42.739,171.533 42.330,171.167 41.981 C 170.800 41.632,170.500 41.264,170.500 41.162 C 170.500 40.832,168.701 39.167,168.344 39.167 C 168.155 39.167,168.000 39.086,168.000 38.988 C 168.000 38.766,167.579 38.333,167.363 38.333 C 167.275 38.333,167.159 38.221,167.106 38.083 C 167.054 37.946,166.896 37.833,166.755 37.833 C 166.615 37.833,166.500 37.758,166.500 37.667 C 166.500 37.575,166.346 37.500,166.159 37.500 C 165.971 37.500,165.644 37.313,165.431 37.083 C 165.178 36.810,164.866 36.667,164.523 36.667 C 164.169 36.667,164.000 36.586,164.000 36.417 C 164.000 36.261,163.843 36.167,163.583 36.167 C 163.354 36.167,163.167 36.092,163.167 36.000 C 163.167 35.908,162.904 35.833,162.583 35.833 C 162.262 35.833,162.000 35.758,162.000 35.667 C 162.000 35.575,161.700 35.500,161.333 35.500 C 160.852 35.500,160.667 35.431,160.667 35.250 C 160.667 35.061,160.463 35.000,159.833 35.000 C 159.375 35.000,159.000 34.925,159.000 34.833 C 159.000 34.738,158.506 34.667,157.851 34.667 C 156.984 34.667,156.679 34.605,156.606 34.417 C 156.524 34.203,155.838 34.167,151.839 34.167 C 147.797 34.167,147.167 34.200,147.167 34.417 M207.060 34.417 C 207.001 34.571,206.748 34.667,206.399 34.667 C 206.088 34.667,205.833 34.742,205.833 34.833 C 205.833 34.925,205.581 35.000,205.273 35.000 C 204.871 35.000,204.626 35.117,204.400 35.417 C 204.228 35.646,203.918 35.833,203.710 35.833 C 203.503 35.833,203.333 35.908,203.333 36.000 C 203.333 36.092,203.217 36.167,203.075 36.167 C 202.934 36.167,202.442 36.542,201.984 37.000 C 201.526 37.458,201.079 37.833,200.992 37.833 C 200.905 37.833,200.833 37.928,200.833 38.044 C 200.833 38.160,200.646 38.395,200.417 38.567 C 200.188 38.739,200.000 39.020,200.000 39.190 C 200.000 39.361,199.925 39.500,199.833 39.500 C 199.742 39.500,199.667 39.612,199.667 39.750 C 199.667 39.887,199.554 40.000,199.417 40.000 C 199.279 40.000,199.167 40.075,199.167 40.167 C 199.167 40.258,199.092 40.333,199.000 40.333 C 198.904 40.333,198.833 39.810,198.833 39.095 C 198.833 38.217,198.761 37.784,198.583 37.607 C 198.408 37.432,198.333 37.004,198.333 36.177 L 198.333 34.997 189.792 35.040 L 181.250 35.083 181.208 61.625 L 181.166 88.167 190.416 88.167 L 199.667 88.167 199.667 72.076 C 199.667 56.216,199.671 55.981,200.000 55.628 C 200.183 55.431,200.333 55.135,200.333 54.969 C 200.333 54.776,200.456 54.667,200.672 54.667 C 200.858 54.667,201.054 54.554,201.106 54.417 C 201.159 54.279,201.275 54.167,201.363 54.167 C 201.579 54.167,202.000 53.734,202.000 53.512 C 202.000 53.414,202.188 53.333,202.417 53.333 C 202.646 53.333,202.833 53.258,202.833 53.167 C 202.833 53.075,203.098 53.000,203.422 53.000 C 203.791 53.000,204.046 52.907,204.106 52.750 C 204.177 52.567,204.465 52.500,205.184 52.500 C 205.728 52.500,206.167 52.426,206.167 52.333 C 206.167 52.229,207.222 52.167,209.000 52.167 C 210.778 52.167,211.833 52.229,211.833 52.333 C 211.833 52.431,212.417 52.500,213.250 52.500 L 214.667 52.500 214.667 45.601 C 214.667 39.623,214.700 38.690,214.917 38.606 C 215.119 38.529,215.167 38.143,215.167 36.589 L 215.167 34.667 214.333 34.667 C 213.704 34.667,213.500 34.606,213.500 34.417 C 213.500 34.203,213.036 34.167,210.328 34.167 C 207.662 34.167,207.141 34.207,207.060 34.417 M315.500 34.417 C 315.500 34.617,315.250 34.667,314.250 34.667 C 313.528 34.667,313.000 34.737,313.000 34.833 C 313.000 34.925,312.625 35.000,312.167 35.000 C 311.537 35.000,311.333 35.061,311.333 35.250 C 311.333 35.435,311.139 35.500,310.583 35.500 C 310.171 35.500,309.833 35.575,309.833 35.667 C 309.833 35.758,309.646 35.833,309.417 35.833 C 309.188 35.833,309.000 35.908,309.000 36.000 C 309.000 36.092,308.843 36.167,308.651 36.167 C 308.459 36.167,308.102 36.270,307.859 36.396 C 307.616 36.523,307.210 36.723,306.958 36.841 C 306.706 36.960,306.500 37.156,306.500 37.278 C 306.500 37.404,306.319 37.500,306.083 37.500 C 305.854 37.500,305.667 37.575,305.667 37.667 C 305.667 37.758,305.527 37.833,305.357 37.833 C 305.186 37.833,304.906 38.021,304.734 38.250 C 304.562 38.479,304.326 38.667,304.210 38.667 C 304.095 38.667,304.000 38.779,304.000 38.917 C 304.000 39.058,303.851 39.167,303.655 39.167 C 303.286 39.167,302.833 39.527,302.833 39.821 C 302.833 39.920,302.755 40.000,302.660 40.000 C 302.473 40.000,301.167 41.238,301.167 41.416 C 301.167 41.475,301.073 41.628,300.958 41.756 C 300.464 42.308,300.333 42.496,300.333 42.660 C 300.333 42.755,300.258 42.833,300.167 42.833 C 300.075 42.833,300.000 43.021,300.000 43.250 C 300.000 43.509,299.906 43.667,299.750 43.667 C 299.594 43.667,299.500 43.824,299.500 44.083 C 299.500 44.313,299.425 44.500,299.333 44.500 C 299.242 44.500,299.167 44.642,299.167 44.816 C 299.167 44.989,299.054 45.174,298.917 45.227 C 298.760 45.287,298.667 45.542,298.667 45.911 C 298.667 46.235,298.592 46.500,298.500 46.500 C 298.408 46.500,298.333 46.754,298.333 47.066 C 298.333 47.414,298.238 47.668,298.083 47.727 C 297.872 47.808,297.833 48.375,297.833 51.411 C 297.833 54.490,297.869 55.000,298.083 55.000 C 298.272 55.000,298.333 55.204,298.333 55.833 C 298.333 56.292,298.408 56.667,298.500 56.667 C 298.592 56.667,298.667 56.854,298.667 57.083 C 298.667 57.343,298.761 57.500,298.917 57.500 C 299.072 57.500,299.167 57.657,299.167 57.917 C 299.167 58.146,299.242 58.333,299.333 58.333 C 299.425 58.333,299.500 58.521,299.500 58.750 C 299.500 59.009,299.594 59.167,299.750 59.167 C 299.887 59.167,300.000 59.311,300.000 59.488 C 300.000 59.827,302.335 62.333,302.650 62.333 C 302.751 62.333,302.833 62.446,302.833 62.583 C 302.833 62.725,302.983 62.833,303.179 62.833 C 303.548 62.833,304.000 63.194,304.000 63.488 C 304.000 63.586,304.112 63.667,304.250 63.667 C 304.387 63.667,304.500 63.742,304.500 63.833 C 304.500 63.925,304.642 64.000,304.816 64.000 C 304.989 64.000,305.174 64.112,305.227 64.250 C 305.280 64.387,305.475 64.500,305.661 64.500 C 305.848 64.500,306.000 64.575,306.000 64.667 C 306.000 64.758,306.112 64.833,306.250 64.833 C 306.387 64.833,306.500 64.907,306.500 64.997 C 306.500 65.087,306.688 65.207,306.917 65.265 C 307.146 65.322,307.333 65.436,307.333 65.518 C 307.333 65.600,307.596 65.667,307.917 65.667 C 308.324 65.667,308.500 65.742,308.500 65.917 C 308.500 66.072,308.657 66.167,308.917 66.167 C 309.146 66.167,309.333 66.242,309.333 66.333 C 309.333 66.425,309.521 66.500,309.750 66.500 C 309.979 66.500,310.167 66.575,310.167 66.667 C 310.167 66.758,310.421 66.833,310.732 66.833 C 311.081 66.833,311.334 66.929,311.394 67.083 C 311.454 67.240,311.709 67.333,312.078 67.333 C 312.402 67.333,312.667 67.408,312.667 67.500 C 312.667 67.592,313.042 67.667,313.500 67.667 C 314.130 67.667,314.333 67.728,314.333 67.917 C 314.333 68.102,314.528 68.167,315.083 68.167 C 315.496 68.167,315.833 68.242,315.833 68.333 C 315.833 68.427,316.306 68.500,316.917 68.500 C 317.769 68.500,318.000 68.553,318.000 68.750 C 318.000 68.935,318.193 69.000,318.740 69.000 C 319.147 69.000,319.527 69.075,319.583 69.167 C 319.640 69.258,320.011 69.333,320.409 69.333 C 320.897 69.333,321.162 69.414,321.227 69.583 C 321.287 69.740,321.542 69.833,321.911 69.833 C 322.235 69.833,322.500 69.908,322.500 70.000 C 322.500 70.092,322.655 70.167,322.845 70.167 C 323.035 70.167,323.303 70.279,323.440 70.417 C 323.578 70.554,323.856 70.667,324.058 70.667 C 324.261 70.667,324.535 70.817,324.667 71.000 C 324.799 71.183,324.990 71.333,325.092 71.333 C 325.194 71.333,325.377 71.521,325.500 71.750 C 325.623 71.979,325.823 72.167,325.945 72.167 C 326.275 72.167,326.249 73.766,325.917 73.894 C 325.779 73.946,325.667 74.142,325.667 74.328 C 325.667 74.514,325.592 74.667,325.500 74.667 C 325.408 74.667,325.333 74.747,325.333 74.845 C 325.333 75.076,324.909 75.500,324.679 75.500 C 324.580 75.500,324.500 75.612,324.500 75.750 C 324.500 75.906,324.343 76.000,324.083 76.000 C 323.854 76.000,323.667 76.075,323.667 76.167 C 323.667 76.258,323.404 76.333,323.083 76.333 C 322.676 76.333,322.500 76.409,322.500 76.583 C 322.500 76.794,322.130 76.833,320.167 76.833 C 318.204 76.833,317.833 76.794,317.833 76.583 C 317.833 76.409,317.657 76.333,317.250 76.333 C 316.929 76.333,316.667 76.258,316.667 76.167 C 316.667 76.075,316.479 76.000,316.250 76.000 C 315.991 76.000,315.833 75.906,315.833 75.750 C 315.833 75.608,315.684 75.500,315.488 75.500 C 315.119 75.500,314.667 75.139,314.667 74.845 C 314.667 74.747,314.586 74.667,314.488 74.667 C 314.194 74.667,313.833 74.214,313.833 73.845 C 313.833 73.649,313.725 73.500,313.583 73.500 C 313.409 73.500,313.333 73.324,313.333 72.917 C 313.333 72.596,313.258 72.333,313.167 72.333 C 313.075 72.333,313.000 71.958,313.000 71.500 L 313.000 70.667 304.583 70.667 L 296.167 70.667 296.167 72.589 C 296.167 74.143,296.214 74.529,296.417 74.606 C 296.571 74.666,296.667 74.919,296.667 75.268 C 296.667 75.579,296.742 75.833,296.833 75.833 C 296.925 75.833,297.000 76.098,297.000 76.422 C 297.000 76.791,297.093 77.046,297.250 77.106 C 297.387 77.159,297.500 77.382,297.500 77.601 C 297.500 77.821,297.575 78.000,297.667 78.000 C 297.758 78.000,297.833 78.139,297.833 78.310 C 297.833 78.480,298.021 78.761,298.250 78.933 C 298.479 79.105,298.667 79.415,298.667 79.623 C 298.667 79.830,298.747 80.000,298.845 80.000 C 299.139 80.000,299.500 80.452,299.500 80.821 C 299.500 81.017,299.608 81.167,299.750 81.167 C 299.887 81.167,300.000 81.249,300.000 81.350 C 300.000 81.610,302.432 83.956,302.834 84.083 C 303.017 84.142,303.167 84.259,303.167 84.345 C 303.167 84.430,303.261 84.500,303.377 84.500 C 303.493 84.500,303.728 84.688,303.900 84.917 C 304.073 85.146,304.353 85.333,304.523 85.333 C 304.694 85.333,304.833 85.408,304.833 85.500 C 304.833 85.592,305.021 85.667,305.250 85.667 C 305.509 85.667,305.667 85.761,305.667 85.917 C 305.667 86.054,305.779 86.167,305.917 86.167 C 306.054 86.167,306.167 86.242,306.167 86.333 C 306.167 86.425,306.309 86.500,306.482 86.500 C 306.656 86.500,306.841 86.612,306.894 86.750 C 306.954 86.907,307.209 87.000,307.578 87.000 C 307.902 87.000,308.167 87.075,308.167 87.167 C 308.167 87.258,308.354 87.333,308.583 87.333 C 308.843 87.333,309.000 87.428,309.000 87.583 C 309.000 87.758,309.176 87.833,309.583 87.833 C 309.904 87.833,310.167 87.908,310.167 88.000 C 310.167 88.092,310.421 88.167,310.732 88.167 C 311.081 88.167,311.334 88.262,311.394 88.417 C 311.464 88.601,311.755 88.667,312.495 88.667 C 313.054 88.667,313.500 88.741,313.500 88.833 C 313.500 88.931,314.083 89.000,314.917 89.000 C 315.750 89.000,316.333 89.069,316.333 89.167 C 316.333 89.273,317.722 89.333,320.167 89.333 C 322.611 89.333,324.000 89.273,324.000 89.167 C 324.000 89.068,324.611 89.000,325.500 89.000 C 326.389 89.000,327.000 88.932,327.000 88.833 C 327.000 88.742,327.415 88.667,327.922 88.667 C 328.588 88.667,328.870 88.597,328.940 88.417 C 329.005 88.247,329.271 88.167,329.768 88.167 C 330.171 88.167,330.500 88.092,330.500 88.000 C 330.500 87.908,330.720 87.833,330.988 87.833 C 331.257 87.833,331.589 87.721,331.726 87.583 C 331.864 87.446,332.132 87.333,332.321 87.333 C 332.511 87.333,332.667 87.258,332.667 87.167 C 332.667 87.075,332.894 87.000,333.172 87.000 C 333.467 87.000,333.717 86.896,333.773 86.750 C 333.826 86.612,334.048 86.500,334.268 86.500 C 334.487 86.500,334.667 86.425,334.667 86.333 C 334.667 86.242,334.819 86.167,335.005 86.167 C 335.191 86.167,335.387 86.054,335.440 85.917 C 335.492 85.779,335.640 85.667,335.768 85.667 C 335.896 85.667,336.000 85.592,336.000 85.500 C 336.000 85.408,336.150 85.333,336.333 85.333 C 336.519 85.333,336.667 85.222,336.667 85.083 C 336.667 84.946,336.779 84.833,336.917 84.833 C 337.054 84.833,337.167 84.758,337.167 84.667 C 337.167 84.575,337.298 84.498,337.458 84.495 C 337.819 84.488,338.333 84.113,338.333 83.857 C 338.333 83.752,338.414 83.667,338.512 83.667 C 338.743 83.667,339.167 83.243,339.167 83.012 C 339.167 82.914,339.247 82.833,339.345 82.833 C 339.576 82.833,340.000 82.409,340.000 82.179 C 340.000 82.080,340.080 82.000,340.179 82.000 C 340.473 82.000,340.833 81.548,340.833 81.179 C 340.833 80.989,340.908 80.833,341.000 80.833 C 341.092 80.833,341.167 80.721,341.167 80.583 C 341.167 80.446,341.279 80.333,341.417 80.333 C 341.556 80.333,341.667 80.185,341.667 80.000 C 341.667 79.817,341.742 79.667,341.833 79.667 C 341.925 79.667,342.000 79.479,342.000 79.250 C 342.000 78.991,342.094 78.833,342.250 78.833 C 342.406 78.833,342.500 78.676,342.500 78.417 C 342.500 78.188,342.575 78.000,342.667 78.000 C 342.758 78.000,342.833 77.700,342.833 77.333 C 342.833 76.852,342.903 76.667,343.083 76.667 C 343.272 76.667,343.333 76.463,343.333 75.833 C 343.333 75.375,343.408 75.000,343.500 75.000 C 343.604 75.000,343.667 74.028,343.667 72.417 C 343.667 70.806,343.604 69.833,343.500 69.833 C 343.407 69.833,343.333 69.387,343.333 68.828 C 343.333 68.088,343.267 67.798,343.083 67.727 C 342.929 67.668,342.833 67.414,342.833 67.066 C 342.833 66.754,342.758 66.500,342.667 66.500 C 342.575 66.500,342.500 66.313,342.500 66.083 C 342.500 65.824,342.406 65.667,342.250 65.667 C 342.094 65.667,342.000 65.509,342.000 65.250 C 342.000 65.021,341.925 64.833,341.833 64.833 C 341.742 64.833,341.667 64.694,341.667 64.523 C 341.667 64.353,341.479 64.073,341.250 63.900 C 341.021 63.728,340.833 63.450,340.833 63.282 C 340.833 62.946,340.460 62.500,340.179 62.500 C 340.080 62.500,340.000 62.420,340.000 62.321 C 340.000 62.091,339.576 61.667,339.345 61.667 C 339.247 61.667,339.167 61.586,339.167 61.488 C 339.167 61.266,338.746 60.833,338.530 60.833 C 338.441 60.833,338.326 60.721,338.273 60.583 C 338.220 60.446,338.043 60.333,337.878 60.333 C 337.714 60.333,337.438 60.146,337.266 59.917 C 337.094 59.688,336.814 59.500,336.643 59.500 C 336.473 59.500,336.333 59.425,336.333 59.333 C 336.333 59.242,336.221 59.167,336.083 59.167 C 335.946 59.167,335.833 59.093,335.833 59.003 C 335.833 58.913,335.646 58.793,335.417 58.735 C 335.188 58.678,335.000 58.564,335.000 58.482 C 335.000 58.400,334.854 58.333,334.677 58.333 C 334.499 58.333,334.307 58.258,334.250 58.167 C 334.193 58.075,333.889 58.000,333.573 58.000 C 333.175 58.000,333.000 57.924,333.000 57.750 C 333.000 57.575,332.824 57.500,332.417 57.500 C 332.096 57.500,331.833 57.425,331.833 57.333 C 331.833 57.242,331.579 57.167,331.268 57.167 C 330.919 57.167,330.666 57.071,330.606 56.917 C 330.546 56.760,330.291 56.667,329.922 56.667 C 329.598 56.667,329.333 56.592,329.333 56.500 C 329.333 56.408,328.958 56.333,328.500 56.333 C 327.870 56.333,327.667 56.272,327.667 56.083 C 327.667 55.889,327.444 55.833,326.667 55.833 C 326.111 55.833,325.667 55.759,325.667 55.667 C 325.667 55.574,325.228 55.500,324.684 55.500 C 323.965 55.500,323.677 55.433,323.606 55.250 C 323.534 55.061,323.227 55.000,322.339 55.000 C 321.668 55.000,321.167 54.929,321.167 54.833 C 321.167 54.742,320.792 54.667,320.333 54.667 C 319.704 54.667,319.500 54.606,319.500 54.417 C 319.500 54.242,319.324 54.167,318.917 54.167 C 318.596 54.167,318.333 54.092,318.333 54.000 C 318.333 53.908,318.146 53.833,317.917 53.833 C 317.688 53.833,317.500 53.758,317.500 53.667 C 317.500 53.575,317.313 53.500,317.083 53.500 C 316.854 53.500,316.667 53.420,316.667 53.321 C 316.667 53.091,316.243 52.667,316.012 52.667 C 315.914 52.667,315.833 52.586,315.833 52.488 C 315.833 52.257,315.409 51.833,315.179 51.833 C 314.878 51.833,314.946 49.390,315.250 49.273 C 315.387 49.220,315.500 49.025,315.500 48.839 C 315.500 48.652,315.575 48.500,315.667 48.500 C 315.758 48.500,315.833 48.387,315.833 48.250 C 315.833 48.112,315.946 48.000,316.083 48.000 C 316.221 48.000,316.333 47.925,316.333 47.833 C 316.333 47.742,316.483 47.667,316.667 47.667 C 316.850 47.667,317.000 47.592,317.000 47.500 C 317.000 47.408,317.152 47.333,317.339 47.333 C 317.525 47.333,317.720 47.221,317.773 47.083 C 317.843 46.902,318.128 46.833,318.818 46.833 C 319.348 46.833,319.864 46.741,319.987 46.625 C 320.164 46.458,320.224 46.458,320.285 46.625 C 320.336 46.766,320.757 46.833,321.579 46.833 C 322.509 46.833,322.820 46.893,322.894 47.083 C 322.946 47.221,323.142 47.333,323.328 47.333 C 323.514 47.333,323.667 47.408,323.667 47.500 C 323.667 47.592,323.747 47.667,323.845 47.667 C 324.076 47.667,324.500 48.091,324.500 48.321 C 324.500 48.420,324.567 48.500,324.649 48.500 C 324.730 48.500,324.844 48.688,324.902 48.917 C 324.959 49.146,325.080 49.333,325.170 49.333 C 325.260 49.333,325.333 49.596,325.333 49.917 C 325.333 50.237,325.408 50.500,325.500 50.500 C 325.592 50.500,325.667 50.875,325.667 51.333 L 325.667 52.167 334.667 52.167 L 343.667 52.167 343.667 50.167 C 343.667 48.944,343.602 48.167,343.500 48.167 C 343.408 48.167,343.333 47.792,343.333 47.333 C 343.333 46.704,343.272 46.500,343.083 46.500 C 342.909 46.500,342.833 46.324,342.833 45.917 C 342.833 45.596,342.758 45.333,342.667 45.333 C 342.575 45.333,342.500 45.146,342.500 44.917 C 342.500 44.657,342.406 44.500,342.250 44.500 C 342.094 44.500,342.000 44.343,342.000 44.083 C 342.000 43.854,341.925 43.667,341.833 43.667 C 341.742 43.667,341.667 43.554,341.667 43.417 C 341.667 43.279,341.554 43.167,341.417 43.167 C 341.274 43.167,341.167 43.017,341.167 42.819 C 341.167 42.628,340.904 42.217,340.583 41.906 C 340.262 41.594,340.000 41.257,340.000 41.157 C 340.000 40.840,339.041 40.000,338.679 40.000 C 338.489 40.000,338.333 39.920,338.333 39.821 C 338.333 39.591,337.909 39.167,337.679 39.167 C 337.580 39.167,337.500 39.086,337.500 38.988 C 337.500 38.694,337.048 38.333,336.679 38.333 C 336.483 38.333,336.333 38.225,336.333 38.083 C 336.333 37.928,336.176 37.833,335.917 37.833 C 335.688 37.833,335.500 37.758,335.500 37.667 C 335.500 37.575,335.420 37.500,335.321 37.500 C 335.223 37.500,335.030 37.387,334.893 37.250 C 334.755 37.112,334.461 37.000,334.238 37.000 C 334.015 37.000,333.833 36.925,333.833 36.833 C 333.833 36.742,333.646 36.667,333.417 36.667 C 333.157 36.667,333.000 36.572,333.000 36.417 C 333.000 36.261,332.843 36.167,332.583 36.167 C 332.354 36.167,332.167 36.092,332.167 36.000 C 332.167 35.908,331.904 35.833,331.583 35.833 C 331.262 35.833,331.000 35.758,331.000 35.667 C 331.000 35.575,330.625 35.500,330.167 35.500 C 329.537 35.500,329.333 35.439,329.333 35.250 C 329.333 35.061,329.130 35.000,328.500 35.000 C 328.042 35.000,327.667 34.925,327.667 34.833 C 327.667 34.735,327.083 34.667,326.250 34.667 C 325.102 34.667,324.833 34.619,324.833 34.417 C 324.833 34.200,324.204 34.167,320.167 34.167 C 316.130 34.167,315.500 34.200,315.500 34.417 M273.333 61.582 L 273.333 88.167 282.501 88.167 L 291.668 88.167 291.626 61.625 L 291.583 35.083 282.458 35.040 L 273.333 34.997 273.333 61.582 M156.167 69.333 C 156.167 71.667,156.106 73.000,156.000 73.000 C 155.908 73.000,155.833 73.100,155.833 73.222 C 155.833 73.344,155.646 73.544,155.417 73.667 C 155.188 73.789,155.000 73.989,155.000 74.111 C 155.000 74.234,154.887 74.333,154.750 74.333 C 154.612 74.333,154.500 74.408,154.500 74.500 C 154.500 74.592,154.350 74.667,154.167 74.667 C 153.981 74.667,153.833 74.778,153.833 74.917 C 153.833 75.072,153.676 75.167,153.417 75.167 C 153.188 75.167,153.000 75.242,153.000 75.333 C 153.000 75.425,152.625 75.500,152.167 75.500 C 151.537 75.500,151.333 75.561,151.333 75.750 C 151.333 75.954,151.056 76.000,149.833 76.000 C 148.611 76.000,148.333 75.954,148.333 75.750 C 148.333 75.583,148.167 75.500,147.833 75.500 C 147.245 75.500,145.500 73.875,145.500 73.326 C 145.500 73.147,145.425 73.000,145.333 73.000 C 145.242 73.000,145.167 72.625,145.167 72.167 C 145.167 71.708,145.242 71.333,145.333 71.333 C 145.425 71.333,145.500 71.004,145.500 70.601 C 145.500 70.104,145.580 69.838,145.750 69.773 C 145.887 69.720,146.000 69.529,146.000 69.348 C 146.000 69.168,146.075 68.973,146.167 68.917 C 146.258 68.860,146.333 68.668,146.333 68.490 C 146.333 68.312,146.446 68.167,146.583 68.167 C 146.721 68.167,146.833 68.092,146.833 68.000 C 146.833 67.695,148.161 66.500,148.500 66.500 C 148.683 66.500,148.833 66.425,148.833 66.333 C 148.833 66.242,149.096 66.167,149.417 66.167 C 149.824 66.167,150.000 66.091,150.000 65.917 C 150.000 65.703,150.454 65.667,153.083 65.667 L 156.167 65.667 156.167 69.333 M21.748 85.503 C 21.716 85.555,21.910 85.594,22.178 85.591 C 22.447 85.587,22.667 85.528,22.667 85.461 C 22.667 85.320,21.838 85.358,21.748 85.503 " stroke="none" fill="#2c4cfc" fill-rule="evenodd"></path><path id="path1" d="M65.288 72.565 C 65.033 72.678,64.877 72.822,64.941 72.885 C 65.004 72.948,64.897 73.000,64.703 73.000 C 64.509 73.000,64.290 73.094,64.217 73.208 C 64.143 73.323,63.802 73.547,63.458 73.706 C 63.115 73.865,62.833 74.071,62.833 74.164 C 62.833 74.257,62.650 74.333,62.427 74.333 C 62.203 74.333,61.973 74.408,61.917 74.500 C 61.860 74.592,61.677 74.667,61.511 74.667 C 61.344 74.667,61.114 74.779,61.000 74.917 C 60.886 75.054,60.581 75.167,60.323 75.167 C 60.064 75.167,59.807 75.242,59.750 75.333 C 59.693 75.425,59.464 75.500,59.240 75.500 C 58.990 75.500,58.833 75.596,58.833 75.750 C 58.833 75.939,58.630 76.000,58.000 76.000 C 57.542 76.000,57.167 76.075,57.167 76.167 C 57.167 76.258,56.824 76.333,56.405 76.333 C 55.950 76.333,55.542 76.434,55.393 76.583 C 55.213 76.764,54.774 76.833,53.821 76.833 C 53.052 76.833,52.500 76.903,52.500 77.000 C 52.500 77.093,52.038 77.169,51.458 77.172 C 50.818 77.175,50.295 77.270,50.100 77.417 C 49.927 77.548,49.720 77.616,49.641 77.567 C 49.562 77.519,49.453 77.596,49.398 77.739 C 49.246 78.134,48.888 78.051,48.903 77.625 C 48.916 77.264,48.856 77.248,47.286 77.202 C 46.389 77.176,45.694 77.090,45.742 77.012 C 45.791 76.934,44.923 76.858,43.814 76.844 C 42.308 76.824,41.698 76.752,41.404 76.559 C 41.059 76.333,40.596 76.317,39.532 76.492 C 39.504 76.496,39.527 76.575,39.583 76.667 C 39.646 76.767,39.418 76.833,39.010 76.833 C 38.638 76.833,38.333 76.908,38.333 77.000 C 38.333 77.092,38.221 77.167,38.083 77.167 C 37.858 77.167,37.759 76.969,37.814 76.625 C 37.824 76.556,37.777 76.494,37.708 76.488 C 37.640 76.481,37.422 76.445,37.225 76.408 C 37.013 76.368,36.828 76.441,36.772 76.587 C 36.698 76.779,36.346 76.833,35.172 76.833 C 34.280 76.833,33.667 76.901,33.667 77.000 C 33.667 77.092,33.254 77.167,32.750 77.167 C 32.246 77.167,31.833 77.242,31.833 77.333 C 31.833 77.425,31.665 77.500,31.458 77.501 C 31.252 77.502,30.869 77.614,30.606 77.751 C 30.343 77.888,29.992 78.000,29.824 78.000 C 29.657 78.000,29.473 78.075,29.417 78.167 C 29.360 78.258,29.136 78.333,28.919 78.333 C 28.702 78.333,28.411 78.446,28.274 78.583 C 28.136 78.721,27.868 78.833,27.679 78.833 C 27.489 78.833,27.333 78.908,27.333 79.000 C 27.333 79.092,27.146 79.167,26.917 79.167 C 26.657 79.167,26.500 79.261,26.500 79.417 C 26.500 79.570,26.344 79.667,26.097 79.667 C 25.876 79.667,25.668 79.745,25.636 79.841 C 25.605 79.936,25.411 80.027,25.206 80.043 C 25.001 80.058,24.833 80.160,24.833 80.268 C 24.833 80.376,24.535 80.613,24.171 80.793 C 23.807 80.973,23.557 81.168,23.616 81.227 C 23.674 81.285,23.597 81.333,23.444 81.333 C 23.292 81.333,23.167 81.403,23.167 81.488 C 23.167 81.574,22.998 81.667,22.792 81.697 C 22.504 81.738,22.404 81.877,22.364 82.292 L 22.312 82.833 25.031 82.839 C 27.128 82.843,27.822 82.899,28.066 83.083 C 28.343 83.293,27.890 83.330,24.316 83.389 C 22.080 83.426,19.950 83.507,19.583 83.570 C 18.344 83.780,18.153 83.843,18.253 84.005 C 18.313 84.101,18.013 84.167,17.510 84.167 C 17.046 84.167,16.667 84.232,16.667 84.312 C 16.667 84.392,16.367 84.505,16.000 84.564 C 15.633 84.623,15.333 84.745,15.333 84.835 C 15.333 84.926,15.183 85.000,15.000 85.000 C 14.817 85.000,14.667 85.075,14.667 85.167 C 14.667 85.258,14.563 85.333,14.437 85.333 C 14.146 85.333,13.780 85.768,13.716 86.191 C 13.670 86.495,13.763 86.515,15.083 86.486 C 15.862 86.469,16.500 86.390,16.500 86.311 C 16.500 86.231,16.795 86.167,17.155 86.167 C 17.515 86.167,17.922 86.054,18.060 85.917 C 18.248 85.728,18.715 85.667,19.955 85.667 C 21.040 85.667,21.676 85.596,21.824 85.458 C 22.005 85.291,22.024 85.293,21.924 85.471 C 21.820 85.654,21.862 85.654,22.171 85.471 C 22.466 85.296,22.559 85.294,22.619 85.458 C 22.660 85.573,22.878 85.667,23.102 85.667 C 23.327 85.667,23.554 85.779,23.606 85.917 C 23.659 86.054,23.882 86.167,24.101 86.167 C 24.321 86.167,24.500 86.242,24.500 86.333 C 24.500 86.425,24.646 86.500,24.823 86.500 C 25.001 86.500,25.194 86.576,25.252 86.669 C 25.399 86.908,26.467 87.333,26.919 87.333 C 27.127 87.333,27.341 87.446,27.394 87.583 C 27.450 87.729,27.699 87.833,27.995 87.833 C 28.273 87.833,28.500 87.908,28.500 88.000 C 28.500 88.092,28.706 88.169,28.958 88.172 C 29.210 88.175,29.562 88.287,29.740 88.422 C 29.918 88.557,30.274 88.667,30.532 88.667 C 30.789 88.667,31.000 88.742,31.000 88.833 C 31.000 88.925,31.371 89.000,31.823 89.000 C 32.276 89.000,32.693 89.075,32.750 89.167 C 32.807 89.258,33.229 89.333,33.687 89.333 C 34.146 89.333,34.673 89.414,34.857 89.512 C 35.136 89.662,35.206 89.635,35.282 89.346 C 35.372 89.001,35.833 88.851,35.833 89.167 C 35.833 89.258,36.013 89.333,36.232 89.333 C 36.452 89.333,36.675 89.449,36.730 89.591 C 36.870 89.957,44.426 89.934,44.567 89.567 C 44.631 89.400,44.966 89.333,45.745 89.333 C 46.359 89.333,46.833 89.261,46.833 89.167 C 46.833 89.075,47.081 89.000,47.383 89.000 C 47.686 89.000,48.005 88.931,48.092 88.847 C 48.179 88.763,48.400 88.670,48.583 88.639 C 48.767 88.608,49.016 88.490,49.137 88.375 C 49.258 88.260,49.497 88.167,49.669 88.167 C 49.840 88.167,50.027 88.092,50.083 88.000 C 50.140 87.908,50.337 87.833,50.522 87.833 C 50.982 87.833,51.333 87.442,51.333 86.929 C 51.333 86.533,51.390 86.500,52.073 86.500 C 52.481 86.500,52.860 86.425,52.917 86.333 C 52.973 86.242,53.168 86.167,53.348 86.167 C 53.529 86.167,53.720 86.054,53.773 85.917 C 53.826 85.779,53.973 85.667,54.101 85.667 C 54.229 85.667,54.333 85.592,54.333 85.500 C 54.333 85.408,54.483 85.333,54.667 85.333 C 54.852 85.333,55.000 85.222,55.000 85.083 C 55.000 84.946,55.106 84.833,55.236 84.833 C 55.366 84.833,55.497 84.777,55.528 84.708 C 55.558 84.640,56.015 84.262,56.542 83.870 C 57.069 83.477,57.500 83.096,57.500 83.023 C 57.500 82.950,57.688 82.789,57.917 82.667 C 58.146 82.544,58.333 82.344,58.333 82.222 C 58.333 82.100,58.414 82.000,58.512 82.000 C 58.706 82.000,59.167 81.590,59.167 81.417 C 59.167 81.244,59.627 80.833,59.821 80.833 C 59.920 80.833,60.000 80.753,60.000 80.655 C 60.000 80.461,60.410 80.000,60.583 80.000 C 60.703 80.000,61.167 79.564,61.167 79.452 C 61.167 79.413,61.654 78.886,62.250 78.281 C 62.846 77.676,63.333 77.082,63.333 76.961 C 63.333 76.840,63.483 76.632,63.667 76.500 C 63.850 76.368,64.000 76.198,64.000 76.123 C 64.000 75.993,64.148 75.788,64.625 75.256 C 64.740 75.128,64.833 74.943,64.833 74.845 C 64.833 74.747,64.946 74.667,65.083 74.667 C 65.221 74.667,65.333 74.554,65.333 74.417 C 65.333 74.279,65.408 74.167,65.500 74.167 C 65.592 74.167,65.667 74.044,65.667 73.893 C 65.667 73.743,65.785 73.534,65.929 73.429 C 66.113 73.293,66.157 73.104,66.077 72.785 C 65.951 72.281,65.937 72.278,65.288 72.565 " stroke="none" fill="#0423cb" fill-rule="evenodd"></path></g></svg>