<svg id="svg" xmlns="http://www.w3.org/2000/svg" xmlns:xlink="http://www.w3.org/1999/xlink" width="400" height="535.5932203389831" viewBox="0, 0, 400,535.5932203389831"><g id="svgg"><path id="path0" d="M242.259 7.015 C 240.298 23.567,233.300 43.453,210.132 98.305 C 199.241 124.089,198.633 129.294,204.589 145.754 C 210.070 160.901,209.926 161.269,203.128 149.492 C 195.907 136.981,196.296 136.794,190.455 155.593 C 183.538 177.855,172.338 207.768,162.605 229.972 C 146.416 266.908,145.915 269.359,150.571 288.782 C 152.086 295.104,153.626 303.951,153.993 308.443 L 154.661 316.610 152.010 306.946 C 149.309 297.096,141.788 280.678,139.978 280.678 C 139.428 280.678,137.454 283.571,135.591 287.107 C 129.966 297.782,107.026 335.877,95.363 353.910 C 71.433 390.913,61.017 420.027,61.017 449.914 L 61.017 461.563 32.053 490.781 C 3.294 519.794,-2.100 526.102,1.849 526.102 C 14.553 526.102,77.856 461.435,117.603 407.854 C 175.539 329.753,223.872 228.083,240.596 149.137 C 242.411 140.569,243.929 135.085,243.971 136.949 C 244.012 138.814,242.581 147.379,240.791 155.983 C 221.434 249.010,158.065 371.495,87.689 451.910 C 77.684 463.343,77.934 463.556,94.392 457.635 C 121.462 447.895,147.565 433.064,158.536 421.190 C 162.965 416.397,162.116 416.067,151.226 418.345 C 139.995 420.695,138.498 420.129,147.375 416.890 C 167.629 409.500,168.379 408.938,178.931 393.220 C 193.799 371.074,225.600 316.073,224.313 314.731 C 223.851 314.248,210.364 316.520,204.068 318.141 C 202.576 318.525,207.278 315.254,214.515 310.872 C 234.055 299.040,236.327 295.285,257.395 240.000 C 282.730 173.518,281.117 113.957,251.482 21.695 C 244.075 -1.365,243.382 -2.469,242.259 7.015 M391.846 419.854 C 367.957 435.107,342.996 443.429,307.258 448.058 C 291.669 450.077,290.561 450.446,274.376 459.009 C 265.164 463.883,257.627 467.613,257.627 467.299 C 257.627 466.985,262.203 463.223,267.797 458.939 C 280.296 449.365,280.329 448.814,268.410 448.814 C 263.154 448.814,250.493 447.840,240.274 446.651 C 213.266 443.507,208.130 444.659,193.666 457.110 C 183.270 466.059,182.788 465.436,191.848 454.758 C 200.996 443.974,201.301 444.449,186.347 446.211 C 158.009 449.552,127.878 460.224,105.888 474.711 C 90.369 484.935,90.443 485.424,107.516 485.424 C 115.193 485.424,137.616 487.275,157.347 489.537 C 217.293 496.410,241.522 496.259,274.480 488.807 C 291.884 484.872,294.392 485.131,280.063 489.385 C 247.432 499.072,217.301 501.060,173.454 496.420 C 120.756 490.842,89.233 491.224,62.373 497.763 C 49.935 500.792,32.542 508.047,32.542 510.206 C 32.542 511.949,48.690 510.365,58.398 507.671 C 62.449 506.546,71.962 505.267,79.538 504.828 L 93.314 504.030 109.352 511.160 C 134.237 522.223,176.132 534.510,182.141 532.507 C 182.953 532.236,180.591 528.734,176.893 524.725 L 170.169 517.436 178.615 523.860 C 183.261 527.393,189.057 531.101,191.497 532.099 C 208.675 539.129,259.790 533.646,285.825 521.980 C 296.679 517.117,296.757 516.423,286.780 513.492 L 280.000 511.501 291.525 511.658 C 315.799 511.988,356.393 477.720,393.752 425.361 C 401.659 414.279,401.464 413.714,391.846 419.854 " stroke="none" fill="#000000" fill-rule="evenodd"></path></g></svg>